<?xml version="1.0" encoding="UTF-8"?>
<svg version="1.1" xmlns="http://www.w3.org/2000/svg" width="156" height="156">
<path d="M0 0 C51.48 0 102.96 0 156 0 C156 51.48 156 102.96 156 156 C104.52 156 53.04 156 0 156 C0 104.52 0 53.04 0 0 Z " fill="#FEFEFE" transform="translate(0,0)"/>
<path d="M0 0 C0.88026855 0.01232666 1.76053711 0.02465332 2.66748047 0.03735352 C13.56737901 0.31929971 19.95677544 2.29031355 27.9296875 10.05078125 C34.02560142 16.69376437 35.88089327 24.10840487 36.1875 33 C36.14625 33.78375 36.105 34.5675 36.0625 35.375 C35.50304687 35.22417969 34.94359375 35.07335937 34.3671875 34.91796875 C27.69014231 33.34490217 22.56074302 33.11474156 16.0625 35.375 C12.66525364 35.28874179 9.37447036 34.72832271 6.08984375 33.84375 C1.18650751 32.71003064 -3.65382225 32.98531211 -8.4375 34.4375 C-13.97445312 35.92061244 -18.94706485 34.75911906 -24.5 33.6875 C-28.81335695 33.29537664 -31.80298299 34.14189843 -35.9375 35.375 C-35.54066413 24.93821653 -33.48732478 15.92482478 -25.9375 8.375 C-18.34163865 1.71196373 -9.91725061 -0.16855707 0 0 Z " fill="#47464D" transform="translate(71.9375,50.625)"/>
<path d="M0 0 C4.29083104 1.0096073 5.45892843 3.07949288 7.890625 6.609375 C12.2618414 13.82451533 12.33458957 20.48029725 12.1875 28.75 C10.92292969 28.50636719 10.92292969 28.50636719 9.6328125 28.2578125 C6.05825771 27.73095068 2.67394871 27.61719989 -0.9375 27.625 C-2.13632813 27.62242188 -3.33515625 27.61984375 -4.5703125 27.6171875 C-7.19974796 27.72489931 -9.32091473 27.96905536 -11.8125 28.75 C-12.15458932 19.47557839 -11.57354679 12.43139573 -5.8125 4.75 C-5.131875 3.574375 -5.131875 3.574375 -4.4375 2.375 C-2.8125 0.75 -2.8125 0.75 0 0 Z " fill="#F1FAF6" transform="translate(71.8125,53.25)"/>
<path d="M0 0 C7.74288919 0.5107012 12.33450354 3.09371336 17.859375 8.48828125 C22.18785881 13.5671409 24.25692544 18.31993857 24 25 C23.19175781 25.06058594 22.38351563 25.12117188 21.55078125 25.18359375 C19.94783203 25.30927734 19.94783203 25.30927734 18.3125 25.4375 C17.25675781 25.51871094 16.20101562 25.59992188 15.11328125 25.68359375 C12.34913703 25.96451681 9.71054259 26.40156852 7 27 C6.96261719 26.0821875 6.92523438 25.164375 6.88671875 24.21875 C6.38430415 14.84034417 5.22365637 7.95985733 0 0 Z " fill="#F6F9F8" transform="translate(80,55)"/>
<path d="M0 0 C-0.66 1.32 -1.32 2.64 -2 4 C-2.66 4 -3.32 4 -4 4 C-6.05524681 10.98783914 -6.54570892 17.73134279 -7 25 C-12.61 24.67 -18.22 24.34 -24 24 C-22.875 16.125 -22.875 16.125 -20.4375 12.0625 C-19.98246094 11.29035156 -19.52742188 10.51820312 -19.05859375 9.72265625 C-18.70925781 9.15417969 -18.35992187 8.58570312 -18 8 C-17.34 8 -16.68 8 -16 8 C-15.67 7.01 -15.34 6.02 -15 5 C-13.00390625 3.6484375 -13.00390625 3.6484375 -10.5625 2.375 C-9.75941406 1.94960938 -8.95632812 1.52421875 -8.12890625 1.0859375 C-4.74338704 -0.64098789 -3.67909527 -1.10372858 0 0 Z " fill="#F5F6F6" transform="translate(64,56)"/>
<path d="M0 0 C2.7558573 4.13378595 3.10756445 6.05203546 3 11 C2.44054687 10.84917969 1.88109375 10.69835937 1.3046875 10.54296875 C-5.37235769 8.96990217 -10.50175698 8.73974156 -17 11 C-20.40666395 10.91350267 -23.7049467 10.34780437 -26.99902344 9.46313477 C-30.37040411 8.68281398 -33.80818485 8.89797385 -37.25 8.9375 C-37.99507813 8.94201172 -38.74015625 8.94652344 -39.5078125 8.95117188 C-41.3385764 8.96290754 -43.16929873 8.9808415 -45 9 C-44.34 8.67 -43.68 8.34 -43 8 C-43 7.34 -43 6.68 -43 6 C-40.04200997 4.52100499 -37.3516424 4.86821126 -34.0625 4.875 C-32.81597656 4.87242188 -31.56945312 4.86984375 -30.28515625 4.8671875 C-27 5 -27 5 -24 6 C-22.04322445 6.15754704 -22.04322445 6.15754704 -20 6.125 C-18.9790625 6.12886719 -18.9790625 6.12886719 -17.9375 6.1328125 C-15.78125219 6.06631126 -15.78125219 6.06631126 -13 5 C-11.33631742 4.88233824 -9.66779197 4.82490917 -8 4.8125 C-6.700625 4.79123047 -6.700625 4.79123047 -5.375 4.76953125 C-3 5 -3 5 0 7 C0 4.69 0 2.38 0 0 Z " fill="#3A3B41" transform="translate(105,75)"/>
<path d="M0 0 C0.99 0.33 1.98 0.66 3 1 C3.11605098 5.58312084 3.18720362 10.16586449 3.25 14.75 C3.30027344 16.70292969 3.30027344 16.70292969 3.3515625 18.6953125 C3.36445312 19.94570312 3.37734375 21.19609375 3.390625 22.484375 C3.41157227 23.63647461 3.43251953 24.78857422 3.45410156 25.97558594 C3 29 3 29 1.14355469 31.41894531 C-1 33 -1 33 -3.6875 32.8125 C-6 32 -6 32 -7 31 C-7.04063832 29.33382885 -7.042721 27.66611905 -7 26 C-4 27.5 -4 27.5 -1 29 C-1.00523682 28.15703369 -1.01047363 27.31406738 -1.01586914 26.44555664 C-1.03287826 23.32772064 -1.04543406 20.20990823 -1.05493164 17.09204102 C-1.05997057 15.74079614 -1.06680177 14.38955674 -1.07543945 13.03833008 C-1.08752419 11.09979566 -1.09269828 9.161222 -1.09765625 7.22265625 C-1.10289307 6.05484619 -1.10812988 4.88703613 -1.11352539 3.68383789 C-1 1 -1 1 0 0 Z " fill="#3D3B43" transform="translate(71,87)"/>
<path d="M0 0 C6.12955741 4.2041696 11.57356959 9.84795859 13.59375 17.14453125 C14.21814954 20.96897841 14.27891104 23.78271382 12 27 C11.01 26.67 10.02 26.34 9 26 C9.66 25.67 10.32 25.34 11 25 C8.03028817 15.52219628 5.18241023 9.03333361 -3 3 C-5.77853916 1.56298277 -5.77853916 1.56298277 -8 1 C-4.87373936 -0.89808682 -3.44195962 -1.22607838 0 0 Z " fill="#524F56" transform="translate(93,55)"/>
<path d="M0 0 C2.97 0 5.94 0 9 0 C9.33 0.66 9.66 1.32 10 2 C8.68 2 7.36 2 6 2 C6.61875 2.680625 7.2375 3.36125 7.875 4.0625 C13.17170665 11.38441802 12.21735682 19.293652 12 28 C11.01 28 10.02 28 9 28 C8.91363281 26.9378125 8.82726562 25.875625 8.73828125 24.78125 C7.96716725 16.62671941 7.11670324 10.62547471 2 4 C1.34 2.68 0.68 1.36 0 0 Z " fill="#43A071" transform="translate(75,54)"/>
<path d="M0 0 C1.65 0 3.3 0 5 0 C4.5875 0.680625 4.175 1.36125 3.75 2.0625 C3.1725 3.031875 2.595 4.00125 2 5 C0.99453125 6.56234375 0.99453125 6.56234375 -0.03125 8.15625 C-2.31313361 12.15690723 -2.85157878 15.9013084 -3.25 20.4375 C-3.36601563 21.53481445 -3.36601563 21.53481445 -3.484375 22.65429688 C-3.6705671 24.43475885 -3.83734664 26.21723355 -4 28 C-6.31 28 -8.62 28 -11 28 C-9.68 27.67 -8.36 27.34 -7 27 C-7.05220703 25.7315625 -7.05220703 25.7315625 -7.10546875 24.4375 C-7.27115864 17.49430443 -6.96654088 12.30389938 -4 6 C-3.34 6 -2.68 6 -2 6 C-1.855625 5.38125 -1.71125 4.7625 -1.5625 4.125 C-1 2 -1 2 0 0 Z " fill="#55A77C" transform="translate(64,54)"/>
<path d="M0 0 C3.18732254 -0.08797281 6.37432788 -0.14071341 9.5625 -0.1875 C10.45775391 -0.21263672 11.35300781 -0.23777344 12.27539062 -0.26367188 C17.99784892 -0.32655603 21.91424859 0.34201469 27 3 C27 3.33 27 3.66 27 4 C12.15 3.505 12.15 3.505 -3 3 C-2.01 2.67 -1.02 2.34 0 2 C0 1.34 0 0.68 0 0 Z " fill="#2A3335" transform="translate(62,51)"/>
<path d="M0 0 C0.33 0 0.66 0 1 0 C1 9.24 1 18.48 1 28 C1.66 28 2.32 28 3 28 C2.67 28.99 2.34 29.98 2 31 C-0.3125 31.625 -0.3125 31.625 -3 32 C-3.99 31.34 -4.98 30.68 -6 30 C-6.1875 27.375 -6.1875 27.375 -6 25 C-4 26 -2 27 0 28 C0 18.76 0 9.52 0 0 Z " fill="#58575D" transform="translate(70,88)"/>
<path d="M0 0 C2.97 0 5.94 0 9 0 C9.33 0.66 9.66 1.32 10 2 C8.68 2 7.36 2 6 2 C6.639375 2.721875 7.27875 3.44375 7.9375 4.1875 C9.98673535 6.98191184 10.61332946 8.61663274 11 12 C10.01 12 9.02 12 8 12 C6.625 10.375 6.625 10.375 5 8 C4.11050942 6.95291199 3.21433493 5.91147507 2.3125 4.875 C0 2 0 2 0 0 Z " fill="#5BAF84" transform="translate(75,54)"/>
<path d="M0 0 C3.38599443 3.53321158 4.03899885 7.24213978 4 12 C3.0625 14.5 3.0625 14.5 2 16 C1.01 15.67 0.02 15.34 -1 15 C-0.34 14.67 0.32 14.34 1 14 C0.76023437 13.24074219 0.52046875 12.48148438 0.2734375 11.69921875 C-0.02304688 10.70535156 -0.31953125 9.71148437 -0.625 8.6875 C-0.92664063 7.70136719 -1.22828125 6.71523437 -1.5390625 5.69921875 C-2 3 -2 3 0 0 Z " fill="#55525B" transform="translate(103,66)"/>
<path d="M0 0 C2.56243214 5.12486428 3.10720499 8.31813568 3 14 C0.69 14 -1.62 14 -4 14 C-2.68 13.67 -1.36 13.34 0 13 C0 8.71 0 4.42 0 0 Z " fill="#5BA17F" transform="translate(57,68)"/>
<path d="M0 0 C0.90105469 0.01804687 1.80210938 0.03609375 2.73046875 0.0546875 C3.41753906 0.07789062 4.10460937 0.10109375 4.8125 0.125 C4.8125 1.115 4.8125 2.105 4.8125 3.125 C1.99765955 4.53242022 0.24313887 3.79152164 -2.8125 3.1875 C-3.81539063 2.99285156 -4.81828125 2.79820313 -5.8515625 2.59765625 C-6.62242188 2.44167969 -7.39328125 2.28570312 -8.1875 2.125 C-4.87379 -0.08414 -3.8428979 -0.09981553 0 0 Z " fill="#48464A" transform="translate(97.1875,79.875)"/>
<path d="M0 0 C0.66 0 1.32 0 2 0 C1.5359375 1.5778125 1.5359375 1.5778125 1.0625 3.1875 C-0.42203794 9.03089403 -0.65251711 15.00134801 -1 21 C-1.33 21 -1.66 21 -2 21 C-2.05404449 18.24973583 -2.09369306 15.50053797 -2.125 12.75 C-2.14175781 11.97269531 -2.15851562 11.19539063 -2.17578125 10.39453125 C-2.23662606 3.27568856 -2.23662606 3.27568856 0 0 Z " fill="#D9FCEA" transform="translate(58,60)"/>
<path d="M0 0 C0.99 0.33 1.98 0.66 3 1 C3 1.99 3 2.98 3 4 C4.65 4 6.3 4 8 4 C8 4.66 8 5.32 8 6 C5.6875 6.625 5.6875 6.625 3 7 C2.01 6.34 1.02 5.68 0 5 C-0.1875 2.375 -0.1875 2.375 0 0 Z " fill="#38373D" transform="translate(64,113)"/>
<path d="M0 0 C1.43861294 0.08746284 2.87597508 0.19565348 4.3125 0.3125 C5.11300781 0.37050781 5.91351563 0.42851563 6.73828125 0.48828125 C9.36272334 1.08206694 10.30820672 1.95780294 12 4 C10.3745692 3.85904936 8.74965949 3.71207913 7.125 3.5625 C6.22007813 3.48128906 5.31515625 3.40007813 4.3828125 3.31640625 C2 3 2 3 0 2 C0 1.34 0 0.68 0 0 Z " fill="#37343A" transform="translate(77,51)"/>
<path d="M0 0 C1.75 0.8125 1.75 0.8125 3.75 2.8125 C-3.63461538 5.02788462 -3.63461538 5.02788462 -6.75 3.9375 C-7.245 3.56625 -7.74 3.195 -8.25 2.8125 C-2.87790698 -0.23982558 -2.87790698 -0.23982558 0 0 Z " fill="#4F4D54" transform="translate(60.25,52.1875)"/>
<path d="M0 0 C0.33 0 0.66 0 1 0 C1 4.62 1 9.24 1 14 C0.01 14 -0.98 14 -2 14 C-2.042721 12.33388095 -2.04063832 10.66617115 -2 9 C-1.67 8.67 -1.34 8.34 -1 8 C-0.76924918 6.65252916 -0.58846937 5.29622435 -0.4375 3.9375 C-0.293125 2.638125 -0.14875 1.33875 0 0 Z " fill="#58A07D" transform="translate(86,68)"/>
<path d="M0 0 C2.86724686 0.57344937 3.8614515 0.8614515 6 3 C7.25 6.4375 7.25 6.4375 8 10 C7.01 11.485 7.01 11.485 6 13 C5.566875 11.783125 5.13375 10.56625 4.6875 9.3125 C3.43798371 5.96260633 1.96876433 3.00002183 0 0 Z " fill="#E0FAED" transform="translate(80,55)"/>
<path d="M0 0 C1.875 0.875 1.875 0.875 3.875 4.875 C0.575 3.885 -2.725 2.895 -6.125 1.875 C-2.125 -0.125 -2.125 -0.125 0 0 Z " fill="#453F48" transform="translate(91.125,54.125)"/>
<path d="M0 0 C0 0.66 0 1.32 0 2 C-3.78187881 3.83691257 -5.94568308 4.15837626 -10 3 C-6.88378718 -0.11621282 -4.21175599 -0.11383124 0 0 Z " fill="#2E2D35" transform="translate(47,80)"/>
<path d="M0 0 C0.33 0 0.66 0 1 0 C1.05422947 1.4370809 1.09289723 2.87475462 1.125 4.3125 C1.14820313 5.11300781 1.17140625 5.91351563 1.1953125 6.73828125 C1 9 1 9 -1 12 C-1.92470553 7.28400182 -2.22923777 4.32734391 0 0 Z " fill="#41A06F" transform="translate(60,63)"/>
<path d="M0 0 C2.97 0 5.94 0 9 0 C9.33 0.66 9.66 1.32 10 2 C9.21625 1.938125 8.4325 1.87625 7.625 1.8125 C6.325625 1.9053125 6.325625 1.9053125 5 2 C4.01 3.485 4.01 3.485 3 5 C1.5 3.625 1.5 3.625 0 2 C0 1.34 0 0.68 0 0 Z " fill="#62947E" transform="translate(75,54)"/>
<path d="M0 0 C1.32 0.33 2.64 0.66 4 1 C4 2.98 4 4.96 4 7 C2 5.1875 2 5.1875 0 3 C0 2.01 0 1.02 0 0 Z " fill="#403E48" transform="translate(99,63)"/>
</svg>
