<?xml version="1.0" encoding="UTF-8"?>
<svg version="1.1" xmlns="http://www.w3.org/2000/svg" width="156" height="156">
<path d="M0 0 C51.48 0 102.96 0 156 0 C156 51.48 156 102.96 156 156 C104.52 156 53.04 156 0 156 C0 104.52 0 53.04 0 0 Z " fill="#FEFEFE" transform="translate(0,0)"/>
<path d="M0 0 C5.7877828 4.64901012 11.24827658 11.46238289 12.59765625 18.921875 C13.48931441 29.10299004 13.73087448 38.11265973 8.8125 47.375 C8.51085937 48.055625 8.20921875 48.73625 7.8984375 49.4375 C6.64650015 51.6711724 5.26918637 52.9833733 3.3125 54.625 C2.39984375 55.40617187 2.39984375 55.40617187 1.46875 56.203125 C-0.1875 57.375 -0.1875 57.375 -2.1875 57.375 C-2.1875 58.035 -2.1875 58.695 -2.1875 59.375 C-3.76949631 60.02410154 -5.35315724 60.66914694 -6.9375 61.3125 C-8.26007813 61.85197266 -8.26007813 61.85197266 -9.609375 62.40234375 C-17.3375257 65.31796424 -26.43400334 65.96038121 -34.125 62.625 C-35.49684318 61.90784336 -36.85344562 61.16021734 -38.1875 60.375 C-39.21875 59.776875 -40.25 59.17875 -41.3125 58.5625 C-49.97074128 51.97470772 -55.44954832 44.36447223 -57.1875 33.375 C-58.22454844 23.71854895 -55.81200542 13.36150245 -50.1875 5.375 C-49.5275 5.375 -48.8675 5.375 -48.1875 5.375 C-47.8575 4.385 -47.5275 3.395 -47.1875 2.375 C-33.19067187 -9.38601095 -15.14237909 -10.15260465 0 0 Z " fill="#E4F4EB" transform="translate(96.1875,64.625)"/>
<path d="M0 0 C0 0.66 0 1.32 0 2 C0.70125 2.185625 1.4025 2.37125 2.125 2.5625 C8.45201523 5.72600762 11.72022515 11.5206399 14 18 C15.10627745 22.02282709 15.08156918 25.83997199 15 30 C14.01 30.495 14.01 30.495 13 31 C11.86649466 33.01669827 11.86649466 33.01669827 11 35 C10.34 35 9.68 35 9 35 C8.505 35.99 8.505 35.99 8 37 C7.34 37 6.68 37 6 37 C6 32 6 27 6 22 C5.67 22 5.34 22 5 22 C5 20.02 5 18.04 5 16 C2.9399629 15.74965874 0.87672534 15.52556654 -1.1875 15.3125 C-2.33605469 15.18488281 -3.48460937 15.05726562 -4.66796875 14.92578125 C-8.42672369 15.00950498 -10.09540101 15.65377124 -13 18 C-13.83333333 21 -13.83333333 21 -13 24 C-9.54158223 26.82961454 -5.11743642 28.304585 -1 30 C-1 30.99 -1 31.98 -1 33 C-4.465 33.495 -4.465 33.495 -8 34 C-8.66 33.01 -9.32 32.02 -10 31 C-12.56282742 30.27034634 -12.56282742 30.27034634 -15 30 C-14.505 30.78375 -14.01 31.5675 -13.5 32.375 C-12 35 -12 35 -12 37 C-11.34 37 -10.68 37 -10 37 C-10 37.66 -10 38.32 -10 39 C-7.36 39 -4.72 39 -2 39 C-2.99 39.99 -3.98 40.98 -5 42 C-4.01 42.66 -3.02 43.32 -2 44 C-2.66 44 -3.32 44 -4 44 C-4.33 45.32 -4.66 46.64 -5 48 C-5.66 48 -6.32 48 -7 48 C-7 48.99 -7 49.98 -7 51 C-6.34 51 -5.68 51 -5 51 C-5.33 52.32 -5.66 53.64 -6 55 C-15.63994729 56.37476911 -23.39900181 55.79671053 -32 51 C-35 47.57142857 -35 47.57142857 -35 45 C-34.01 44.505 -34.01 44.505 -33 44 C-33 43.34 -33 42.68 -33 42 C-33.66 41.67 -34.32 41.34 -35 41 C-33.02 41 -31.04 41 -29 41 C-29 40.01 -29 39.02 -29 38 C-27.02 37.34 -25.04 36.68 -23 36 C-22.505 36.495 -22.505 36.495 -22 37 C-20.33382885 37.04063832 -18.66611905 37.042721 -17 37 C-17.33 35.68 -17.66 34.36 -18 33 C-18.66 33 -19.32 33 -20 33 C-20.6875 30.6875 -20.6875 30.6875 -21 28 C-20 27 -19 26 -18 25 C-17.71399811 21.56797729 -17.90809958 19.27570125 -19 16 C-19.99 16 -20.98 16 -22 16 C-22 15.34 -22 14.68 -22 14 C-26.62 14 -31.24 14 -36 14 C-36.33 16.31 -36.66 18.62 -37 21 C-37.33 21 -37.66 21 -38 21 C-38.33 18.03 -38.66 15.06 -39 12 C-37.68 11.67 -36.36 11.34 -35 11 C-34.28293018 9.01751285 -33.61709587 7.01584651 -33 5 C-32.01 4.34 -31.02 3.68 -30 3 C-29.7525 2.34 -29.505 1.68 -29.25 1 C-27.67968284 -1.51250746 -26.15666212 -2.02494352 -23.3203125 -2.68359375 C-14.99866747 -3.81836353 -7.63291274 -3.59195894 0 0 Z M8 19 C8.33 19.66 8.66 20.32 9 21 C9.33 20.34 9.66 19.68 10 19 C9.34 19 8.68 19 8 19 Z " fill="#44B86F" transform="translate(88,67)"/>
<path d="M0 0 C-1 3 -1 3 -3 4 C-3.28875 4.94875 -3.5775 5.8975 -3.875 6.875 C-5.08637544 10.23993178 -5.99906682 11.19944009 -9 13 C-8.67 13.99 -8.34 14.98 -8 16 C-7.67 15.01 -7.34 14.02 -7 13 C-2.38 13 2.24 13 7 13 C7 13.66 7 14.32 7 15 C7.99 15 8.98 15 10 15 C12.31282587 18.46923881 12.42478586 19.92205575 12 24 C11.0206121 25.02019573 10.02104551 26.02149805 9 27 C8.74930087 29.62570704 8.74930087 29.62570704 9 32 C9.66 32 10.32 32 11 32 C11.66 33.65 12.32 35.3 13 37 C7.25 37.125 7.25 37.125 5 36 C3.32345271 36.27942455 1.65391846 36.60828247 0 37 C0 37.99 0 38.98 0 40 C-1.98 40.495 -1.98 40.495 -4 41 C-3.67 41.99 -3.34 42.98 -3 44 C-4.98 44.495 -4.98 44.495 -7 45 C-13.60332421 37.48587245 -14.56079627 31.60572093 -14.35546875 21.75 C-13.88350938 16.771088 -12.8489558 12.1767099 -10 8 C-8.68825343 7.29180287 -7.35651891 6.61812511 -6 6 C-5.6278958 4.67696283 -5.29369827 3.34262065 -5 2 C-2 0 -2 0 0 0 Z " fill="#54B77A" transform="translate(59,68)"/>
<path d="M0 0 C2 2.0625 2 2.0625 3 5 C2.94474668 7.30363832 2.6784482 9.49633667 2.328125 11.7734375 C1.92203599 14.52904149 1.9287104 17.21970557 2 20 C4.62187494 18.95125002 5.79371361 18.35068687 7.25 15.875 C7.4975 15.25625 7.745 14.6375 8 14 C8.33 14 8.66 14 9 14 C8.71083136 21.95213758 5.83607572 27.41866368 0 32.8671875 C-3.48237864 35.62407059 -6.42999848 37.7143749 -11 38 C-10.67 37.01 -10.34 36.02 -10 35 C-10.66 35 -11.32 35 -12 35 C-12 34.01 -12 33.02 -12 32 C-11.34 32 -10.68 32 -10 32 C-9.67 30.68 -9.34 29.36 -9 28 C-9.99 27.34 -10.98 26.68 -12 26 C-11.67 25.34 -11.34 24.68 -11 24 C-12.32 23.67 -13.64 23.34 -15 23 C-15 22.34 -15 21.68 -15 21 C-15.66 21 -16.32 21 -17 21 C-19.29648649 18.4385343 -20 17.52032428 -20 14 C-17.625 13.8125 -17.625 13.8125 -15 14 C-14.34 14.99 -13.68 15.98 -13 17 C-9.41642759 17.25015873 -9.41642759 17.25015873 -6 17 C-6.33 16.01 -6.66 15.02 -7 14 C-9.25787891 12.82617876 -9.25787891 12.82617876 -11.9375 11.9375 C-16.80717489 10.19282511 -16.80717489 10.19282511 -19 8 C-19.5565371 2.76855124 -19.5565371 2.76855124 -17.6875 0.1875 C-12.3043296 -3.60065695 -5.74898315 -2.27789898 0 0 Z M3 3 C3.99 3.495 3.99 3.495 5 4 C4.01 4.495 4.01 4.495 3 5 C3 4.34 3 3.68 3 3 Z " fill="#49B773" transform="translate(93,83)"/>
<path d="M0 0 C5.7877828 4.64901012 11.24827658 11.46238289 12.59765625 18.921875 C13.48931441 29.10299004 13.73087448 38.11265973 8.8125 47.375 C8.51085937 48.055625 8.20921875 48.73625 7.8984375 49.4375 C6.64650015 51.6711724 5.26918637 52.9833733 3.3125 54.625 C2.39984375 55.40617187 2.39984375 55.40617187 1.46875 56.203125 C-0.1875 57.375 -0.1875 57.375 -2.1875 57.375 C-2.1875 58.035 -2.1875 58.695 -2.1875 59.375 C-3.76949631 60.02410154 -5.35315724 60.66914694 -6.9375 61.3125 C-8.26007813 61.85197266 -8.26007813 61.85197266 -9.609375 62.40234375 C-17.3375257 65.31796424 -26.43400334 65.96038121 -34.125 62.625 C-35.49684318 61.90784336 -36.85344562 61.16021734 -38.1875 60.375 C-39.21875 59.776875 -40.25 59.17875 -41.3125 58.5625 C-49.97074128 51.97470772 -55.44954832 44.36447223 -57.1875 33.375 C-58.22454844 23.71854895 -55.81200542 13.36150245 -50.1875 5.375 C-49.5275 5.375 -48.8675 5.375 -48.1875 5.375 C-47.8575 4.385 -47.5275 3.395 -47.1875 2.375 C-33.19067187 -9.38601095 -15.14237909 -10.15260465 0 0 Z M-49 8.5 C-53.97414433 15.22304439 -56.10990376 24.07336612 -55.1875 32.375 C-52.97917408 43.34301872 -47.33129042 51.91128608 -38.1875 58.375 C-31.36887536 62.70991748 -21.97280191 62.56210007 -14.1875 61.375 C-4.98681138 58.44325515 2.52402924 52.98694021 7.125 44.4375 C11.08534528 35.59896118 12.27135747 27.11547003 9.1875 17.8125 C5.18403939 7.88003891 -0.58911148 2.20093072 -10.1875 -2.625 C-25.11631362 -8.02529432 -38.90151996 -3.16184306 -49 8.5 Z " fill="#545357" transform="translate(96.1875,64.625)"/>
<path d="M0 0 C11.625 -0.125 11.625 -0.125 15 1 C17.31282587 4.46923881 17.42478586 5.92205575 17 10 C16.0206121 11.02019573 15.02104551 12.02149805 14 13 C13.74930087 15.62570704 13.74930087 15.62570704 14 18 C14.66 18 15.32 18 16 18 C16.66 19.65 17.32 21.3 18 23 C16.02 23 14.04 23 12 23 C10.5393715 20.35261084 10 19.10551666 10 16 C8.35 15.67 6.7 15.34 5 15 C5 17.31 5 19.62 5 22 C3.35 22 1.7 22 0 22 C0 14.74 0 7.48 0 0 Z " fill="#D9F4E2" transform="translate(54,82)"/>
<path d="M0 0 C0.70125 0.5775 1.4025 1.155 2.125 1.75 C2.125 3.07 2.125 4.39 2.125 5.75 C-1.505 5.42 -5.135 5.09 -8.875 4.75 C-8.545 5.74 -8.215 6.73 -7.875 7.75 C-6.10644489 8.66097994 -6.10644489 8.66097994 -4 9.25 C-0.86194607 10.22268092 1.02697351 11.17426902 3.125 13.75 C3.69237985 16.91111629 3.39368403 18.29812231 1.75 21.0625 C-2.29939577 23.66568299 -6.20224621 23.64076728 -10.875 22.75 C-14 20.4375 -14 20.4375 -15.875 17.75 C-15.875 16.76 -15.875 15.77 -15.875 14.75 C-13.5 14.5625 -13.5 14.5625 -10.875 14.75 C-10.215 15.74 -9.555 16.73 -8.875 17.75 C-5.29142759 18.00015873 -5.29142759 18.00015873 -1.875 17.75 C-2.205 16.76 -2.535 15.77 -2.875 14.75 C-5.13287891 13.57617876 -5.13287891 13.57617876 -7.8125 12.6875 C-12.68217489 10.94282511 -12.68217489 10.94282511 -14.875 8.75 C-15.4315371 3.51855124 -15.4315371 3.51855124 -13.5625 0.9375 C-9.26771512 -2.08475603 -4.68262335 -2.0359232 0 0 Z " fill="#E4F9ED" transform="translate(88.875,82.25)"/>
<path d="M0 0 C-0.99 1.485 -0.99 1.485 -2 3 C-2.58333333 6 -2.58333333 6 -2 9 C1.45841777 11.82961454 5.88256358 13.304585 10 15 C10 15.99 10 16.98 10 18 C7.69 18.33 5.38 18.66 3 19 C2.34 18.01 1.68 17.02 1 16 C-1.56282742 15.27034634 -1.56282742 15.27034634 -4 15 C-3.505 15.78375 -3.01 16.5675 -2.5 17.375 C-1 20 -1 20 -1 22 C-0.34 22.33 0.32 22.66 1 23 C0.01 23 -0.98 23 -2 23 C-2 22.34 -2 21.68 -2 21 C-3.32 21.33 -4.64 21.66 -6 22 C-6.33 20.68 -6.66 19.36 -7 18 C-7.66 18 -8.32 18 -9 18 C-9.6875 15.6875 -9.6875 15.6875 -10 13 C-9 12 -8 11 -7 10 C-6.71399811 6.56797729 -6.90809958 4.27570125 -8 1 C-8.99 0.67 -9.98 0.34 -11 0 C-7.18243176 -1.37432457 -3.92744671 -0.67975039 0 0 Z " fill="#4CB472" transform="translate(77,82)"/>
<path d="M0 0 C0.33 0 0.66 0 1 0 C1.47675294 7.20426661 1.46140352 13.06439358 -3 19 C-5.16406316 21.25081848 -7.37803339 23.2950759 -10 25 C-10.66 25 -11.32 25 -12 25 C-12 25.66 -12 26.32 -12 27 C-13.58199631 27.64910154 -15.16565724 28.29414694 -16.75 28.9375 C-17.63171875 29.29714844 -18.5134375 29.65679687 -19.421875 30.02734375 C-27.07352941 32.91410428 -36.08961922 33.42889217 -43.8125 30.5 C-44.864375 30.005 -45.91625 29.51 -47 29 C-46.34 28.34 -45.68 27.68 -45 27 C-43.32207457 27.27102607 -41.65675729 27.62046849 -40 28 C-27.96868475 29.0410448 -19.26575926 27.95123045 -9.625 20.0546875 C-3.85344799 14.30435443 -1.83411616 7.80706022 0 0 Z " fill="#616165" transform="translate(106,97)"/>
<path d="M0 0 C11.625 -0.125 11.625 -0.125 15 1 C15 2.98 15 4.96 15 7 C14.01 6.67 13.02 6.34 12 6 C12 5.34 12 4.68 12 4 C9.36 4 6.72 4 4 4 C4.33 6.31 4.66 8.62 5 11 C5.99 11.33 6.98 11.66 8 12 C8 12.66 8 13.32 8 14 C6.68 14 5.36 14 4 14 C4 16.64 4 19.28 4 22 C2.68 22 1.36 22 0 22 C0 14.74 0 7.48 0 0 Z " fill="#E7FCF0" transform="translate(54,82)"/>
<path d="M0 0 C0.99 0 1.98 0 3 0 C5.09184655 2.31597296 5.97129998 4.08957158 6.0703125 7.23046875 C5.57130413 13.34831137 5.57130413 13.34831137 3.4453125 15.7734375 C2.72988281 16.38058594 2.72988281 16.38058594 2 17 C1.67 15.02 1.34 13.04 1 11 C0.30132812 10.82984375 -0.39734375 10.6596875 -1.1171875 10.484375 C-2.02726562 10.24203125 -2.93734375 9.9996875 -3.875 9.75 C-4.77992187 9.51796875 -5.68484375 9.2859375 -6.6171875 9.046875 C-9 8 -9 8 -10.3203125 5.890625 C-10.54460937 5.26671875 -10.76890625 4.6428125 -11 4 C-10 3 -10 3 -7.25 2.8125 C-4.03256076 2.99812149 -1.89243317 3.63885498 1 5 C0.67 3.35 0.34 1.7 0 0 Z M6 3 C6.99 3.495 6.99 3.495 8 4 C7.01 4.495 7.01 4.495 6 5 C6 4.34 6 3.68 6 3 Z " fill="#58BB7E" transform="translate(90,83)"/>
<path d="M0 0 C4.82518378 1.60839459 6.57334034 5.70361896 9 10 C11.80995442 16.07782733 12.31659234 21.3515609 12 28 C11.67 28 11.34 28 11 28 C10.67 25.69 10.34 23.38 10 21 C9.67 23.31 9.34 25.62 9 28 C8.67 28 8.34 28 8 28 C7.84144531 27.01 7.68289062 26.02 7.51953125 25 C6.33904874 18.15961049 5.17927266 12.30608347 1.0078125 6.5859375 C-0.40034766 4.36999555 -0.39864605 2.55133473 0 0 Z " fill="#E6F0EC" transform="translate(95,69)"/>
<path d="M0 0 C0.66 0.33 1.32 0.66 2 1 C2.64384933 11.56985985 1.2784126 18.37155594 -5.625 26.5 C-8.64363636 29.82181818 -8.64363636 29.82181818 -11 31 C-10.64898727 27.84088547 -9.99090921 26.9918416 -7.5625 24.8125 C-4.48829152 21.43836874 -3.97836872 19.14133966 -3.1875 14.6875 C-2.95417969 13.43324219 -2.72085938 12.17898437 -2.48046875 10.88671875 C-2.24263672 9.45779297 -2.24263672 9.45779297 -2 8 C-1.34 8 -0.68 8 0 8 C0 5.36 0 2.72 0 0 Z " fill="#F6F5F6" transform="translate(104,89)"/>
<path d="M0 0 C0.33 0 0.66 0 1 0 C1 6 1 12 1 18 C-0.32 18 -1.64 18 -3 18 C-5.05257931 14.55166676 -6.0632763 12.68338409 -5.6875 8.625 C-5.460625 7.75875 -5.23375 6.8925 -5 6 C-4.67 6.66 -4.34 7.32 -4 8 C-2.68 7.67 -1.36 7.34 0 7 C0 4.69 0 2.38 0 0 Z " fill="#40B76C" transform="translate(52,89)"/>
<path d="M0 0 C0.66 0 1.32 0 2 0 C2.125 5.75 2.125 5.75 1 8 C0.7677354 10.71262116 0.58063765 13.40773126 0.4375 16.125 C0.39431641 16.87910156 0.35113281 17.63320312 0.30664062 18.41015625 C0.2005168 20.27321888 0.09974999 22.13658524 0 24 C-2.44388852 21.55611148 -2.56703249 20.39237184 -3 17 C-2.96515775 14.81029843 -2.85701144 12.62090853 -2.6875 10.4375 C-2.60886719 9.32246094 -2.53023437 8.20742187 -2.44921875 7.05859375 C-2.03494025 4.23789754 -1.45045806 2.42137692 0 0 Z " fill="#ECF3F2" transform="translate(44,80)"/>
<path d="M0 0 C1.5625 1.125 1.5625 1.125 2.5625 3.125 C-3.7075 3.125 -9.9775 3.125 -16.4375 3.125 C-16.1075 2.135 -15.7775 1.145 -15.4375 0.125 C-10.3896907 -1.13695233 -4.97454251 -1.78573321 0 0 Z " fill="#F6FAFA" transform="translate(79.4375,60.875)"/>
<path d="M0 0 C0.33 0.99 0.66 1.98 1 3 C-0.328125 4.76171875 -0.328125 4.76171875 -2.25 6.6875 C-7.31025111 12.18119891 -9.07919107 17.63352858 -10 25 C-10.33 25 -10.66 25 -11 25 C-12.65312942 18.52524312 -11.03465772 14.80123613 -8 9 C-7.33241585 7.6671258 -6.66546194 6.33393502 -6 5 C-5.34 5 -4.68 5 -4 5 C-3.67 4.01 -3.34 3.02 -3 2 C-2.01 1.34 -1.02 0.68 0 0 Z " fill="#5D5C60" transform="translate(52,65)"/>
<path d="M0 0 C3.75239024 0.46904878 7.15620046 1.04353128 10.8125 2.0625 C15.52774038 3.31310403 20.1555011 3.17869053 25 3 C21.96739103 5.02173932 20.91309963 5.29338438 17.4375 5.5625 C14.09342768 5.81460438 14.09342768 5.81460438 11 7 C8.90625 6.328125 8.90625 6.328125 6.5 5.25 C5.7059375 4.90453125 4.911875 4.5590625 4.09375 4.203125 C2 3 2 3 0 0 Z " fill="#DFF1E7" transform="translate(55,119)"/>
<path d="M0 0 C0.99 0.495 0.99 0.495 2 1 C2.309375 1.99 2.61875 2.98 2.9375 4 C3.288125 4.99 3.63875 5.98 4 7 C4.99 7.33 5.98 7.66 7 8 C7 8.66 7 9.32 7 10 C5.68 10 4.36 10 3 10 C3 11.98 3 13.96 3 16 C2.01 16.33 1.02 16.66 0 17 C0 11.39 0 5.78 0 0 Z " fill="#FBFEFC" transform="translate(55,86)"/>
<path d="M0 0 C0 0.33 0 0.66 0 1 C-0.99 0.835 -1.98 0.67 -3 0.5 C-7.05668759 -0.07008441 -10.90383459 -0.2082796 -15 0 C-15.66 0.66 -16.32 1.32 -17 2 C-19.3828125 2.1953125 -19.3828125 2.1953125 -22.125 2.125 C-23.49011719 2.09792969 -23.49011719 2.09792969 -24.8828125 2.0703125 C-25.58148438 2.04710938 -26.28015625 2.02390625 -27 2 C-26 0 -26 0 -23.25 -1.125 C-15.57619053 -3.12686334 -7.37412187 -2.79440408 0 0 Z " fill="#5CB47E" transform="translate(86,66)"/>
<path d="M0 0 C0.66 0 1.32 0 2 0 C3.3006046 3.9534251 3.14720431 7.95100248 3.125 12.0625 C3.12886719 12.78244141 3.13273437 13.50238281 3.13671875 14.24414062 C3.13080799 17.42708639 3.01350713 19.95947862 2 23 C1.34 23 0.68 23 0 23 C0 15.41 0 7.82 0 0 Z " fill="#4C4D51" transform="translate(106,82)"/>
<path d="M0 0 C1.65 0 3.3 0 5 0 C5.66 1.65 6.32 3.3 7 5 C8.65 5 10.3 5 12 5 C12 5.66 12 6.32 12 7 C10.56138706 6.91253716 9.12402492 6.80434652 7.6875 6.6875 C6.88699219 6.62949219 6.08648437 6.57148437 5.26171875 6.51171875 C2.58890969 5.90698993 1.61133409 5.19537752 0 3 C0 2.01 0 1.02 0 0 Z " fill="#DDF7E8" transform="translate(73,97)"/>
<path d="M0 0 C2.31 0 4.62 0 7 0 C7.042721 1.66611905 7.04063832 3.33382885 7 5 C6 6 6 6 2.9375 6.0625 C1.4834375 6.0315625 1.4834375 6.0315625 0 6 C0 4.02 0 2.04 0 0 Z " fill="#74BC91" transform="translate(59,86)"/>
<path d="M0 0 C0.33 0 0.66 0 1 0 C1 1.98 1 3.96 1 6 C1.99 5.67 2.98 5.34 4 5 C7 8.75 7 8.75 7 11 C7.66 11.33 8.32 11.66 9 12 C8.01 12 7.02 12 6 12 C6 11.34 6 10.68 6 10 C4.68 10.33 3.36 10.66 2 11 C1.67 9.68 1.34 8.36 1 7 C0.34 7 -0.32 7 -1 7 C-1.625 4.625 -1.625 4.625 -2 2 C-1.34 1.34 -0.68 0.68 0 0 Z " fill="#69BB8A" transform="translate(69,93)"/>
<path d="M0 0 C3.29123697 0.23508836 4.0798772 1.09067142 6.3125 3.625 C8.32997558 7.65995117 8.03534166 9.68607641 7 14 C5.44895107 11.67342661 4.17663299 9.48768904 2.9375 7 C2.59589844 6.319375 2.25429687 5.63875 1.90234375 4.9375 C1 3 1 3 0 0 Z " fill="#545458" transform="translate(99,71)"/>
<path d="M0 0 C0.33 0 0.66 0 1 0 C1.68867618 10.75100043 1.68867618 10.75100043 -0.875 14.625 C-3 17 -3 17 -5 18 C-4.27595226 13.95295419 -3.16553713 10.10929598 -1.9375 6.1875 C-1.57527344 5.02605469 -1.21304688 3.86460938 -0.83984375 2.66796875 C-0.56269531 1.78753906 -0.28554687 0.90710938 0 0 Z " fill="#59575D" transform="translate(106,97)"/>
<path d="M0 0 C2.76713403 0.18135551 5.3919776 0.4643386 8.125 0.875 C8.87910156 0.97941406 9.63320312 1.08382812 10.41015625 1.19140625 C12.27484156 1.45104598 14.13762887 1.72425029 16 2 C16 2.33 16 2.66 16 3 C15.0925 3.144375 14.185 3.28875 13.25 3.4375 C10.18884163 3.88909955 10.18884163 3.88909955 8.0625 4.625 C5.48393157 5.09383062 4.14978052 4.56240855 1.75 3.5625 C1.04359375 3.27503906 0.3371875 2.98757812 -0.390625 2.69140625 C-0.92171875 2.46324219 -1.4528125 2.23507813 -2 2 C-1.34 1.34 -0.68 0.68 0 0 Z " fill="#727479" transform="translate(61,124)"/>
<path d="M0 0 C0.33 0 0.66 0 1 0 C1.33 6.27 1.66 12.54 2 19 C1.34 19 0.68 19 0 19 C-1.62043498 12.92336881 -1.76070375 6.05067242 0 0 Z " fill="#4E4D52" transform="translate(40,84)"/>
<path d="M0 0 C1.2065625 0.0309375 1.2065625 0.0309375 2.4375 0.0625 C2.7675 1.3825 3.0975 2.7025 3.4375 4.0625 C4.7575 4.0625 6.0775 4.0625 7.4375 4.0625 C7.1075 4.7225 6.7775 5.3825 6.4375 6.0625 C0.9763601 5.71016839 0.9763601 5.71016839 -1.5625 5.0625 C-3.0625 3 -3.0625 3 -3.5625 1.0625 C-2.5625 0.0625 -2.5625 0.0625 0 0 Z " fill="#52B377" transform="translate(82.5625,85.9375)"/>
<path d="M0 0 C0.66 0.33 1.32 0.66 2 1 C2.05389087 2.95803507 2.09274217 4.91648909 2.125 6.875 C2.14820312 7.96554688 2.17140625 9.05609375 2.1953125 10.1796875 C2 13 2 13 0 15 C-0.33 14.67 -0.66 14.34 -1 14 C-0.90968426 11.64305046 -0.75311872 9.28846418 -0.5625 6.9375 C-0.46066406 5.64714844 -0.35882813 4.35679688 -0.25390625 3.02734375 C-0.17011719 2.02832031 -0.08632812 1.02929688 0 0 Z " fill="#FAFCFD" transform="translate(104,89)"/>
<path d="M0 0 C0.99 0.33 1.98 0.66 3 1 C3 1.99 3 2.98 3 4 C3.99 4.33 4.98 4.66 6 5 C1.25 9 1.25 9 -1 9 C-1.125 2.25 -1.125 2.25 0 0 Z " fill="#44B56E" transform="translate(71,90)"/>
<path d="M0 0 C0 0.66 0 1.32 0 2 C-2.9280927 2.8356429 -5.58176143 3.16205486 -8.625 3.1875 C-9.78902344 3.20876953 -9.78902344 3.20876953 -10.9765625 3.23046875 C-13 3 -13 3 -15 1 C-9.92928099 0.28832014 -5.11791642 -0.10662326 0 0 Z " fill="#4F4F54" transform="translate(84,126)"/>
<path d="M0 0 C1.65 0.33 3.3 0.66 5 1 C3.02677065 5.56958375 1.07763771 8.13463296 -3 11 C-2.67 9.68 -2.34 8.36 -2 7 C-1.34 7 -0.68 7 0 7 C0 4.69 0 2.38 0 0 Z " fill="#52AF77" transform="translate(94,106)"/>
<path d="M0 0 C-0.33 0.66 -0.66 1.32 -1 2 C-4.96 2 -8.92 2 -13 2 C-13.33 1.34 -13.66 0.68 -14 0 C-12.41773035 -0.19627391 -10.83410729 -0.38165538 -9.25 -0.5625 C-8.36828125 -0.66691406 -7.4865625 -0.77132812 -6.578125 -0.87890625 C-4.11567549 -0.99456676 -2.33461936 -0.73638695 0 0 Z " fill="#FAFDFD" transform="translate(81,124)"/>
<path d="M0 0 C1.58971965 2.38457948 2.86741593 4.6304124 4.125 7.1875 C4.47820313 7.90292969 4.83140625 8.61835937 5.1953125 9.35546875 C5.46085937 9.89816406 5.72640625 10.44085938 6 11 C5.34 11.66 4.68 12.32 4 13 C3.13083113 11.59248779 2.28014851 10.1735479 1.4375 8.75 C0.72400391 7.56664063 0.72400391 7.56664063 -0.00390625 6.359375 C-1.13022151 3.69155375 -1.0169313 2.65498232 0 0 Z " fill="#5D5A5F" transform="translate(42,102)"/>
<path d="M0 0 C0.6796875 1.8125 0.6796875 1.8125 1 4 C-0.1796875 5.5625 -0.1796875 5.5625 -1.875 7 C-4.45773102 9.21033725 -5.43167525 10.61919636 -6 14 C-6.66 14 -7.32 14 -8 14 C-8.33 12.68 -8.66 11.36 -9 10 C-8.071875 9.278125 -7.14375 8.55625 -6.1875 7.8125 C-3.41165004 5.51569743 -1.6617322 3.23114595 0 0 Z " fill="#D4F2E1" transform="translate(99,107)"/>
<path d="M0 0 C4.95 1.98 4.95 1.98 10 4 C10 4.33 10 4.66 10 5 C8.35 5 6.7 5 5 5 C4.67 5.66 4.34 6.32 4 7 C0.125 5.125 0.125 5.125 -1 4 C-0.67 2.68 -0.34 1.36 0 0 Z " fill="#63BB85" transform="translate(74,91)"/>
<path d="M0 0 C0.66 0 1.32 0 2 0 C2 0.66 2 1.32 2 2 C2.721875 2.20625 3.44375 2.4125 4.1875 2.625 C7.9255306 4.45248163 9.49246917 6.70438806 12 10 C11.01 10.495 11.01 10.495 10 11 C9.67 10.34 9.34 9.68 9 9 C8.01 8.67 7.02 8.34 6 8 C6 7.01 6 6.02 6 5 C5.195625 4.731875 4.39125 4.46375 3.5625 4.1875 C2.716875 3.795625 1.87125 3.40375 1 3 C0.67 2.01 0.34 1.02 0 0 Z " fill="#5EB17E" transform="translate(86,67)"/>
<path d="M0 0 C0.33 0 0.66 0 1 0 C2.7578125 5.95703125 2.7578125 5.95703125 3 8 C1 11 1 11 -2 12 C-1.44687265 7.97007218 -0.8441938 3.97977076 0 0 Z " fill="#E3F8ED" transform="translate(102,97)"/>
<path d="M0 0 C1.65 0 3.3 0 5 0 C5.33 1.65 5.66 3.3 6 5 C6.99 5 7.98 5 9 5 C9 5.66 9 6.32 9 7 C5.21616321 6.07506212 3.43306306 5.60628829 1.125 2.375 C0.75375 1.59125 0.3825 0.8075 0 0 Z " fill="#64BB88" transform="translate(53,113)"/>
<path d="M0 0 C0.33 0 0.66 0 1 0 C0.25 7.75 0.25 7.75 -2 10 C-3.39195915 5.82412255 -1.82323219 3.86525224 0 0 Z " fill="#5AB37E" transform="translate(101,97)"/>
<path d="M0 0 C1.65 0 3.3 0 5 0 C5 1.32 5 2.64 5 4 C3.35 4 1.7 4 0 4 C0 2.68 0 1.36 0 0 Z " fill="#44B26D" transform="translate(60,87)"/>
<path d="M0 0 C1.98 0.66 3.96 1.32 6 2 C6 3.32 6 4.64 6 6 C5.01 5.67 4.02 5.34 3 5 C3 4.34 3 3.68 3 3 C2.01 2.67 1.02 2.34 0 2 C0 1.34 0 0.68 0 0 Z " fill="#FAFEFE" transform="translate(63,83)"/>
<path d="M0 0 C-1.485 1.485 -1.485 1.485 -3 3 C-3.66 2.34 -4.32 1.68 -5 1 C-5.66 1 -6.32 1 -7 1 C-7.33 1.66 -7.66 2.32 -8 3 C-8 2.34 -8 1.68 -8 1 C-8.99 0.67 -9.98 0.34 -11 0 C-7.18243176 -1.37432457 -3.92744671 -0.67975039 0 0 Z " fill="#5CBC82" transform="translate(77,82)"/>
<path d="M0 0 C0.33 0.99 0.66 1.98 1 3 C-3.75 7 -3.75 7 -6 7 C-6 6.34 -6 5.68 -6 5 C-5.34 5 -4.68 5 -4 5 C-3.67 4.01 -3.34 3.02 -3 2 C-2.01 1.34 -1.02 0.68 0 0 Z " fill="#626268" transform="translate(52,65)"/>
<path d="M0 0 C1.98 0 3.96 0 6 0 C5.67 0.99 5.34 1.98 5 3 C3.35 3.33 1.7 3.66 0 4 C0 2.68 0 1.36 0 0 Z " fill="#F1F4F3" transform="translate(80,122)"/>
<path d="M0 0 C0.66 0.66 1.32 1.32 2 2 C1.625 5.625 1.625 5.625 1 9 C-0.74627478 6.38058783 -1.38722388 4.96175123 -2 2 C-1.34 2 -0.68 2 0 2 C0 1.34 0 0.68 0 0 Z " fill="#686B6E" transform="translate(105,76)"/>
<path d="M0 0 C0.33 0.99 0.66 1.98 1 3 C-0.65 4.65 -2.3 6.3 -4 8 C-3.50168276 4.31245243 -2.89932357 2.39509338 0 0 Z " fill="#505050" transform="translate(47,71)"/>
<path d="M0 0 C2.625 0.375 2.625 0.375 5 1 C5 1.99 5 2.98 5 4 C2.69 3.34 0.38 2.68 -2 2 C-1.34 1.34 -0.68 0.68 0 0 Z " fill="#66666B" transform="translate(61,124)"/>
<path d="M0 0 C0.66 0.33 1.32 0.66 2 1 C2 1.99 2 2.98 2 4 C-0.31 4.33 -2.62 4.66 -5 5 C-5.33 4.34 -5.66 3.68 -6 3 C-3.525 3.495 -3.525 3.495 -1 4 C-0.67 2.68 -0.34 1.36 0 0 Z " fill="#6FB68E" transform="translate(85,96)"/>
</svg>
