<svg version="1.1" id="Layer_1" xmlns="http://www.w3.org/2000/svg" xmlns:xlink="http://www.w3.org/1999/xlink" x="0px" y="0px"
	 width="100%" viewBox="0 0 157 156" enable-background="new 0 0 157 156" xml:space="preserve">
<path fill="#FEFFFF" opacity="1.000000" stroke="none" 
	d="
M141.004730,157.000000 
	C94.003761,157.000000 47.503929,157.000000 1.003069,157.000000 
	C1.002046,105.001549 1.002046,53.003094 1.001023,1.003480 
	C53.331604,1.002320 105.663208,1.002320 157.996109,1.001160 
	C157.997406,52.998089 157.997406,104.996178 157.998703,156.997131 
	C152.501953,157.000000 147.003891,157.000000 141.004730,157.000000 
M89.522865,82.351173 
	C88.683670,82.321938 87.644524,82.595345 87.046883,82.200500 
	C85.800674,81.377144 84.787834,80.200554 83.204453,78.814560 
	C82.459709,77.902153 81.714973,76.989754 80.700195,75.537460 
	C80.325394,75.436195 79.950584,75.334930 78.874451,75.137672 
	C71.455421,72.393608 64.727074,74.874931 62.353600,81.230339 
	C60.135735,87.169067 63.054607,93.635246 68.973907,95.896278 
	C74.283630,97.924484 78.958252,96.372261 84.462799,90.662132 
	C84.598816,90.036232 84.734840,89.410332 84.884651,88.385551 
	C84.884651,88.385551 85.040924,88.018303 85.869286,88.008812 
	C87.251640,88.008545 88.633987,88.008278 90.325317,88.617714 
	C90.896027,89.626495 91.378723,90.698708 92.052353,91.633316 
	C95.364418,96.228561 101.704033,97.879837 106.667885,95.495483 
	C111.563904,93.143715 114.217667,87.287987 112.748138,82.078957 
	C111.201820,76.597771 106.101463,73.360664 100.021484,73.994972 
	C94.976486,74.521294 92.047623,77.665825 89.522865,82.351173 
M36.387722,77.945374 
	C32.086624,85.359528 33.537437,92.086174 40.141689,95.350517 
	C46.579582,98.532623 53.623524,95.675339 56.785034,88.388878 
	C57.440998,86.877037 57.900776,84.797890 57.398582,83.343605 
	C54.017265,73.551704 45.151218,71.066811 36.387722,77.945374 
z"/>
<path fill="#3D8D69" opacity="1.000000" stroke="none" 
	d="
M36.638489,77.671616 
	C45.151218,71.066811 54.017265,73.551704 57.398582,83.343605 
	C57.900776,84.797890 57.440998,86.877037 56.785034,88.388878 
	C53.623524,95.675339 46.579582,98.532623 40.141689,95.350517 
	C33.537437,92.086174 32.086624,85.359528 36.638489,77.671616 
M42.449799,91.454277 
	C46.424137,92.907249 50.143581,92.234024 51.620770,88.210007 
	C52.407467,86.066971 51.770184,82.571228 50.410854,80.653366 
	C48.017204,77.276176 43.211269,77.531929 40.292690,80.403831 
	C37.203468,83.443642 37.711182,87.206360 42.449799,91.454277 
z"/>
<path fill="#49B077" opacity="1.000000" stroke="none" 
	d="
M85.040924,88.018303 
	C85.040924,88.018303 84.884651,88.385551 84.622391,88.773514 
	C84.194221,89.758492 84.028320,90.355499 83.862419,90.952515 
	C78.958252,96.372261 74.283630,97.924484 68.973907,95.896278 
	C63.054607,93.635246 60.135735,87.169067 62.353600,81.230339 
	C64.727074,74.874931 71.455421,72.393608 79.402168,75.406799 
	C80.276665,75.809738 80.623451,75.943542 80.970230,76.077347 
	C81.714973,76.989754 82.459709,77.902153 83.507233,79.385300 
	C84.220322,82.643463 84.630623,85.330879 85.040924,88.018303 
M80.471161,83.924469 
	C78.493111,79.418716 74.883507,77.157951 71.351387,78.675255 
	C67.920525,80.149063 65.653595,82.686554 66.708328,86.864548 
	C67.661469,90.640129 71.211723,92.849190 75.097763,91.907921 
	C78.808418,91.009117 80.450798,88.334076 80.471161,83.924469 
z"/>
<path fill="#3D8E69" opacity="1.000000" stroke="none" 
	d="
M90.083725,82.009628 
	C92.047623,77.665825 94.976486,74.521294 100.021484,73.994972 
	C106.101463,73.360664 111.201820,76.597771 112.748138,82.078957 
	C114.217667,87.287987 111.563904,93.143715 106.667885,95.495483 
	C101.704033,97.879837 95.364418,96.228561 92.052353,91.633316 
	C91.378723,90.698708 90.896027,89.626495 90.241837,87.888046 
	C90.133476,85.442131 90.108597,83.725876 90.083725,82.009628 
M94.361641,85.383125 
	C94.913734,89.056549 96.739738,92.014816 100.634071,91.873154 
	C102.955360,91.788719 106.116722,90.528587 107.246239,88.747780 
	C108.385773,86.951172 108.314880,83.379654 107.223091,81.474884 
	C106.246277,79.770683 103.174728,78.478546 100.994873,78.428734 
	C97.292793,78.344124 94.979828,80.847122 94.361641,85.383125 
z"/>
<path fill="#D6F7E6" opacity="1.000000" stroke="none" 
	d="
M89.803299,82.180405 
	C90.108597,83.725876 90.133476,85.442131 90.087341,87.583191 
	C88.633987,88.008278 87.251640,88.008545 85.455101,88.013557 
	C84.630623,85.330879 84.220322,82.643463 83.744568,79.562576 
	C84.787834,80.200554 85.800674,81.377144 87.046883,82.200500 
	C87.644524,82.595345 88.683670,82.321938 89.803299,82.180405 
z"/>
<path fill="#D6F7E6" opacity="1.000000" stroke="none" 
	d="
M84.162613,90.807327 
	C84.028320,90.355499 84.194221,89.758492 84.615494,88.972954 
	C84.734840,89.410332 84.598816,90.036232 84.162613,90.807327 
z"/>
<path fill="#D6F7E6" opacity="1.000000" stroke="none" 
	d="
M80.835213,75.807404 
	C80.623451,75.943542 80.276665,75.809738 79.752838,75.454803 
	C79.950584,75.334930 80.325394,75.436195 80.835213,75.807404 
z"/>
<path fill="#EAF9F2" opacity="1.000000" stroke="none" 
	d="
M42.093704,91.283325 
	C37.711182,87.206360 37.203468,83.443642 40.292690,80.403831 
	C43.211269,77.531929 48.017204,77.276176 50.410854,80.653366 
	C51.770184,82.571228 52.407467,86.066971 51.620770,88.210007 
	C50.143581,92.234024 46.424137,92.907249 42.093704,91.283325 
z"/>
<path fill="#E7FAF1" opacity="1.000000" stroke="none" 
	d="
M80.553200,84.284782 
	C80.450798,88.334076 78.808418,91.009117 75.097763,91.907921 
	C71.211723,92.849190 67.661469,90.640129 66.708328,86.864548 
	C65.653595,82.686554 67.920525,80.149063 71.351387,78.675255 
	C74.883507,77.157951 78.493111,79.418716 80.553200,84.284782 
z"/>
<path fill="#E9F8F1" opacity="1.000000" stroke="none" 
	d="
M94.366440,85.010101 
	C94.979828,80.847122 97.292793,78.344124 100.994873,78.428734 
	C103.174728,78.478546 106.246277,79.770683 107.223091,81.474884 
	C108.314880,83.379654 108.385773,86.951172 107.246239,88.747780 
	C106.116722,90.528587 102.955360,91.788719 100.634071,91.873154 
	C96.739738,92.014816 94.913734,89.056549 94.366440,85.010101 
z"/>
</svg>