<?xml version="1.0" encoding="UTF-8"?>
<svg version="1.1" xmlns="http://www.w3.org/2000/svg" width="156" height="156">
<path d="M0 0 C51.48 0 102.96 0 156 0 C156 51.48 156 102.96 156 156 C104.52 156 53.04 156 0 156 C0 104.52 0 53.04 0 0 Z " fill="#FEFEFE" transform="translate(0,0)"/>
<path d="M0 0 C15.11214185 -0.53971935 15.11214185 -0.53971935 20.765625 3.0625 C25.05412919 4.86187239 30.0152197 4.4382437 34.609375 4.43359375 C38 5 38 5 40.453125 7.41015625 C42 10 42 10 42 12 C42.72445312 11.69964844 43.44890625 11.39929688 44.1953125 11.08984375 C54.03749148 7.21858668 54.03749148 7.21858668 59 9 C61 11 61 11 61.4375 13.875 C61 17 61 17 58.8125 19.1875 C57.4203125 20.0846875 57.4203125 20.0846875 56 21 C55.278125 21.495 54.55625 21.99 53.8125 22.5 C50.53194119 24.24963137 47.16644611 25.54390413 43.703125 26.88671875 C40.07458428 28.3811322 36.61100085 30.14389523 33.12890625 31.94921875 C28.50129961 34.2333035 24.08856547 34.89568399 19.046875 33.43359375 C17.00993465 32.66773625 15.00640548 31.84238398 13 31 C11.60629788 30.47349031 10.21047948 29.95254507 8.8125 29.4375 C5.85396356 28.33505589 2.93399159 27.17359663 0 26 C0 17.42 0 8.84 0 0 Z " fill="#F7F6F8" transform="translate(51,86)"/>
<path d="M0 0 C2 3 2 3 2 6 C2.66 6 3.32 6 4 6 C4.50146657 13.57771707 3.94998798 18.45783241 0 25 C-0.99 25 -1.98 25 -3 25 C-3.33 25.99 -3.66 26.98 -4 28 C-9.55422789 29.8514093 -16.04867614 30.35386126 -21.4609375 27.87109375 C-25.60334561 24.92213035 -28.45126811 21.93658291 -30 17 C-30.95455397 10.5114496 -29.76040759 5.37896491 -26 0 C-18.04833457 -7.75287379 -8.43004179 -6.2088482 0 0 Z " fill="#EDFCF6" transform="translate(99,52)"/>
<path d="M0 0 C15.11214185 -0.53971935 15.11214185 -0.53971935 20.765625 3.0625 C25.05412919 4.86187239 30.0152197 4.4382437 34.609375 4.43359375 C38 5 38 5 40.453125 7.41015625 C42 10 42 10 42 12 C42.72445312 11.69964844 43.44890625 11.39929688 44.1953125 11.08984375 C54.03749148 7.21858668 54.03749148 7.21858668 59 9 C61 11 61 11 61.4375 13.875 C61 17 61 17 58.8125 19.1875 C57.4203125 20.0846875 57.4203125 20.0846875 56 21 C55.278125 21.495 54.55625 21.99 53.8125 22.5 C50.53194119 24.24963137 47.16644611 25.54390413 43.703125 26.88671875 C40.07458428 28.3811322 36.61100085 30.14389523 33.12890625 31.94921875 C28.50129961 34.2333035 24.08856547 34.89568399 19.046875 33.43359375 C17.00993465 32.66773625 15.00640548 31.84238398 13 31 C11.60629788 30.47349031 10.21047948 29.95254507 8.8125 29.4375 C5.85396356 28.33505589 2.93399159 27.17359663 0 26 C0 17.42 0 8.84 0 0 Z M3 4 C3 10.6 3 17.2 3 24 C4.8975 24.61875 6.795 25.2375 8.75 25.875 C14.55665025 27.76847291 14.55665025 27.76847291 17.109375 29.1015625 C20.94928633 30.92631375 24.8763487 30.66854837 29 30 C32.25123617 28.66196054 35.2669659 27.12278816 38.3359375 25.41015625 C40.625272 24.19835309 42.47515576 23.47266042 45 23 C45 22.34 45 21.68 45 21 C45.66 20.9175 46.32 20.835 47 20.75 C50.99039163 19.75240209 54.38549643 17.92833317 58 16 C57.505 14.02 57.505 14.02 57 12 C52.42060237 12.3330471 49.18322558 12.79183667 45.1875 15.0625 C37.90551611 18.63893535 28.8909973 17.28898871 21 17 C21 16.34 21 15.68 21 15 C29.415 14.505 29.415 14.505 38 14 C37.505 11.525 37.505 11.525 37 9 C36.2265625 8.97421875 35.453125 8.9484375 34.65625 8.921875 C25.11387354 8.40224064 25.11387354 8.40224064 21.125 5.9375 C15.58399039 2.67184114 9.20556923 3.76132426 3 4 Z " fill="#47444D" transform="translate(51,86)"/>
<path d="M0 0 C3.63 0 7.26 0 11 0 C13 2 13 2 13.22705078 4.98095703 C13.21134033 6.85050049 13.21134033 6.85050049 13.1953125 8.7578125 C13.1924826 9.42086395 13.18965271 10.08391541 13.18673706 10.76705933 C13.17553435 12.88655583 13.15043051 15.00563104 13.125 17.125 C13.11497028 18.56119182 13.10584441 19.99739025 13.09765625 21.43359375 C13.075595 24.95586628 13.04106494 28.47789203 13 32 C11 33 11 33 0 33 C0 22.11 0 11.22 0 0 Z " fill="#3A363F" transform="translate(35,83)"/>
<path d="M0 0 C2 3 2 3 2 6 C2.66 6 3.32 6 4 6 C4.50146657 13.57771707 3.94998798 18.45783241 0 25 C-0.99 25 -1.98 25 -3 25 C-3.33 25.99 -3.66 26.98 -4 28 C-9.55422789 29.8514093 -16.04867614 30.35386126 -21.4609375 27.87109375 C-25.60334561 24.92213035 -28.45126811 21.93658291 -30 17 C-30.95455397 10.5114496 -29.76040759 5.37896491 -26 0 C-18.04833457 -7.75287379 -8.43004179 -6.2088482 0 0 Z M-25 4 C-27.30317075 8.60634149 -27.17427712 12.03190449 -26 17 C-24.27025029 20.62423748 -22.55577974 23.0779569 -19 25 C-13.33140279 26.4171493 -9.85315933 26.2430858 -4.76953125 23.28515625 C-1.79883882 21.12763349 -0.4448869 19.39234315 1 16 C1.40028312 10.80465869 0.8976655 7.16453902 -2.3125 3 C-7.12733296 -0.58313151 -10.54332909 -1.51120953 -16.5234375 -1.37890625 C-20.70420891 -0.73926141 -22.2308824 0.81551476 -25 4 Z " fill="#49AC79" transform="translate(99,52)"/>
<path d="M0 0 C0.66 0 1.32 0 2 0 C2 7.59 2 15.18 2 23 C4.31 23.33 6.62 23.66 9 24 C11.1953125 24.97265625 11.1953125 24.97265625 13.125 26.0625 C18.90226699 28.83598866 24.72907156 28.34892338 31 28 C31.495 29.485 31.495 29.485 32 31 C27.36047502 33.24946666 23.0868114 33.9049688 18.0546875 32.4296875 C16.01307125 31.66908537 14.00872371 30.84335728 12 30 C10.60629788 29.47349031 9.21047948 28.95254507 7.8125 28.4375 C4.85650707 27.33600369 1.9279222 26.17399488 -1 25 C-1.02886984 21.02084841 -1.04675406 17.04172347 -1.0625 13.0625 C-1.07087891 11.92619141 -1.07925781 10.78988281 -1.08789062 9.61914062 C-1.09111328 8.53955078 -1.09433594 7.45996094 -1.09765625 6.34765625 C-1.10289307 5.34742432 -1.10812988 4.34719238 -1.11352539 3.31665039 C-1 1 -1 1 0 0 Z " fill="#48474E" transform="translate(52,87)"/>
<path d="M0 0 C2.31 0 4.62 0 7 0 C7 8.25 7 16.5 7 25 C4.69 25 2.38 25 0 25 C0 16.75 0 8.5 0 0 Z " fill="#FDFCFD" transform="translate(38,87)"/>
<path d="M0 0 C2.70108504 0.090916 5.36930311 0.23740766 8.0625 0.4375 C9.20041992 0.51581055 9.20041992 0.51581055 10.36132812 0.59570312 C12.24121722 0.72575835 14.12065685 0.86228038 16 1 C16 1.99 16 2.98 16 4 C14.35 3.67 12.7 3.34 11 3 C11 3.66 11 4.32 11 5 C12.65 5.33 14.3 5.66 16 6 C16 7.65 16 9.3 16 11 C11.93631321 11.77403558 8.13574827 12.0984702 4 12 C3.67 11.01 3.34 10.02 3 9 C2.67 9.99 2.34 10.98 2 12 C1.01 12 0.02 12 -1 12 C-1.02687279 10.18757948 -1.04633715 8.37504767 -1.0625 6.5625 C-1.07410156 5.55316406 -1.08570312 4.54382812 -1.09765625 3.50390625 C-1 1 -1 1 0 0 Z " fill="#B5EACE" transform="translate(78,58)"/>
<path d="M0 0 C4.7614788 0.43340144 8.3130706 0.77340137 12.4453125 3.28515625 C14.93710267 7.4954224 15.37819303 11.48944216 15.2578125 16.34765625 C14.9278125 17.00765625 14.5978125 17.66765625 14.2578125 18.34765625 C12.9378125 18.34765625 11.6178125 18.34765625 10.2578125 18.34765625 C9.9278125 15.04765625 9.5978125 11.74765625 9.2578125 8.34765625 C5.9578125 8.01765625 2.6578125 7.68765625 -0.7421875 7.34765625 C-0.7421875 6.68765625 -0.7421875 6.02765625 -0.7421875 5.34765625 C-2.3921875 5.01765625 -4.0421875 4.68765625 -5.7421875 4.34765625 C-4.07465011 1.40934036 -3.43742174 0.43579848 0 0 Z " fill="#F7FDFA" transform="translate(84.7421875,51.65234375)"/>
<path d="M0 0 C2.97 0.495 2.97 0.495 6 1 C6 10.57 6 20.14 6 30 C3.03 30 0.06 30 -3 30 C-3 29.34 -3 28.68 -3 28 C-1.02 28 0.96 28 3 28 C3 19.09 3 10.18 3 1 C2.01 0.67 1.02 0.34 0 0 Z " fill="#322E39" transform="translate(42,85)"/>
<path d="M0 0 C0.99 0.33 1.98 0.66 3 1 C2.67 2.32 2.34 3.64 2 5 C1.01 5 0.02 5 -1 5 C-1.33 5.99 -1.66 6.98 -2 8 C-7.22096658 9.74032219 -13.96331866 10.28066303 -19.12109375 8.10546875 C-20.75 7 -20.75 7 -23 5 C-22.34 4.67 -21.68 4.34 -21 4 C-20.67 3.34 -20.34 2.68 -20 2 C-18.989375 2.515625 -17.97875 3.03125 -16.9375 3.5625 C-12.95331139 5.24935405 -10.2299203 5.15361463 -6 4 C-3.98817543 2.68457624 -1.98600337 1.3540932 0 0 Z " fill="#57AC80" transform="translate(97,72)"/>
<path d="M0 0 C0.33 0.66 0.66 1.32 1 2 C-3.5018885 6.5018885 -7.71873563 8.83567712 -13.6328125 11.046875 C-16.16566564 11.98474739 -16.16566564 11.98474739 -18.875 13.8125 C-21 15 -21 15 -23.25 14.8125 C-25 14 -25 14 -26 12 C-24.421924 11.15675328 -22.8372958 10.32576082 -21.25 9.5 C-20.36828125 9.0359375 -19.4865625 8.571875 -18.578125 8.09375 C-16 7 -16 7 -12 7 C-12 6.34 -12 5.68 -12 5 C-8.04 3.35 -4.08 1.7 0 0 Z " fill="#424048" transform="translate(108,102)"/>
<path d="M0 0 C0.66 0 1.32 0 2 0 C2 7.59 2 15.18 2 23 C3.32 23 4.64 23 6 23 C6 23.99 6 24.98 6 26 C4.00045254 26.04254356 1.99958364 26.04080783 0 26 C-1.71567792 24.28432208 -1.13015825 22.02627265 -1.1328125 19.6875 C-1.13410156 18.61242187 -1.13539062 17.53734375 -1.13671875 16.4296875 C-1.13091797 14.73199219 -1.13091797 14.73199219 -1.125 13 C-1.12886719 11.86820313 -1.13273437 10.73640625 -1.13671875 9.5703125 C-1.13542969 8.49523437 -1.13414063 7.42015625 -1.1328125 6.3125 C-1.13168457 5.31863281 -1.13055664 4.32476562 -1.12939453 3.30078125 C-1 1 -1 1 0 0 Z " fill="#302D37" transform="translate(52,87)"/>
<path d="M0 0 C0.87527344 -0.01417969 1.75054687 -0.02835938 2.65234375 -0.04296875 C5.0625 0.1875 5.0625 0.1875 8.0625 2.1875 C7.29164062 2.16429687 6.52078125 2.14109375 5.7265625 2.1171875 C4.22222656 2.09011719 4.22222656 2.09011719 2.6875 2.0625 C1.68976563 2.03929687 0.69203125 2.01609375 -0.3359375 1.9921875 C-3.10012173 1.91533152 -3.10012173 1.91533152 -4.9375 4.1875 C-3.6175 4.8475 -2.2975 5.5075 -0.9375 6.1875 C-1.2675 6.8475 -1.5975 7.5075 -1.9375 8.1875 C-3.5875 8.1875 -5.2375 8.1875 -6.9375 8.1875 C-7.2675 10.1675 -7.5975 12.1475 -7.9375 14.1875 C-9.5875 14.5175 -11.2375 14.8475 -12.9375 15.1875 C-12.60094834 8.68083455 -11.55880425 5.80880425 -6.9375 1.1875 C-4.47380468 -0.04434766 -2.7480499 0.02017658 0 0 Z " fill="#D7F5E3" transform="translate(84.9375,50.8125)"/>
<path d="M0 0 C1.73056641 -0.02513672 1.73056641 -0.02513672 3.49609375 -0.05078125 C6.5625 0.3125 6.5625 0.3125 8.484375 1.69921875 C9.5625 3.3125 9.5625 3.3125 9.375 5.4375 C8.5625 7.3125 8.5625 7.3125 6.5625 8.3125 C6.2325 7.3225 5.9025 6.3325 5.5625 5.3125 C4.71945313 5.26351562 3.87640625 5.21453125 3.0078125 5.1640625 C1.36425781 5.05191406 1.36425781 5.05191406 -0.3125 4.9375 C-1.40304688 4.86789063 -2.49359375 4.79828125 -3.6171875 4.7265625 C-6.4375 4.3125 -6.4375 4.3125 -8.4375 2.3125 C-5.65940605 -0.46559395 -3.86994797 0.01294297 0 0 Z " fill="#4E4D53" transform="translate(82.4375,90.6875)"/>
<path d="M0 0 C7.07487342 -0.64317031 11.09493185 1.17264102 17 5 C17 5.99 17 6.98 17 8 C16.34 8.66 15.68 9.32 15 10 C14.67 9.01 14.34 8.02 14 7 C9.44356134 4.9996123 4.8998928 4.50688546 0 4 C0 3.67 0 3.34 0 3 C1.98 2.67 3.96 2.34 6 2 C3.03 1.505 3.03 1.505 0 1 C0 0.67 0 0.34 0 0 Z " fill="#5CB286" transform="translate(82,47)"/>
<path d="M0 0 C0.33 0 0.66 0 1 0 C1 3.3 1 6.6 1 10 C1.99 10 2.98 10 4 10 C3.1875 11.9375 3.1875 11.9375 2 14 C1.01 14.33 0.02 14.66 -1 15 C-1.33 14.01 -1.66 13.02 -2 12 C-4.97 12 -7.94 12 -11 12 C-11 11.34 -11 10.68 -11 10 C-9.54182203 9.83197949 -8.0834516 9.66562857 -6.625 9.5 C-5.81289062 9.4071875 -5.00078125 9.314375 -4.1640625 9.21875 C-2 9 -2 9 0 9 C0 7.35 0 5.7 0 4 C-1.65 3.67 -3.3 3.34 -5 3 C-5 2.34 -5 1.68 -5 1 C-3.35 1.33 -1.7 1.66 0 2 C0 1.34 0 0.68 0 0 Z " fill="#D1F5E4" transform="translate(94,60)"/>
<path d="M0 0 C5.28 0 10.56 0 16 0 C15.67 0.99 15.34 1.98 15 3 C10.03926578 4.32286246 5.08888488 4.08893197 0 4 C0 2.68 0 1.36 0 0 Z " fill="#494750" transform="translate(72,100)"/>
<path d="M0 0 C1.98 0 3.96 0 6 0 C6 0.99 6 1.98 6 3 C4.35 2.67 2.7 2.34 1 2 C1 2.66 1 3.32 1 4 C2.65 4.33 4.3 4.66 6 5 C6 6.65 6 8.3 6 10 C4.02 10.33 2.04 10.66 0 11 C-0.33 10.01 -0.66 9.02 -1 8 C1.475 8.495 1.475 8.495 4 9 C4 8.01 4 7.02 4 6 C2.35 5.67 0.7 5.34 -1 5 C-0.67 3.35 -0.34 1.7 0 0 Z " fill="#56A17B" transform="translate(88,59)"/>
<path d="M0 0 C0 0.66 0 1.32 0 2 C-4.11418186 3.99475484 -7.44755354 4.34358086 -12 4 C-12.66 3.34 -13.32 2.68 -14 2 C-12.47431647 0.47431647 -10.76937007 0.35883887 -8.6875 -0.125 C-7.90761719 -0.31320313 -7.12773438 -0.50140625 -6.32421875 -0.6953125 C-3.89263361 -1.01407492 -2.3135214 -0.7517621 0 0 Z " fill="#3E3D44" transform="translate(84,116)"/>
<path d="M0 0 C0.66 0 1.32 0 2 0 C2 1.32 2 2.64 2 4 C2.99 4 3.98 4 5 4 C5 2.68 5 1.36 5 0 C5.66 0 6.32 0 7 0 C6.67 2.97 6.34 5.94 6 9 C5.01 8.34 4.02 7.68 3 7 C2.67 7.66 2.34 8.32 2 9 C1.34 9 0.68 9 0 9 C0 6.03 0 3.06 0 0 Z " fill="#46A76F" transform="translate(78,60)"/>
<path d="M0 0 C2.64 0 5.28 0 8 0 C8.33 0.66 8.66 1.32 9 2 C8.43152344 2.08636719 7.86304687 2.17273437 7.27734375 2.26171875 C1.31815895 3.34611131 -2.29402154 5.19516635 -7 9 C-6.29305493 5.77206212 -5.68054677 4.06195905 -3 2 C-2.01 2 -1.02 2 0 2 C0 1.34 0 0.68 0 0 Z " fill="#3BA06A" transform="translate(80,48)"/>
<path d="M0 0 C1.2065625 0.0309375 1.2065625 0.0309375 2.4375 0.0625 C3.68296405 2.55342811 3.2142578 3.47330733 2.4375 6.0625 C1.4475 6.0625 0.4575 6.0625 -0.5625 6.0625 C-0.5625 4.7425 -0.5625 3.4225 -0.5625 2.0625 C-1.2225 2.0625 -1.8825 2.0625 -2.5625 2.0625 C-2.5625 5.0325 -2.5625 8.0025 -2.5625 11.0625 C-1.9025 11.3925 -1.2425 11.7225 -0.5625 12.0625 C-1.5525 12.0625 -2.5425 12.0625 -3.5625 12.0625 C-3.58937279 10.25007948 -3.60883715 8.43754767 -3.625 6.625 C-3.63660156 5.61566406 -3.64820312 4.60632812 -3.66015625 3.56640625 C-3.52706167 0.15386128 -3.42090834 0.08343679 0 0 Z " fill="#7DC99F" transform="translate(80.5625,57.9375)"/>
<path d="M0 0 C0.99 0.33 1.98 0.66 3 1 C2.67 2.32 2.34 3.64 2 5 C1.01 5 0.02 5 -1 5 C-1.33 5.99 -1.66 6.98 -2 8 C-4 7 -4 7 -5 6 C-6.32594105 5.63837971 -7.65938457 5.30271961 -9 5 C-8.43410156 4.72285156 -7.86820312 4.44570312 -7.28515625 4.16015625 C-6.55167969 3.79792969 -5.81820312 3.43570313 -5.0625 3.0625 C-3.96615234 2.52302734 -3.96615234 2.52302734 -2.84765625 1.97265625 C-1.03750973 1.13628173 -1.03750973 1.13628173 0 0 Z " fill="#67BC8F" transform="translate(97,72)"/>
<path d="M0 0 C1.79093191 -0.08086147 3.58289628 -0.13912702 5.375 -0.1875 C6.87160156 -0.23970703 6.87160156 -0.23970703 8.3984375 -0.29296875 C9.25695313 -0.19628906 10.11546875 -0.09960938 11 0 C11.66 0.99 12.32 1.98 13 3 C9.52674819 4.1577506 6.63932552 4.06866652 3 4 C3 3.01 3 2.02 3 1 C2.01 0.67 1.02 0.34 0 0 Z " fill="#5D5A63" transform="translate(35,83)"/>
<path d="M0 0 C10.75103676 -0.56364659 10.75103676 -0.56364659 15 3 C15.33 3.66 15.66 4.32 16 5 C14.824375 4.505 14.824375 4.505 13.625 4 C9.00638131 2.72589829 4.75750644 2.83076064 0 3 C0 2.01 0 1.02 0 0 Z " fill="#DBF8EC" transform="translate(80,45)"/>
<path d="M0 0 C0.33 0.66 0.66 1.32 1 2 C0.67 2.99 0.34 3.98 0 5 C0.66 5 1.32 5 2 5 C2 6.65 2 8.3 2 10 C0.35 10.33 -1.3 10.66 -3 11 C-2.25 3.375 -2.25 3.375 0 0 Z " fill="#B1E5C8" transform="translate(75,55)"/>
<path d="M0 0 C0 0.66 0 1.32 0 2 C-1.2065625 2.6496875 -1.2065625 2.6496875 -2.4375 3.3125 C-5.21370838 4.73998081 -5.21370838 4.73998081 -5.6875 7.4375 C-5.790625 8.283125 -5.89375 9.12875 -6 10 C-7.0625 12.3125 -7.0625 12.3125 -8 14 C-9.1875 12.375 -9.1875 12.375 -10 10 C-8.41274589 5.51834135 -5.35470688 0 0 0 Z " fill="#5EB989" transform="translate(80,48)"/>
<path d="M0 0 C0.33 0.66 0.66 1.32 1 2 C0.34 2.66 -0.32 3.32 -1 4 C-1.495 4.53625 -1.99 5.0725 -2.5 5.625 C-4 7 -4 7 -6 7 C-6 6.34 -6 5.68 -6 5 C-7.98 5.33 -9.96 5.66 -12 6 C-9.4347341 4.28982274 -7.12039035 3.09582189 -4.3125 1.875 C-3.50425781 1.52179688 -2.69601563 1.16859375 -1.86328125 0.8046875 C-1.24839844 0.53914063 -0.63351563 0.27359375 0 0 Z " fill="#55525C" transform="translate(108,102)"/>
<path d="M0 0 C4.76350585 0.71452588 9.34201396 1.79534844 14 3 C14 3.33 14 3.66 14 4 C12.41705218 4.05437607 10.83355744 4.09296271 9.25 4.125 C8.36828125 4.14820312 7.4865625 4.17140625 6.578125 4.1953125 C3.8864142 3.99139502 2.30095026 3.36551721 0 2 C0 1.34 0 0.68 0 0 Z " fill="#312E36" transform="translate(68,89)"/>
<path d="M0 0 C0 0.99 0 1.98 0 3 C-2.97 3 -5.94 3 -9 3 C-9 2.01 -9 1.02 -9 0 C-3.375 -1.125 -3.375 -1.125 0 0 Z " fill="#2E2B36" transform="translate(91,101)"/>
<path d="M0 0 C0.33 0.66 0.66 1.32 1 2 C2.32 2 3.64 2 5 2 C5 2.99 5 3.98 5 5 C3.02 5 1.04 5 -1 5 C-0.67 3.35 -0.34 1.7 0 0 Z " fill="#38363D" transform="translate(53,108)"/>
<path d="M0 0 C1.32 0.33 2.64 0.66 4 1 C3.67 3.64 3.34 6.28 3 9 C2.34 8.67 1.68 8.34 1 8 C0.40644386 5.35139573 0.25790731 2.70802678 0 0 Z " fill="#D4F5E3" transform="translate(73,64)"/>
<path d="M0 0 C0.99 0 1.98 0 3 0 C3.33 2.31 3.66 4.62 4 7 C0.125 5.25 0.125 5.25 -1 3 C-0.67 2.01 -0.34 1.02 0 0 Z " fill="#3B3842" transform="translate(90,96)"/>
<path d="M0 0 C2.08901197 3.39464446 2.34361606 6.04841529 2 10 C1.34 10.66 0.68 11.32 0 12 C-0.92844389 7.66726186 -0.92844389 4.33273814 0 0 Z " fill="#BBEBD0" transform="translate(98,58)"/>
<path d="M0 0 C-2 2 -2 2 -5.625 2.125 C-6.73875 2.08375 -7.8525 2.0425 -9 2 C-9 1.34 -9 0.68 -9 0 C-3.375 -1.125 -3.375 -1.125 0 0 Z " fill="#3CA067" transform="translate(95,78)"/>
<path d="M0 0 C0.66 0.66 1.32 1.32 2 2 C1.67 2.99 1.34 3.98 1 5 C-0.9375 4.625 -0.9375 4.625 -3 4 C-3.33 3.34 -3.66 2.68 -4 2 C-2.68 1.34 -1.36 0.68 0 0 Z " fill="#525158" transform="translate(86,112)"/>
<path d="M0 0 C0 0.99 0 1.98 0 3 C-1.98 3.33 -3.96 3.66 -6 4 C-6 3.01 -6 2.02 -6 1 C-3.92446352 0.4465236 -2.15634036 0 0 0 Z " fill="#393640" transform="translate(102,107)"/>
<path d="M0 0 C2 1.3125 2 1.3125 4 3 C4 3.99 4 4.98 4 6 C2.68 5.67 1.36 5.34 0 5 C0 3.35 0 1.7 0 0 Z " fill="#42A873" transform="translate(72,70)"/>
<path d="M0 0 C2.31 0.33 4.62 0.66 7 1 C7 1.66 7 2.32 7 3 C4.69 3 2.38 3 0 3 C0 2.01 0 1.02 0 0 Z " fill="#DAF5EC" transform="translate(87,56)"/>
</svg>
