<?xml version="1.0" encoding="UTF-8"?>
<svg version="1.1" xmlns="http://www.w3.org/2000/svg" width="156" height="156">
<path d="M0 0 C51.48 0 102.96 0 156 0 C156 51.48 156 102.96 156 156 C104.52 156 53.04 156 0 156 C0 104.52 0 53.04 0 0 Z " fill="#FEFEFE" transform="translate(0,0)"/>
<path d="M0 0 C12.21 0 24.42 0 37 0 C37 0.66 37 1.32 37 2 C20.665 2.495 20.665 2.495 4 3 C15.55 3.33 27.1 3.66 39 4 C39.33 3.34 39.66 2.68 40 2 C39.67 5.96 39.34 9.92 39 14 C41.475 14.495 41.475 14.495 44 15 C46.47189851 16.94220597 46.97912836 17.93738507 48 21 C48.23522511 25.28781772 48.18517915 29.58141936 48.1875 33.875 C48.19974609 35.05964844 48.21199219 36.24429688 48.22460938 37.46484375 C48.22654297 38.60824219 48.22847656 39.75164062 48.23046875 40.9296875 C48.23457764 41.97366699 48.23868652 43.01764648 48.24291992 44.09326172 C47.74345392 50.06978654 45.33409337 52.99929843 41 57 C40.67 57.33 40.34 57.66 40 58 C34.53377191 58.29298597 29.06488165 58.31414325 23.59155273 58.35009766 C21.74767401 58.36662016 19.90385835 58.39386119 18.06030273 58.43212891 C15.40054117 58.48706785 12.74228486 58.50880066 10.08203125 58.5234375 C9.26305862 58.54610687 8.444086 58.56877625 7.60029602 58.59213257 C3.59514167 58.57744409 0.81095214 58.29892264 -2.44262695 55.84228516 C-8.16610584 49.48116428 -7.36601474 42.10470609 -7.375 34 C-7.41173828 32.25589844 -7.41173828 32.25589844 -7.44921875 30.4765625 C-7.4862709 19.68203545 -7.4862709 19.68203545 -3 15 C-0.25 14.125 -0.25 14.125 2 14 C2 11.69 2 9.38 2 7 C1.34 7 0.68 7 0 7 C0 4.69 0 2.38 0 0 Z " fill="#FAF9FA" transform="translate(53,73)"/>
<path d="M0 0 C12.21 0 24.42 0 37 0 C37 0.66 37 1.32 37 2 C20.665 2.495 20.665 2.495 4 3 C15.55 3.33 27.1 3.66 39 4 C39.33 3.34 39.66 2.68 40 2 C39.67 5.96 39.34 9.92 39 14 C41.475 14.495 41.475 14.495 44 15 C46.47189851 16.94220597 46.97912836 17.93738507 48 21 C48.23522511 25.28781772 48.18517915 29.58141936 48.1875 33.875 C48.19974609 35.05964844 48.21199219 36.24429688 48.22460938 37.46484375 C48.22654297 38.60824219 48.22847656 39.75164062 48.23046875 40.9296875 C48.23457764 41.97366699 48.23868652 43.01764648 48.24291992 44.09326172 C47.74345392 50.06978654 45.33409337 52.99929843 41 57 C40.67 57.33 40.34 57.66 40 58 C34.53377191 58.29298597 29.06488165 58.31414325 23.59155273 58.35009766 C21.74767401 58.36662016 19.90385835 58.39386119 18.06030273 58.43212891 C15.40054117 58.48706785 12.74228486 58.50880066 10.08203125 58.5234375 C9.26305862 58.54610687 8.444086 58.56877625 7.60029602 58.59213257 C3.59514167 58.57744409 0.81095214 58.29892264 -2.44262695 55.84228516 C-8.16610584 49.48116428 -7.36601474 42.10470609 -7.375 34 C-7.41173828 32.25589844 -7.41173828 32.25589844 -7.44921875 30.4765625 C-7.4862709 19.68203545 -7.4862709 19.68203545 -3 15 C-0.25 14.125 -0.25 14.125 2 14 C2 11.69 2 9.38 2 7 C1.34 7 0.68 7 0 7 C0 4.69 0 2.38 0 0 Z M6 8 C6 10.64 6 13.28 6 16 C5.2575 16.103125 4.515 16.20625 3.75 16.3125 C0.65855609 17.08536098 -0.74935363 17.74994404 -3 20 C-3.61845677 23.00911736 -3.61845677 23.00911736 -3.53125 26.4609375 C-3.53640625 27.73710938 -3.5415625 29.01328125 -3.546875 30.328125 C-3.53849609 30.99263672 -3.53011719 31.65714844 -3.52148438 32.34179688 C-3.50013832 34.36190956 -3.52124299 36.37843789 -3.546875 38.3984375 C-3.54171875 39.6771875 -3.5365625 40.9559375 -3.53125 42.2734375 C-3.52673828 43.44310059 -3.52222656 44.61276367 -3.51757812 45.81787109 C-2.8999129 49.61534684 -1.66183971 51.27416181 1 54 C4.00687826 55.50343913 7.12152293 55.20416325 10.421875 55.23828125 C11.52828339 55.25038887 11.52828339 55.25038887 12.65704346 55.26274109 C14.22055716 55.27658051 15.78410106 55.28730331 17.34765625 55.29516602 C19.72715445 55.31233516 22.10524693 55.35621387 24.484375 55.40039062 C26.00519814 55.41052183 27.52603307 55.4190366 29.046875 55.42578125 C30.10657501 55.45204338 30.10657501 55.45204338 31.18768311 55.47883606 C36.24989821 55.45685636 39.10664483 54.18456297 43 51 C45.28148739 46.43702522 44.32019917 40.19679441 44.375 35.1875 C44.41238281 33.90294922 44.44976562 32.61839844 44.48828125 31.29492188 C44.49988281 30.05677734 44.51148438 28.81863281 44.5234375 27.54296875 C44.54325684 26.40883545 44.56307617 25.27470215 44.58349609 24.10620117 C43.81311438 20.00512728 42.26826811 18.51506885 39 16 C37.68 16 36.36 16 35 16 C35 13.36 35 10.72 35 8 C25.43 8 15.86 8 6 8 Z " fill="#5C5A60" transform="translate(53,73)"/>
<path d="M0 0 C4.38584158 2.20361796 7.22799795 5.42922835 9 10 C9.1953125 12.796875 9.1953125 12.796875 9.125 15.75 C9.10695312 16.73484375 9.08890625 17.7196875 9.0703125 18.734375 C9.04710937 19.48203125 9.02390625 20.2296875 9 21 C7.33388095 21.042721 5.66617115 21.04063832 4 21 C3.67 20.67 3.34 20.34 3 20 C1.30858344 20.08963062 -0.37959602 20.24577676 -2.0625 20.4375 C-3.44115234 20.59025391 -3.44115234 20.59025391 -4.84765625 20.74609375 C-5.91306641 20.87177734 -5.91306641 20.87177734 -7 21 C-6.43490723 21.02505615 -5.86981445 21.0501123 -5.28759766 21.07592773 C-2.73316258 21.19179956 -0.1791045 21.31456537 2.375 21.4375 C3.26445313 21.47681641 4.15390625 21.51613281 5.0703125 21.55664062 C5.92109375 21.59853516 6.771875 21.64042969 7.6484375 21.68359375 C8.43395996 21.72025146 9.21948242 21.75690918 10.02880859 21.79467773 C12 22 12 22 14 23 C14 25.31 14 27.62 14 30 C13.34 29.01 12.68 28.02 12 27 C9.23371085 26.7332384 6.69380369 26.65195811 3.9296875 26.70703125 C2.73534592 26.71339851 2.73534592 26.71339851 1.51687622 26.71989441 C-1.03075729 26.73671166 -3.57760489 26.77436821 -6.125 26.8125 C-7.85024901 26.82754295 -9.57551039 26.84123204 -11.30078125 26.85351562 C-15.53415782 26.88662499 -19.76694559 26.93842715 -24 27 C-23.67 26.34 -23.34 25.68 -23 25 C-12.11 25 -1.22 25 10 25 C10 24.34 10 23.68 10 23 C-1.55 23 -13.1 23 -25 23 C-25 22.67 -25 22.34 -25 22 C-21.7 21.67 -18.4 21.34 -15 21 C-17.46278801 19.768606 -19.2795055 19.92840804 -22 20 C-22.50408218 13.04086552 -22.18394918 8.69481972 -18 3 C-13.07859411 -1.75324852 -6.37758235 -0.90693719 0 0 Z " fill="#CFF6E2" transform="translate(80,50)"/>
<path d="M0 0 C1.24233398 0.00483398 1.24233398 0.00483398 2.50976562 0.00976562 C3.33412109 -0.00634766 4.15847656 -0.02246094 5.0078125 -0.0390625 C5.80123047 -0.03970703 6.59464844 -0.04035156 7.41210938 -0.04101562 C8.137771 -0.04399658 8.86343262 -0.04697754 9.61108398 -0.05004883 C12.17356929 0.43641826 13.0599129 1.21557228 14.57226562 3.32226562 C14.57226562 4.64226562 14.57226562 5.96226563 14.57226562 7.32226562 C15.89226562 7.98226562 17.21226563 8.64226562 18.57226562 9.32226562 C18.40726563 9.98226562 18.24226563 10.64226562 18.07226562 11.32226562 C17.28951785 16.01875225 17.1836053 20.53442812 18.19726562 25.19726562 C18.32101563 25.89851563 18.44476563 26.59976563 18.57226562 27.32226562 C16.57226562 29.32226562 16.57226562 29.32226562 14.50927734 29.54931641 C13.26815186 29.53360596 13.26815186 29.53360596 12.00195312 29.51757812 C11.10605469 29.51113281 10.21015625 29.5046875 9.28710938 29.49804688 C8.34996094 29.48128906 7.4128125 29.46453125 6.44726562 29.44726562 C5.50238281 29.43824219 4.5575 29.42921875 3.58398438 29.41992188 C1.2464927 29.39631085 -1.09049561 29.36338079 -3.42773438 29.32226562 C-3.55148438 28.22914062 -3.67523438 27.13601562 -3.80273438 26.00976562 C-4.18238238 22.2484476 -4.18238238 22.2484476 -6.42773438 19.32226562 C-6.18554688 16.84179688 -6.18554688 16.84179688 -5.55273438 14.13476562 C-5.3490625 13.23371094 -5.14539062 12.33265625 -4.93554688 11.40429688 C-4.76796875 10.71722656 -4.60039063 10.03015625 -4.42773438 9.32226562 C-5.74773438 8.66226563 -7.06773438 8.00226563 -8.42773438 7.32226562 C-8.55273438 4.94726562 -8.55273438 4.94726562 -8.42773438 2.32226562 C-5.66436097 -0.44110778 -3.77225995 0.03376311 0 0 Z " fill="#47444F" transform="translate(68.427734375,92.677734375)"/>
<path d="M0 0 C12.21 0 24.42 0 37 0 C37 0.66 37 1.32 37 2 C20.665 2.495 20.665 2.495 4 3 C15.55 3.33 27.1 3.66 39 4 C39.33 3.34 39.66 2.68 40 2 C39.67 5.96 39.34 9.92 39 14 C41.475 14.495 41.475 14.495 44 15 C44.66 16.98 45.32 18.96 46 21 C45.113125 20.54625 44.22625 20.0925 43.3125 19.625 C40.57068159 18.27995701 37.84975669 17.08961285 35 16 C35 13.36 35 10.72 35 8 C25.43 8 15.86 8 6 8 C6 10.64 6 13.28 6 16 C4.02 16 2.04 16 0 16 C0 15.34 0 14.68 0 14 C0.66 14 1.32 14 2 14 C2 11.69 2 9.38 2 7 C1.34 7 0.68 7 0 7 C0 4.69 0 2.38 0 0 Z " fill="#342F39" transform="translate(53,73)"/>
<path d="M0 0 C4.95 0 9.9 0 15 0 C15.33 0.99 15.66 1.98 16 3 C13.525 2.505 13.525 2.505 11 2 C11 2.66 11 3.32 11 4 C13.475 4.495 13.475 4.495 16 5 C16 6.65 16 8.3 16 10 C13.36 10.33 10.72 10.66 8 11 C8.56509277 11.02505615 9.13018555 11.0501123 9.71240234 11.07592773 C12.26683742 11.19179956 14.8208955 11.31456537 17.375 11.4375 C18.26445313 11.47681641 19.15390625 11.51613281 20.0703125 11.55664062 C20.92109375 11.59853516 21.771875 11.64042969 22.6484375 11.68359375 C23.43395996 11.72025146 24.21948242 11.75690918 25.02880859 11.79467773 C27 12 27 12 29 13 C29 15.31 29 17.62 29 20 C28.34 19.01 27.68 18.02 27 17 C24.23371085 16.7332384 21.69380369 16.65195811 18.9296875 16.70703125 C17.73534592 16.71339851 17.73534592 16.71339851 16.51687622 16.71989441 C13.96924271 16.73671166 11.42239511 16.77436821 8.875 16.8125 C7.14975099 16.82754295 5.42448961 16.84123204 3.69921875 16.85351562 C-0.53415782 16.88662499 -4.76694559 16.93842715 -9 17 C-8.67 16.34 -8.34 15.68 -8 15 C2.89 15 13.78 15 25 15 C25 14.34 25 13.68 25 13 C13.45 13 1.9 13 -10 13 C-10 12.67 -10 12.34 -10 12 C-6.7 11.67 -3.4 11.34 0 11 C0 7.37 0 3.74 0 0 Z " fill="#B7EDD1" transform="translate(65,60)"/>
<path d="M0 0 C1.19496094 -0.00386719 1.19496094 -0.00386719 2.4140625 -0.0078125 C3.24679688 -0.00007813 4.07953125 0.00765625 4.9375 0.015625 C5.77023438 0.00789063 6.60296875 0.00015625 7.4609375 -0.0078125 C8.25757812 -0.00523438 9.05421875 -0.00265625 9.875 0 C10.60589844 0.00225586 11.33679688 0.00451172 12.08984375 0.00683594 C13.9375 0.265625 13.9375 0.265625 15.9375 2.265625 C16.0625 5.390625 16.0625 5.390625 15.9375 8.265625 C12.87216836 9.79829082 9.66995728 9.36838971 6.3125 9.328125 C5.60609375 9.32361328 4.8996875 9.31910156 4.171875 9.31445312 C2.42704725 9.30266375 0.682263 9.28472824 -1.0625 9.265625 C-1.0625 8.605625 -1.0625 7.945625 -1.0625 7.265625 C-2.7125 7.265625 -4.3625 7.265625 -6.0625 7.265625 C-6.1875 4.890625 -6.1875 4.890625 -6.0625 2.265625 C-3.69681778 -0.10005722 -3.21017774 0.00990796 0 0 Z " fill="#443F48" transform="translate(66.0625,92.734375)"/>
<path d="M0 0 C4.39840189 2.20992875 7.20194026 5.42923131 9 10 C9.1953125 12.578125 9.1953125 12.578125 9.125 15.25 C9.10695313 16.14203125 9.08890625 17.0340625 9.0703125 17.953125 C9.04710938 18.62859375 9.02390625 19.3040625 9 20 C8.01 20 7.02 20 6 20 C5.98582031 19.41992188 5.97164062 18.83984375 5.95703125 18.2421875 C5.58452025 12.1410614 4.38435075 9.27741536 0 5 C-3.19342379 3.40328811 -6.52545631 3.62581837 -10 4 C-13.66883017 5.63059119 -16.12234547 7.4324564 -18 11 C-18.53295254 13.99074336 -18.81221164 16.96948447 -19 20 C-19.99 20 -20.98 20 -22 20 C-22.50408218 13.04086552 -22.18394918 8.69481972 -18 3 C-13.07859411 -1.75324852 -6.37758235 -0.90693719 0 0 Z " fill="#47A071" transform="translate(80,50)"/>
<path d="M0 0 C1.11877421 3.35632264 1.02629887 6.52525059 0.9609375 10.03515625 C0.94016783 12.17019851 0.94016783 12.17019851 1.625 14.875 C1.74875 15.57625 1.8725 16.2775 2 17 C0 19 0 19 -1.87939453 19.22705078 C-2.62302246 19.21657715 -3.36665039 19.20610352 -4.1328125 19.1953125 C-4.93847656 19.18886719 -5.74414062 19.18242188 -6.57421875 19.17578125 C-7.41597656 19.15902344 -8.25773437 19.14226562 -9.125 19.125 C-10.39923828 19.11146484 -10.39923828 19.11146484 -11.69921875 19.09765625 C-13.79959884 19.07405647 -15.89983444 19.03818483 -18 19 C-16 17 -16 17 -12.5234375 16.8046875 C-11.14049032 16.81798507 -9.75761346 16.84183768 -8.375 16.875 C-7.31539062 16.88853516 -7.31539062 16.88853516 -6.234375 16.90234375 C-4.48943902 16.92592397 -2.74467705 16.96179539 -1 17 C-1 15.68 -1 14.36 -1 13 C-6.94 13.33 -12.88 13.66 -19 14 C-19 13.01 -19 12.02 -19 11 C-16.16730334 9.58365167 -13.52533562 9.6536995 -10.375 9.4375 C-8.59222656 9.31181641 -8.59222656 9.31181641 -6.7734375 9.18359375 C-5.85820313 9.12300781 -4.94296875 9.06242187 -4 9 C-3.67 8.01 -3.34 7.02 -3 6 C-6.63 6 -10.26 6 -14 6 C-14 5.01 -14 4.02 -14 3 C-13.07316406 2.95101562 -12.14632812 2.90203125 -11.19140625 2.8515625 C-9.99386719 2.77679688 -8.79632813 2.70203125 -7.5625 2.625 C-6.36753906 2.55539063 -5.17257813 2.48578125 -3.94140625 2.4140625 C-2.97074219 2.27742188 -2.00007813 2.14078125 -1 2 C-0.67 1.34 -0.34 0.68 0 0 Z " fill="#38363C" transform="translate(85,103)"/>
<path d="M0 0 C0.66 0.33 1.32 0.66 2 1 C3.70715494 6.12146481 3.18460222 11.51409822 3.1875 16.875 C3.19974609 18.05964844 3.21199219 19.24429688 3.22460938 20.46484375 C3.22750977 22.17994141 3.22750977 22.17994141 3.23046875 23.9296875 C3.23457764 24.97366699 3.23868652 26.01764648 3.24291992 27.09326172 C2.75249945 32.96154933 0.44301721 36.20718043 -4 40 C-4.99 40 -5.98 40 -7 40 C-6.67 39.34 -6.34 38.68 -6 38 C-6.66 37.67 -7.32 37.34 -8 37 C-7.195625 36.54625 -6.39125 36.0925 -5.5625 35.625 C-2.91143428 34.25274335 -2.91143428 34.25274335 -2 32 C-1.91440882 29.82175039 -1.89286588 27.64084745 -1.90234375 25.4609375 C-1.90556641 24.15898438 -1.90878906 22.85703125 -1.91210938 21.515625 C-1.92046534 20.13541601 -1.92893029 18.75520768 -1.9375 17.375 C-1.94251499 15.98698074 -1.9470779 14.59895978 -1.95117188 13.2109375 C-1.96299024 9.80724868 -1.97946566 6.40364561 -2 3 C-1.34 2.67 -0.68 2.34 0 2 C0 1.34 0 0.68 0 0 Z " fill="#54525A" transform="translate(98,90)"/>
<path d="M0 0 C5.23274388 -0.02467917 10.46545403 -0.04285003 15.69824219 -0.05493164 C17.47917267 -0.05996711 19.260099 -0.06679581 21.04101562 -0.07543945 C23.59766665 -0.08753942 26.15426312 -0.09323609 28.7109375 -0.09765625 C29.50994476 -0.10281754 30.30895203 -0.10797882 31.13217163 -0.11329651 C36.77225659 -0.11387171 36.77225659 -0.11387171 39 1 C39 3.31 39 5.62 39 8 C38.34 7.01 37.68 6.02 37 5 C34.23371085 4.7332384 31.69380369 4.65195811 28.9296875 4.70703125 C27.73534592 4.71339851 27.73534592 4.71339851 26.51687622 4.71989441 C23.96924271 4.73671166 21.42239511 4.77436821 18.875 4.8125 C17.14975099 4.82754295 15.42448961 4.84123204 13.69921875 4.85351562 C9.46584218 4.88662499 5.23305441 4.93842715 1 5 C1.33 4.34 1.66 3.68 2 3 C12.89 3 23.78 3 35 3 C35 2.34 35 1.68 35 1 C23.45 1 11.9 1 0 1 C0 0.67 0 0.34 0 0 Z " fill="#807D83" transform="translate(55,72)"/>
<path d="M0 0 C11.88 0 23.76 0 36 0 C35.67 0.99 35.34 1.98 35 3 C23.45 3 11.9 3 0 3 C0 2.01 0 1.02 0 0 Z " fill="#302F36" transform="translate(56,128)"/>
<path d="M0 0 C3.85036851 1.51264477 5.88348422 3.44727709 8 7 C8.32555094 10.03169311 8.23810803 12.96412257 8 16 C8.99 16.33 9.98 16.66 11 17 C7.95613276 17.08226668 5.92824652 16.97608217 3 16 C3 14.35 3 12.7 3 11 C1.35 10.67 -0.3 10.34 -2 10 C-2 9.34 -2 8.68 -2 8 C0.475 8.495 0.475 8.495 3 9 C1.74458443 6.48916886 0.49936512 6.12874554 -2 5 C-1.01 4.34 -0.02 3.68 1 3 C0.67 2.01 0.34 1.02 0 0 Z " fill="#DBF8EA" transform="translate(78,54)"/>
<path d="M0 0 C1.47583955 0.0001591 2.95168467 0.00585225 4.42749023 0.01586914 C5.20293686 0.01728409 5.97838348 0.01869904 6.77732849 0.02015686 C9.26361893 0.02577194 11.74982059 0.03832693 14.23608398 0.05102539 C15.91772331 0.05603845 17.59936405 0.06060169 19.28100586 0.06469727 C23.41189965 0.07574626 27.54272674 0.09302094 31.67358398 0.11352539 C31.67358398 0.77352539 31.67358398 1.43352539 31.67358398 2.11352539 C15.33858398 2.60852539 15.33858398 2.60852539 -1.32641602 3.11352539 C-0.99641602 3.77352539 -0.66641602 4.43352539 -0.32641602 5.11352539 C-1.64641602 5.44352539 -2.96641602 5.77352539 -4.32641602 6.11352539 C-4.36913702 4.44740634 -4.36705434 2.77969654 -4.32641602 1.11352539 C-3.32641602 0.11352539 -3.32641602 0.11352539 0 0 Z " fill="#332C36" transform="translate(58.326416015625,72.886474609375)"/>
<path d="M0 0 C1.26328125 0.02707031 2.5265625 0.05414063 3.828125 0.08203125 C4.79234375 0.11683594 5.7565625 0.15164062 6.75 0.1875 C7.08 0.8475 7.41 1.5075 7.75 2.1875 C3.13 2.1875 -1.49 2.1875 -6.25 2.1875 C-6.58 3.5075 -6.91 4.8275 -7.25 6.1875 C-7.91 6.909375 -8.57 7.63125 -9.25 8.375 C-11.96021825 12.18624441 -12.05045176 15.60786797 -12.25 20.1875 C-13.24 20.1875 -14.23 20.1875 -15.25 20.1875 C-15.75408218 13.22836552 -15.43394918 8.88231972 -11.25 3.1875 C-7.7397516 -0.30649725 -4.82155261 -0.13393202 0 0 Z " fill="#459C6C" transform="translate(73.25,49.8125)"/>
<path d="M0 0 C0.66 0 1.32 0 2 0 C2 8.58 2 17.16 2 26 C1.01 25.67 0.02 25.34 -1 25 C-1.02886984 21.02084841 -1.04675406 17.04172347 -1.0625 13.0625 C-1.07087891 11.92619141 -1.07925781 10.78988281 -1.08789062 9.61914062 C-1.09111328 8.53955078 -1.09433594 7.45996094 -1.09765625 6.34765625 C-1.10289307 5.34742432 -1.10812988 4.34719238 -1.11352539 3.31665039 C-1 1 -1 1 0 0 Z " fill="#2F2E35" transform="translate(47,95)"/>
<path d="M0 0 C0.66 0.33 1.32 0.66 2 1 C2 8.26 2 15.52 2 23 C1.01 23.33 0.02 23.66 -1 24 C-1.02887236 20.18751574 -1.04675492 16.3750593 -1.0625 12.5625 C-1.07087891 11.47388672 -1.07925781 10.38527344 -1.08789062 9.26367188 C-1.09111328 8.22919922 -1.09433594 7.19472656 -1.09765625 6.12890625 C-1.10289307 5.17056885 -1.10812988 4.21223145 -1.11352539 3.22485352 C-1 1 -1 1 0 0 Z " fill="#312F38" transform="translate(99,95)"/>
<path d="M0 0 C0.99 0.495 0.99 0.495 2 1 C1.67 2.65 1.34 4.3 1 6 C1.598125 5.649375 2.19625 5.29875 2.8125 4.9375 C5 4 5 4 8 5 C8.66 5.66 9.32 6.32 10 7 C8.68 7.33 7.36 7.66 6 8 C6 10.64 6 13.28 6 16 C4.02 16 2.04 16 0 16 C0 15.34 0 14.68 0 14 C0.66 14 1.32 14 2 14 C2 11.69 2 9.38 2 7 C1.34 7 0.68 7 0 7 C0 4.69 0 2.38 0 0 Z " fill="#48444F" transform="translate(53,73)"/>
<path d="M0 0 C5.61 0 11.22 0 17 0 C16.67 1.32 16.34 2.64 16 4 C11.05 4 6.1 4 1 4 C0.67 2.68 0.34 1.36 0 0 Z " fill="#EAE7EC" transform="translate(65,109)"/>
<path d="M0 0 C2.875 -0.125 2.875 -0.125 6 0 C6.66 0.66 7.32 1.32 8 2 C7.96712417 4.72869407 7.43602229 7.2966618 7 10 C6.34 10 5.68 10 5 10 C5 9.01 5 8.02 5 7 C4.34 7 3.68 7 3 7 C3 7.99 3 8.98 3 10 C2.01 10 1.02 10 0 10 C0 6.7 0 3.4 0 0 Z " fill="#579F7B" transform="translate(65,60)"/>
<path d="M0 0 C0.66 0 1.32 0 2 0 C3.33217993 5.44982699 3.33217993 5.44982699 2 7.65625 C-1.01660442 9.68303109 -4.16408323 9.57235566 -7.6875 9.6875 C-8.38939453 9.72166016 -9.09128906 9.75582031 -9.81445312 9.79101562 C-11.54241387 9.87329947 -13.27118072 9.9383324 -15 10 C-15 9.01 -15 8.02 -15 7 C-12.16730334 5.58365167 -9.52533562 5.6536995 -6.375 5.4375 C-4.59222656 5.31181641 -4.59222656 5.31181641 -2.7734375 5.18359375 C-1.85820313 5.12300781 -0.94296875 5.06242187 0 5 C0 3.35 0 1.7 0 0 Z " fill="#2F2C35" transform="translate(81,107)"/>
<path d="M0 0 C3.63 0 7.26 0 11 0 C11 0.66 11 1.32 11 2 C11.66 2.33 12.32 2.66 13 3 C10.16137697 4.89241536 8.06515061 6.10911299 4.59765625 5.75390625 C2.36863845 5.24330976 0.18458153 4.67479296 -2 4 C-1.34 2.68 -0.68 1.36 0 0 Z " fill="#F8FDFC" transform="translate(68,55)"/>
<path d="M0 0 C0.33 0.99 0.66 1.98 1 3 C2.91425781 2.96519531 2.91425781 2.96519531 4.8671875 2.9296875 C6.5364525 2.91093171 8.2057238 2.89273131 9.875 2.875 C10.71675781 2.85824219 11.55851562 2.84148437 12.42578125 2.82421875 C13.23144531 2.81777344 14.03710938 2.81132813 14.8671875 2.8046875 C15.98262939 2.78897705 15.98262939 2.78897705 17.12060547 2.77294922 C19 3 19 3 21 5 C17.93466836 6.53266582 14.73245728 6.10276471 11.375 6.0625 C10.66859375 6.05798828 9.9621875 6.05347656 9.234375 6.04882812 C7.48954725 6.03703875 5.744763 6.01910324 4 6 C4 5.34 4 4.68 4 4 C2.68 4 1.36 4 0 4 C0 2.68 0 1.36 0 0 Z " fill="#2F2C35" transform="translate(61,96)"/>
<path d="M0 0 C5.61 0 11.22 0 17 0 C17 0.99 17 1.98 17 3 C11.39 3 5.78 3 0 3 C0 2.01 0 1.02 0 0 Z " fill="#F4F1F6" transform="translate(67,116)"/>
<path d="M0 0 C5.61 0 11.22 0 17 0 C17 0.99 17 1.98 17 3 C11.39 3 5.78 3 0 3 C0 2.01 0 1.02 0 0 Z " fill="#F5F3F6" transform="translate(63,96)"/>
<path d="M0 0 C5.28 0 10.56 0 16 0 C16 0.99 16 1.98 16 3 C10.72 3 5.44 3 0 3 C0 2.01 0 1.02 0 0 Z " fill="#F9F7FA" transform="translate(68,103)"/>
<path d="M0 0 C0.99 0 1.98 0 3 0 C4.38123963 1.96722008 5.71488126 3.96868328 7 6 C7.66 6.33 8.32 6.66 9 7 C9 8.32 9 9.64 9 11 C5.67143505 9.83050421 3.0857191 8.92000675 1 6 C0.3125 2.8125 0.3125 2.8125 0 0 Z " fill="#4B4A4F" transform="translate(47,120)"/>
<path d="M0 0 C1.65 0 3.3 0 5 0 C5.33 0.99 5.66 1.98 6 3 C4.35 2.67 2.7 2.34 1 2 C1 2.66 1 3.32 1 4 C2.65 4.33 4.3 4.66 6 5 C6 6.65 6 8.3 6 10 C4.02 10 2.04 10 0 10 C0 9.34 0 8.68 0 8 C1.98 8.495 1.98 8.495 4 9 C4 8.01 4 7.02 4 6 C2.35 5.67 0.7 5.34 -1 5 C-0.67 3.35 -0.34 1.7 0 0 Z " fill="#65A283" transform="translate(75,60)"/>
<path d="M0 0 C0.12375 0.928125 0.12375 0.928125 0.25 1.875 C0.81258459 4.18437567 0.81258459 4.18437567 3.0625 5.25 C3.701875 5.4975 4.34125 5.745 5 6 C4.67 7.32 4.34 8.64 4 10 C3.34 9.67 2.68 9.34 2 9 C2 8.34 2 7.68 2 7 C-3.28 7 -8.56 7 -14 7 C-14.33 7.66 -14.66 8.32 -15 9 C-15 8.01 -15 7.02 -15 6 C-10.05 5.67 -5.1 5.34 0 5 C0 3.35 0 1.7 0 0 Z " fill="#78757C" transform="translate(82,96)"/>
<path d="M0 0 C2.6796875 -0.36328125 2.6796875 -0.36328125 5.875 -0.3125 C7.44894531 -0.30669922 7.44894531 -0.30669922 9.0546875 -0.30078125 C11.89634192 -0.01058577 13.58301662 0.53463085 16 2 C15.67 2.66 15.34 3.32 15 4 C14.47921875 3.83628906 13.9584375 3.67257813 13.421875 3.50390625 C10.3243125 2.85941341 7.41158906 2.90588411 4.25 2.9375 C2.49429688 2.95103516 2.49429688 2.95103516 0.703125 2.96484375 C-0.18890625 2.97644531 -1.0809375 2.98804688 -2 3 C-1.34 2.01 -0.68 1.02 0 0 Z " fill="#47A371" transform="translate(67,51)"/>
<path d="M0 0 C2 2 2 2 2.1953125 4.1640625 C2.17210938 4.97617187 2.14890625 5.78828125 2.125 6.625 C2.10695313 7.44226563 2.08890625 8.25953125 2.0703125 9.1015625 C2.03550781 10.04128906 2.03550781 10.04128906 2 11 C2.99 11.33 3.98 11.66 5 12 C1.95613276 12.08226668 -0.07175348 11.97608217 -3 11 C-3 9.35 -3 7.7 -3 6 C-1.68 6.33 -0.36 6.66 1 7 C0.67 4.69 0.34 2.38 0 0 Z " fill="#CCF1DD" transform="translate(84,59)"/>
<path d="M0 0 C0.99 0.33 1.98 0.66 3 1 C3 1.66 3 2.32 3 3 C8.61 3 14.22 3 20 3 C20 3.33 20 3.66 20 4 C18.96359375 4.06058594 17.9271875 4.12117188 16.859375 4.18359375 C15.48957127 4.26803371 14.11978025 4.35267997 12.75 4.4375 C11.72712891 4.49647461 11.72712891 4.49647461 10.68359375 4.55664062 C7.35551959 4.76666472 4.19744598 5.01934002 1 6 C0.67 4.02 0.34 2.04 0 0 Z " fill="#747178" transform="translate(64,116)"/>
<path d="M0 0 C1.32 0.33 2.64 0.66 4 1 C4 3.64 4 6.28 4 9 C2.68 9 1.36 9 0 9 C0 6.03 0 3.06 0 0 Z " fill="#D9F8E9" transform="translate(61,61)"/>
<path d="M0 0 C2.875 -0.125 2.875 -0.125 6 0 C6.66 0.66 7.32 1.32 8 2 C7.67 2.99 7.34 3.98 7 5 C5.68 5 4.36 5 3 5 C3 3.68 3 2.36 3 1 C2.34 1 1.68 1 1 1 C1 3.97 1 6.94 1 10 C0.67 10 0.34 10 0 10 C0 6.7 0 3.4 0 0 Z " fill="#86C9A8" transform="translate(65,60)"/>
<path d="M0 0 C1.26328125 0.02707031 2.5265625 0.05414063 3.828125 0.08203125 C4.79234375 0.11683594 5.7565625 0.15164062 6.75 0.1875 C7.08 0.8475 7.41 1.5075 7.75 2.1875 C3.13 2.1875 -1.49 2.1875 -6.25 2.1875 C-6.58 3.5075 -6.91 4.8275 -7.25 6.1875 C-8.24 6.6825 -8.24 6.6825 -9.25 7.1875 C-9.25 6.5275 -9.25 5.8675 -9.25 5.1875 C-9.91 5.1875 -10.57 5.1875 -11.25 5.1875 C-11.25 3.1875 -11.25 3.1875 -9.703125 1.57421875 C-6.35388714 -0.31906061 -3.81924263 -0.10609007 0 0 Z " fill="#65B98D" transform="translate(73.25,49.8125)"/>
<path d="M0 0 C0.99 0 1.98 0 3 0 C2.4409112 3.24271506 1.5867822 4.93057424 -1 7 C-1.66 7 -2.32 7 -3 7 C-1.125 1.125 -1.125 1.125 0 0 Z " fill="#4EA574" transform="translate(61,55)"/>
<path d="M0 0 C1.9375 0.6875 1.9375 0.6875 4 2 C4.75 4.625 4.75 4.625 5 7 C-0.875 4.25 -0.875 4.25 -2 2 C-1.34 2 -0.68 2 0 2 C0 1.34 0 0.68 0 0 Z " fill="#46444B" transform="translate(94,87)"/>
<path d="M0 0 C0.66 0 1.32 0 2 0 C2 2.31 2 4.62 2 7 C0.35 7 -1.3 7 -3 7 C-3 6.34 -3 5.68 -3 5 C-2.34 4.67 -1.68 4.34 -1 4 C-0.34786708 1.97536745 -0.34786708 1.97536745 0 0 Z " fill="#2E2B32" transform="translate(56,82)"/>
<path d="M0 0 C1.65 1.65 3.3 3.3 5 5 C4.01 5.495 4.01 5.495 3 6 C2.67 6.66 2.34 7.32 2 8 C0.4375 6.25 0.4375 6.25 -1 4 C-0.6875 1.75 -0.6875 1.75 0 0 Z " fill="#413F46" transform="translate(63,108)"/>
<path d="M0 0 C1.65 1.32 3.3 2.64 5 4 C1.7 4 -1.6 4 -5 4 C-5 3.34 -5 2.68 -5 2 C-3.35 2 -1.7 2 0 2 C0 1.34 0 0.68 0 0 Z " fill="#F1FDF9" transform="translate(63,68)"/>
<path d="M0 0 C2.1875 1.4375 2.1875 1.4375 4 3 C3.67 3.66 3.34 4.32 3 5 C2.01 5 1.02 5 0 5 C-1.6875 3 -1.6875 3 -3 1 C-2.01 0.67 -1.02 0.34 0 0 Z " fill="#56AC80" transform="translate(83,53)"/>
<path d="M0 0 C0.66 0 1.32 0 2 0 C2 0.99 2 1.98 2 3 C2.99 3.33 3.98 3.66 5 4 C2.6875 4.625 2.6875 4.625 0 5 C-0.99 4.34 -1.98 3.68 -3 3 C-2.01 3 -1.02 3 0 3 C0 2.01 0 1.02 0 0 Z " fill="#CFF3E5" transform="translate(68,67)"/>
<path d="M0 0 C2.6015625 -0.29296875 2.6015625 -0.29296875 5.625 -0.1875 C7.12933594 -0.14689453 7.12933594 -0.14689453 8.6640625 -0.10546875 C9.43492188 -0.07066406 10.20578125 -0.03585938 11 0 C11 0.33 11 0.66 11 1 C10.09507813 1.09087891 10.09507813 1.09087891 9.171875 1.18359375 C7.97304687 1.30927734 7.97304687 1.30927734 6.75 1.4375 C5.96109375 1.51871094 5.1721875 1.59992187 4.359375 1.68359375 C2.17635361 1.97634993 0.1226818 2.42064419 -2 3 C-1.34 2.01 -0.68 1.02 0 0 Z " fill="#349A64" transform="translate(67,51)"/>
</svg>
