<?xml version="1.0" encoding="UTF-8"?>
<svg version="1.1" xmlns="http://www.w3.org/2000/svg" width="156" height="156">
<path d="M0 0 C51.48 0 102.96 0 156 0 C156 51.48 156 102.96 156 156 C104.52 156 53.04 156 0 156 C0 104.52 0 53.04 0 0 Z " fill="#FEFEFE" transform="translate(0,0)"/>
<path d="M0 0 C7.75 0.75 7.75 0.75 10 3 C9.625 6.125 9.625 6.125 9 9 C10.98 9.33 12.96 9.66 15 10 C14.34 13.3 13.68 16.6 13 20 C10.69 19.67 8.38 19.34 6 19 C6 20.32 6 21.64 6 23 C6.66 23 7.32 23 8 23 C9.47265625 24.390625 9.47265625 24.390625 11.0625 26.25 C11.58972656 26.85328125 12.11695313 27.4565625 12.66015625 28.078125 C15.15755004 31.66039248 15.15782696 35.15864698 15.1875 39.4375 C15.20167969 40.36433594 15.21585938 41.29117188 15.23046875 42.24609375 C14.98507562 45.17833373 14.22201577 47.33861389 13 50 C12.34 50 11.68 50 11 50 C10.731875 50.639375 10.46375 51.27875 10.1875 51.9375 C9 54 9 54 6 55 C6 55.66 6 56.32 6 57 C2.41754417 58.59942674 -0.65596856 59.33160265 -4.5625 59.625 C-5.49191406 59.69976562 -6.42132813 59.77453125 -7.37890625 59.8515625 C-9.5829605 59.97638226 -11.79241419 60 -14 60 C-14.33 59.01 -14.66 58.02 -15 57 C-15.66 57 -16.32 57 -17 57 C-17 56.34 -17 55.68 -17 55 C-17.66 55 -18.32 55 -19 55 C-20.66666667 53.33333333 -22.33333333 51.66666667 -24 50 C-24.66 50 -25.32 50 -26 50 C-26.66 50.99 -27.32 51.98 -28 53 C-28.66 53.99 -29.32 54.98 -30 56 C-30.66 56 -31.32 56 -32 56 C-32 56.66 -32 57.32 -32 58 C-37.11440783 59.81478988 -41.2017495 57.90421729 -46 56 C-46.66 55.67 -47.32 55.34 -48 55 C-47.40300869 51.66864109 -46.27987719 49.78724333 -44.0625 47.25 C-43.53785156 46.63640625 -43.01320313 46.0228125 -42.47265625 45.390625 C-41 44 -41 44 -39 44 C-38.731875 43.4225 -38.46375 42.845 -38.1875 42.25 C-37 40 -37 40 -35.25 38.1875 C-33.63492024 35.9215896 -33.63492024 35.9215896 -34.6875 32.6875 C-35.51832659 30.35327292 -36.35137953 28.01983605 -37.1875 25.6875 C-38.8251346 18.25515834 -37.5197271 9.78698431 -34 3 C-30.4058011 0.27712204 -25.78383344 0.72448357 -21.40234375 0.63671875 C-18.43704541 1.08512972 -17.14457318 1.92055485 -15 4 C-12.33661956 9.12800114 -11.63644128 14.30424667 -12 20 C-9.36 20 -6.72 20 -4 20 C-4.11306697 18.04105639 -4.11306697 18.04105639 -5 16 C-7.49034386 14.70339566 -7.49034386 14.70339566 -10 14 C-9.125 7.25 -9.125 7.25 -8 5 C-5.69 5 -3.38 5 -1 5 C-0.67 3.35 -0.34 1.7 0 0 Z " fill="#DE8DA2" transform="translate(90,54)"/>
<path d="M0 0 C1.18851563 0.19464844 2.37703125 0.38929687 3.6015625 0.58984375 C4.97441406 0.82380859 4.97441406 0.82380859 6.375 1.0625 C6.375 3.3725 6.375 5.6825 6.375 8.0625 C3.375 9.0625 3.375 9.0625 0.3125 9 C-2.75003181 8.72626157 -2.75003181 8.72626157 -4.625 11.0625 C-4.625 12.0525 -4.625 13.0425 -4.625 14.0625 C-4.295 13.0725 -3.965 12.0825 -3.625 11.0625 C-1.315 11.0625 0.995 11.0625 3.375 11.0625 C2.5 17.8125 2.5 17.8125 1.375 20.0625 C3.97545875 17.7600881 5.22239183 15.56353323 6.5625 12.375 C6.90667969 11.56675781 7.25085938 10.75851563 7.60546875 9.92578125 C7.85941406 9.31089844 8.11335938 8.69601563 8.375 8.0625 C10.375 10.0625 10.375 10.0625 10.45703125 12.3125 C9.88650818 18.13348904 8.87830314 23.35834858 6.8984375 28.87109375 C6.30058552 31.37404123 6.5532779 32.65178516 7.375 35.0625 C7.705 36.0525 8.035 37.0425 8.375 38.0625 C10.13139375 39.880592 10.13139375 39.880592 12.25 41.625 C12.94867188 42.22441406 13.64734375 42.82382813 14.3671875 43.44140625 C16.48469449 45.20142666 16.48469449 45.20142666 19.375 47.0625 C19.375 50.0625 19.375 50.0625 17.6875 51.8125 C15.375 53.0625 15.375 53.0625 12.625 52.75 C11.8825 52.523125 11.14 52.29625 10.375 52.0625 C10.045 50.7425 9.715 49.4225 9.375 48.0625 C8.715 48.0625 8.055 48.0625 7.375 48.0625 C6.983125 47.4025 6.59125 46.7425 6.1875 46.0625 C4.41978612 43.67406662 4.41978612 43.67406662 0.8125 43.625 C-0.321875 43.769375 -1.45625 43.91375 -2.625 44.0625 C-3.285 45.0525 -3.945 46.0425 -4.625 47.0625 C-5.285 47.0625 -5.945 47.0625 -6.625 47.0625 C-6.955 48.3825 -7.285 49.7025 -7.625 51.0625 C-11.32041586 52.01274979 -13.92958414 52.01274979 -17.625 51.0625 C-17.08412682 47.27638773 -15.50777668 45.50849233 -12.625 43.0625 C-11.965 43.0625 -11.305 43.0625 -10.625 43.0625 C-10.295 41.4125 -9.965 39.7625 -9.625 38.0625 C-10.285 37.7325 -10.945 37.4025 -11.625 37.0625 C-11.08875 36.546875 -10.5525 36.03125 -10 35.5 C-8.25318305 33.02809678 -8.25318305 33.02809678 -9.3125 29.75 C-10.14332659 27.41577292 -10.97637953 25.08233605 -11.8125 22.75 C-13.47989589 15.1825879 -11.95050141 7.04764411 -8.625 0.0625 C-5.61666904 -1.44166548 -3.27538422 -0.54589737 0 0 Z " fill="#DC889E" transform="translate(64.625,56.9375)"/>
<path d="M0 0 C7.75 0.75 7.75 0.75 10 3 C9.625 6.125 9.625 6.125 9 9 C10.98 9.33 12.96 9.66 15 10 C14.34 13.3 13.68 16.6 13 20 C10.69 19.67 8.38 19.34 6 19 C6 20.32 6 21.64 6 23 C6.66 23 7.32 23 8 23 C9.47265625 24.390625 9.47265625 24.390625 11.0625 26.25 C11.58972656 26.85328125 12.11695313 27.4565625 12.66015625 28.078125 C15.15755004 31.66039248 15.15782696 35.15864698 15.1875 39.4375 C15.20167969 40.36433594 15.21585938 41.29117188 15.23046875 42.24609375 C14.98507562 45.17833373 14.22201577 47.33861389 13 50 C12.34 50 11.68 50 11 50 C10.731875 50.639375 10.46375 51.27875 10.1875 51.9375 C9 54 9 54 6 55 C6 55.66 6 56.32 6 57 C2.41754417 58.59942674 -0.65596856 59.33160265 -4.5625 59.625 C-5.49191406 59.69976562 -6.42132813 59.77453125 -7.37890625 59.8515625 C-9.5829605 59.97638226 -11.79241419 60 -14 60 C-14.33 59.01 -14.66 58.02 -15 57 C-15.66 57 -16.32 57 -17 57 C-17 56.34 -17 55.68 -17 55 C-17.66 55 -18.32 55 -19 55 C-20.66666667 53.33333333 -22.33333333 51.66666667 -24 50 C-24.66 50 -25.32 50 -26 50 C-26.66 50.99 -27.32 51.98 -28 53 C-28.66 53.99 -29.32 54.98 -30 56 C-30.66 56 -31.32 56 -32 56 C-32 56.66 -32 57.32 -32 58 C-37.11440783 59.81478988 -41.2017495 57.90421729 -46 56 C-46.66 55.67 -47.32 55.34 -48 55 C-47.40300869 51.66864109 -46.27987719 49.78724333 -44.0625 47.25 C-43.53785156 46.63640625 -43.01320313 46.0228125 -42.47265625 45.390625 C-41 44 -41 44 -39 44 C-38.67 43.01 -38.34 42.02 -38 41 C-37.01 41 -36.02 41 -35 41 C-35.495 43.475 -35.495 43.475 -36 46 C-36.66 46 -37.32 46 -38 46 C-38.66 47.32 -39.32 48.64 -40 50 C-40.66 50 -41.32 50 -42 50 C-42.33 51.32 -42.66 52.64 -43 54 C-40.03 54 -37.06 54 -34 54 C-33.34 52.68 -32.68 51.36 -32 50 C-31.34 50 -30.68 50 -30 50 C-29.34 48.68 -28.68 47.36 -28 46 C-21.51707705 45.6330421 -21.51707705 45.6330421 -19.0625 47.375 C-18 49 -18 49 -18 51 C-17.34 51 -16.68 51 -16 51 C-15.34 52.32 -14.68 53.64 -14 55 C-10.67277559 54.4454626 -7.8986087 53.75986957 -5 52 C-4.505 51.01 -4.505 51.01 -4 50 C-3.01 50 -2.02 50 -1 50 C-1 49.34 -1 48.68 -1 48 C0.62449243 46.29220027 2.29220027 44.62449243 4 43 C5.29524348 41.90645094 5.29524348 41.90645094 5.375 39.25 C5.23848863 35.87815476 5.23848863 35.87815476 3.0625 33.125 C-0.54607875 30.62108822 -2.61095843 30.31735518 -6.91015625 30.58203125 C-9.18948256 30.90387775 -9.18948256 30.90387775 -11.5 32.625 C-13.27533915 35.43595366 -13.70099803 37.71097835 -14 41 C-14.66 41 -15.32 41 -16 41 C-16.31658501 36.96354118 -16.4210379 34.67666805 -14.25 31.1875 C-11.02423545 28.05134002 -8.19021258 26.68542911 -3.6875 26.4375 C0.11566823 26.54454281 2.18091734 27.38582799 5.0625 29.875 C7.65938825 32.85930282 8.52916156 35.11725117 8.75 39.0625 C8.36357186 44.23590535 6.89627437 46.62322888 3 50 C0.1875 50.875 0.1875 50.875 -2 51 C-2 51.66 -2 52.32 -2 53 C-3.5 54.625 -3.5 54.625 -5 56 C0.98655255 54.88386308 3.97535189 53.82957773 8 49 C8.80050781 48.09701172 8.80050781 48.09701172 9.6171875 47.17578125 C11.34637575 44.45499635 11.3702212 42.76380679 11.3125 39.5625 C11.30669922 38.17224609 11.30669922 38.17224609 11.30078125 36.75390625 C10.97882443 33.80611976 10.33921009 31.64185471 9 29 C7.36504293 27.94895617 5.70116376 26.94011682 4 26 C4 25.34 4 24.68 4 24 C3.34 24 2.68 24 2 24 C1.75 18.375 1.75 18.375 4 15 C6.31 15.33 8.62 15.66 11 16 C11 14.35 11 12.7 11 11 C9.35 11 7.7 11 6 11 C6 8.69 6 6.38 6 4 C4.68 4 3.36 4 2 4 C2 5.65 2 7.3 2 9 C-0.64 8.67 -3.28 8.34 -6 8 C-6 9.65 -6 11.3 -6 13 C-4.35 13 -2.7 13 -1 13 C-1.66 15.97 -2.32 18.94 -3 22 C-4.65 22 -6.3 22 -8 22 C-8 21.34 -8 20.68 -8 20 C-6.68 20 -5.36 20 -4 20 C-4.11306697 18.04105639 -4.11306697 18.04105639 -5 16 C-7.49034386 14.70339566 -7.49034386 14.70339566 -10 14 C-9.125 7.25 -9.125 7.25 -8 5 C-5.69 5 -3.38 5 -1 5 C-0.67 3.35 -0.34 1.7 0 0 Z " fill="#DA8198" transform="translate(90,54)"/>
<path d="M0 0 C1.32 0 2.64 0 4 0 C4 2.31 4 4.62 4 7 C5.65 7 7.3 7 9 7 C9 8.65 9 10.3 9 12 C6.69 12 4.38 12 2 12 C1.34 14.64 0.68 17.28 0 20 C0.66 20 1.32 20 2 20 C2 20.66 2 21.32 2 22 C2.763125 22.20625 3.52625 22.4125 4.3125 22.625 C8.0557252 24.54013848 8.67036565 26.01109694 10 30 C10.8989488 35.88811461 10.8577828 40.54756888 7.3125 45.5 C4.82968538 48.33750243 2.55006209 50.57997516 -1 52 C-4.3125 52.1875 -4.3125 52.1875 -7 52 C-6.67 51.01 -6.34 50.02 -6 49 C-5.34 49 -4.68 49 -4 49 C-4 48.34 -4 47.68 -4 47 C-2.6078125 46.38125 -2.6078125 46.38125 -1.1875 45.75 C2.01368754 43.99248527 3.14707421 43.04486636 5 40 C5.87704589 35.87992397 5.94020543 31.80918318 3.96875 28.015625 C1.81227987 25.49974318 0.04189315 24.21751804 -3.2265625 23.53515625 C-7.87937202 23.3406408 -11.36501029 23.8995676 -15 27 C-16.03357147 28.64605826 -17.04060332 30.30963442 -18 32 C-18.66 32 -19.32 32 -20 32 C-18.68292571 27.39024 -16.92504831 23.81142658 -14 20 C-10.52674819 18.8422494 -7.63932552 18.93133348 -4 19 C-4.020625 17.906875 -4.04125 16.81375 -4.0625 15.6875 C-4 12 -4 12 -3 9 C-4.65 9 -6.3 9 -8 9 C-8 7.35 -8 5.7 -8 4 C-5.36 4.33 -2.72 4.66 0 5 C0 3.35 0 1.7 0 0 Z " fill="#FBE4EA" transform="translate(92,58)"/>
<path d="M0 0 C2.91308822 1.45654411 3.05452316 3.35387648 4.125 6.375 C4.47820313 7.35210937 4.83140625 8.32921875 5.1953125 9.3359375 C6 12 6 12 6 15 C6.61875 15.20625 7.2375 15.4125 7.875 15.625 C10.82863641 17.5361765 10.91109857 19.7332957 12 23 C14.00016466 24.20882096 14.00016466 24.20882096 16 25 C16.33 25.99 16.66 26.98 17 28 C18.75639375 29.818092 18.75639375 29.818092 20.875 31.5625 C21.57367188 32.16191406 22.27234375 32.76132813 22.9921875 33.37890625 C25.10969449 35.13892666 25.10969449 35.13892666 28 37 C28 40 28 40 26.3125 41.75 C24 43 24 43 21.25 42.6875 C20.5075 42.460625 19.765 42.23375 19 42 C18.67 40.68 18.34 39.36 18 38 C17.34 38 16.68 38 16 38 C14.79492188 36.70239258 14.79492188 36.70239258 13.46875 34.89453125 C12.74751953 33.91323242 12.74751953 33.91323242 12.01171875 32.91210938 C11.26341797 31.87280273 11.26341797 31.87280273 10.5 30.8125 C10.00113281 30.13896484 9.50226563 29.46542969 8.98828125 28.77148438 C3 20.54361805 3 20.54361805 3 15 C2.34 15 1.68 15 1 15 C-0.96263236 9.4584498 -1.01603857 5.79141983 0 0 Z " fill="#FDF1F4" transform="translate(56,67)"/>
<path d="M0 0 C3.24605106 0.5808723 4.99895566 2.03160524 7.2265625 4.3984375 C8.67804153 7.30139555 8.59895275 9.17105529 8.2265625 12.3984375 C6.00496275 15.76257426 4.42318676 17.90227622 0.6640625 19.4609375 C-2.42534965 19.3817218 -3.61098171 18.56089329 -5.7734375 16.3984375 C-5.7734375 15.7384375 -5.7734375 15.0784375 -5.7734375 14.3984375 C-6.4128125 14.0890625 -7.0521875 13.7796875 -7.7109375 13.4609375 C-9.7734375 12.3984375 -9.7734375 12.3984375 -10.7734375 11.3984375 C-10.51794887 8.01321321 -10.06509189 5.10934507 -8.7734375 1.9609375 C-5.91759159 -0.27019211 -3.55069142 -0.15035501 0 0 Z " fill="#FCF2F4" transform="translate(87.7734375,83.6015625)"/>
<path d="M0 0 C0.99 0 1.98 0 3 0 C2.67 1.65 2.34 3.3 2 5 C1.34 5 0.68 5 0 5 C-0.66 6.32 -1.32 7.64 -2 9 C-2.66 9 -3.32 9 -4 9 C-4.33 10.32 -4.66 11.64 -5 13 C-2.03 13 0.94 13 4 13 C4.66 11.68 5.32 10.36 6 9 C6.66 9 7.32 9 8 9 C8.66 7.68 9.32 6.36 10 5 C16.48292295 4.6330421 16.48292295 4.6330421 18.9375 6.375 C20 8 20 8 20 10 C20.66 10 21.32 10 22 10 C22.2475 10.639375 22.495 11.27875 22.75 11.9375 C23.81562433 14.18741541 23.81562433 14.18741541 26.125 14.75 C26.74375 14.8325 27.3625 14.915 28 15 C27.505 17.475 27.505 17.475 27 20 C25.68 19.34 24.36 18.68 23 18 C23 17.34 23 16.68 23 16 C22.34 16 21.68 16 21 16 C21 15.34 21 14.68 21 14 C20.34 14 19.68 14 19 14 C17.33333333 12.33333333 15.66666667 10.66666667 14 9 C13.34 9 12.68 9 12 9 C11.01 10.485 11.01 10.485 10 12 C9.01 13.485 9.01 13.485 8 15 C7.34 15 6.68 15 6 15 C6 15.66 6 16.32 6 17 C0.88559217 18.81478988 -3.2017495 16.90421729 -8 15 C-8.66 14.67 -9.32 14.34 -10 14 C-9.40300869 10.66864109 -8.27987719 8.78724333 -6.0625 6.25 C-5.27552734 5.32960938 -5.27552734 5.32960938 -4.47265625 4.390625 C-3 3 -3 3 -1 3 C-0.67 2.01 -0.34 1.02 0 0 Z " fill="#E199AE" transform="translate(52,95)"/>
<path d="M0 0 C7.75 0.75 7.75 0.75 10 3 C9.625 6.125 9.625 6.125 9 9 C11.97 9.495 11.97 9.495 15 10 C14.34 12.97 13.68 15.94 13 19 C10.69 18.67 8.38 18.34 6 18 C6 17.34 6 16.68 6 16 C7.65 16 9.3 16 11 16 C11 14.35 11 12.7 11 11 C9.35 11 7.7 11 6 11 C6 8.69 6 6.38 6 4 C4.68 4 3.36 4 2 4 C2 5.65 2 7.3 2 9 C-0.64 8.67 -3.28 8.34 -6 8 C-6 9.65 -6 11.3 -6 13 C-4.35 13 -2.7 13 -1 13 C-1.66 15.97 -2.32 18.94 -3 22 C-4.65 22 -6.3 22 -8 22 C-8 21.34 -8 20.68 -8 20 C-6.68 20 -5.36 20 -4 20 C-4.11306697 18.04105639 -4.11306697 18.04105639 -5 16 C-7.49034386 14.70339566 -7.49034386 14.70339566 -10 14 C-9.125 7.25 -9.125 7.25 -8 5 C-5.69 5 -3.38 5 -1 5 C-0.67 3.35 -0.34 1.7 0 0 Z " fill="#D57189" transform="translate(90,54)"/>
<path d="M0 0 C2 2 2 2 2.1171875 4.1796875 C1.45446754 11.55511931 -0.40250601 18.07737649 -3 25 C-3.66 25 -4.32 25 -5 25 C-5.9765625 23.20963542 -6.953125 21.41927083 -7.9296875 19.62890625 C-8.91410024 17.83381685 -8.91410024 17.83381685 -11 17 C-11.625 14.4375 -11.625 14.4375 -12 12 C-10.02 12.99 -10.02 12.99 -8 14 C-8.33 13.401875 -8.66 12.80375 -9 12.1875 C-10 10 -10 10 -10 7 C-10.66 7 -11.32 7 -12 7 C-12 5.68 -12 4.36 -12 3 C-9.69 3 -7.38 3 -5 3 C-5.875 9.75 -5.875 9.75 -7 12 C-4.39954125 9.6975881 -3.15260817 7.50103323 -1.8125 4.3125 C-1.29623047 3.10013672 -1.29623047 3.10013672 -0.76953125 1.86328125 C-0.51558594 1.24839844 -0.26164062 0.63351563 0 0 Z " fill="#E798AE" transform="translate(73,65)"/>
<path d="M0 0 C1.58246707 -0.08153933 3.16616273 -0.13943557 4.75 -0.1875 C6.07257813 -0.23970703 6.07257813 -0.23970703 7.421875 -0.29296875 C10.54940839 0.06243277 11.80226856 0.76302335 14 3 C14.828125 5.26171875 14.828125 5.26171875 15.25 7.6875 C15.39953125 8.49574219 15.5490625 9.30398437 15.703125 10.13671875 C15.85007812 11.05904297 15.85007812 11.05904297 16 12 C14.68 12 13.36 12 12 12 C10.35 15.3 8.7 18.6 7 22 C6.34 22 5.68 22 5 22 C5.66 19.03 6.32 16.06 7 13 C4.69 13 2.38 13 0 13 C0 14.65 0 16.3 0 18 C-0.66 17.34 -1.32 16.68 -2 16 C-1.63318342 13.06546739 -1.13562754 12.13562754 1 10 C3.68839385 9.73008094 6.29141936 9.91262643 9 10 C9.33 7.69 9.66 5.38 10 3 C6.37 2.67 2.74 2.34 -1 2 C-0.67 1.34 -0.34 0.68 0 0 Z " fill="#DA8BA0" transform="translate(61,55)"/>
<path d="M0 0 C0.66 0 1.32 0 2 0 C3.6875 1.75 3.6875 1.75 5 4 C4.72117131 7.06711564 3.75752863 8.36370706 2 11 C1.34 11 0.68 11 0 11 C-0.33 12.32 -0.66 13.64 -1 15 C-4.69541586 15.95024979 -7.30458414 15.95024979 -11 15 C-10.45912682 11.21388773 -8.88277668 9.44599233 -6 7 C-5.34 7 -4.68 7 -4 7 C-4 6.34 -4 5.68 -4 5 C-3.34 5 -2.68 5 -2 5 C-2 4.34 -2 3.68 -2 3 C-1.34 3 -0.68 3 0 3 C0 2.01 0 1.02 0 0 Z " fill="#FDF2F4" transform="translate(58,93)"/>
<path d="M0 0 C0.66 0 1.32 0 2 0 C2.23074219 0.56847656 2.46148437 1.13695313 2.69921875 1.72265625 C4.40270054 5.75580089 6.13730523 9.40924553 8.75 12.9375 C11 16 11 16 11 18 C8.6875 18.3125 8.6875 18.3125 6 18 C4.18116991 15.6167054 3 14.04181663 3 11 C2.34 11 1.68 11 1 11 C1 11.99 1 12.98 1 14 C0.34 14 -0.32 14 -1 14 C-1 14.66 -1 15.32 -1 16 C-1.66 15.67 -2.32 15.34 -3 15 C-2.67 14.34 -2.34 13.68 -2 13 C-2.66 12.67 -3.32 12.34 -4 12 C-3.2575 11.1028125 -3.2575 11.1028125 -2.5 10.1875 C-0.71723582 8.02970006 -0.71723582 8.02970006 -1 5 C-0.34 5 0.32 5 1 5 C0.67 3.35 0.34 1.7 0 0 Z " fill="#E59DB0" transform="translate(57,82)"/>
<path d="M0 0 C1.51400391 0.01740234 1.51400391 0.01740234 3.05859375 0.03515625 C4.07050781 0.04417969 5.08242187 0.05320313 6.125 0.0625 C7.29869141 0.07990234 7.29869141 0.07990234 8.49609375 0.09765625 C8.49609375 2.40765625 8.49609375 4.71765625 8.49609375 7.09765625 C5.61398073 8.05836059 3.79759331 8.20347508 0.80859375 8.16015625 C-0.40376953 8.14662109 -0.40376953 8.14662109 -1.640625 8.1328125 C-2.56294922 8.11541016 -2.56294922 8.11541016 -3.50390625 8.09765625 C-3.54632348 5.7647085 -3.54483562 3.43063058 -3.50390625 1.09765625 C-2.50390625 0.09765625 -2.50390625 0.09765625 0 0 Z " fill="#FADEE5" transform="translate(62.50390625,57.90234375)"/>
<path d="M0 0 C0.33 0 0.66 0 1 0 C1 2.64 1 5.28 1 8 C1.66 8 2.32 8 3 8 C3.33 7.34 3.66 6.68 4 6 C3.56460604 10.93446488 1.36703914 13.47991362 -2 17 C-5.75214929 19.88626868 -8.30234687 20.32774324 -13 20 C-12.505 18.515 -12.505 18.515 -12 17 C-11.34 17 -10.68 17 -10 17 C-10 16.34 -10 15.68 -10 15 C-9.071875 14.5875 -8.14375 14.175 -7.1875 13.75 C-3.97342615 11.98541043 -2.64882487 11.21086948 -1 8 C-0.47529905 5.31990988 -0.22757477 2.73089724 0 0 Z " fill="#F9D7DF" transform="translate(98,90)"/>
<path d="M0 0 C2 2 2 2 2.08203125 4.3203125 C1.49925738 10.38453917 0.42749431 15.40620877 -2 21 C-2.66 21 -3.32 21 -4 21 C-6 18 -6 18 -5.8125 15.8125 C-4.25090902 10.40699275 -2.11617795 5.20905341 0 0 Z " fill="#FCE6ED" transform="translate(73,65)"/>
<path d="M0 0 C5.5 -0.36666667 5.5 -0.36666667 7.875 1.375 C9 3 9 3 9 5 C9.66 5 10.32 5 11 5 C11.2475 5.639375 11.495 6.27875 11.75 6.9375 C12.81562433 9.18741541 12.81562433 9.18741541 15.125 9.75 C15.74375 9.8325 16.3625 9.915 17 10 C16.67 11.65 16.34 13.3 16 15 C14.68 14.34 13.36 13.68 12 13 C12 12.34 12 11.68 12 11 C11.34 11 10.68 11 10 11 C10 10.34 10 9.68 10 9 C9.34 9 8.68 9 8 9 C4 4.52941176 4 4.52941176 4 2 C2.68 2 1.36 2 0 2 C0 1.34 0 0.68 0 0 Z " fill="#D691A3" transform="translate(63,100)"/>
<path d="M0 0 C1 2 1 2 0.82421875 4.39453125 C0.74795503 7.09142856 0.74795503 7.09142856 2.64453125 8.94921875 C3.35996094 9.52285156 4.07539062 10.09648438 4.8125 10.6875 C5.52019531 11.26886719 6.22789063 11.85023437 6.95703125 12.44921875 C8.59456457 13.69224118 10.28940898 14.85960599 12 16 C11.01 16 10.02 16 9 16 C8.67 16.99 8.34 17.98 8 19 C7.67 18.01 7.34 17.02 7 16 C5.69141928 15.28597008 4.35287339 14.62606375 3 14 C1.54544583 12.94624451 0.12857866 11.83886847 -1.25 10.6875 C-1.95640625 10.11386719 -2.6628125 9.54023437 -3.390625 8.94921875 C-5 7 -5 7 -5.234375 4.26953125 C-5.15703125 3.52058594 -5.0796875 2.77164063 -5 2 C-4.34 2 -3.68 2 -3 2 C-3 3.65 -3 5.3 -3 7 C-2.34 7 -1.68 7 -1 7 C-1.020625 6.030625 -1.04125 5.06125 -1.0625 4.0625 C-1 1 -1 1 0 0 Z " fill="#E59BAD" transform="translate(77,88)"/>
<path d="M0 0 C0.33 0 0.66 0 1 0 C1.07347656 0.98226562 1.07347656 0.98226562 1.1484375 1.984375 C1.72866606 9.067165 2.74299706 16.0071584 4 23 C3.34 23 2.68 23 2 23 C-1.23749322 15.69132432 -2.81107497 9.90990861 -1 2 C-0.67 1.34 -0.34 0.68 0 0 Z " fill="#D48A9E" transform="translate(54,64)"/>
<path d="M0 0 C0.99 0 1.98 0 3 0 C2.67 1.65 2.34 3.3 2 5 C1.34 5 0.68 5 0 5 C-0.2475 5.61875 -0.495 6.2375 -0.75 6.875 C-2.20628639 9.35068687 -3.37812506 9.95125002 -6 11 C-6 11.99 -6 12.98 -6 14 C-7.32 14 -8.64 14 -10 14 C-9.40300869 10.66864109 -8.27987719 8.78724333 -6.0625 6.25 C-5.27552734 5.32960938 -5.27552734 5.32960938 -4.47265625 4.390625 C-3 3 -3 3 -1 3 C-0.67 2.01 -0.34 1.02 0 0 Z " fill="#D790A5" transform="translate(52,95)"/>
<path d="M0 0 C0.33 0.66 0.66 1.32 1 2 C-0.28062485 3.7074998 -1.61767557 5.37373596 -3 7 C-3.66 7 -4.32 7 -5 7 C-5 7.66 -5 8.32 -5 9 C-9.86051596 11.59227518 -14.65271133 11.18689553 -20 11 C-18 9 -18 9 -15.0625 8.875 C-9.10979676 8.25702869 -4.51966402 3.58794305 0 0 Z " fill="#CD7B8E" transform="translate(101,102)"/>
<path d="M0 0 C-0.99 0.33 -1.98 0.66 -3 1 C-0.69 1.33 1.62 1.66 4 2 C4 2.33 4 2.66 4 3 C3.40832031 3.08636719 2.81664063 3.17273438 2.20703125 3.26171875 C-3.34144055 4.24831488 -6.34749222 5.43436527 -10 10 C-10.33 10.66 -10.66 11.32 -11 12 C-11.66 12 -12.32 12 -13 12 C-11.68292571 7.39024 -9.92504831 3.81142658 -7 0 C-3.86650268 -1.04449911 -3.01031744 -0.93423645 0 0 Z " fill="#FBD7DF" transform="translate(85,78)"/>
<path d="M0 0 C0.66 0.99 1.32 1.98 2 3 C0.02 3.66 -1.96 4.32 -4 5 C-4 5.66 -4 6.32 -4 7 C-5.5 8.625 -5.5 8.625 -7 10 C-5.35 10 -3.7 10 -2 10 C-2 10.33 -2 10.66 -2 11 C-5.3 11.66 -8.6 12.32 -12 13 C-11.67 11.35 -11.34 9.7 -11 8 C-9 6.8125 -9 6.8125 -7 6 C-6.67 5.34 -6.34 4.68 -6 4 C-5.01 4 -4.02 4 -3 4 C-3 3.34 -3 2.68 -3 2 C-2.01 1.34 -1.02 0.68 0 0 Z " fill="#E47E98" transform="translate(92,100)"/>
<path d="M0 0 C2.46800047 1.15173355 4.04783565 2.04783565 6 4 C6.30078125 6.2421875 6.30078125 6.2421875 6.3125 8.875 C6.32925781 9.73867187 6.34601563 10.60234375 6.36328125 11.4921875 C5.93286955 14.46341663 5.06006738 15.84469836 3 18 C2.34 18 1.68 18 1 18 C1.875 13.125 1.875 13.125 3 12 C3.45226612 7.13813926 2.40385693 4.20674962 0 0 Z " fill="#DE718F" transform="translate(92,84)"/>
<path d="M0 0 C2.31 0 4.62 0 7 0 C6.125 6.75 6.125 6.75 5 9 C4.34 9 3.68 9 3 9 C2.67 7.35 2.34 5.7 2 4 C1.34 4 0.68 4 0 4 C0 2.68 0 1.36 0 0 Z " fill="#FDEEF2" transform="translate(61,68)"/>
<path d="M0 0 C0.66 0.66 1.32 1.32 2 2 C3.64991582 2.70710678 5.31562256 3.37943989 7 4 C7 5.32 7 6.64 7 8 C4.36 8 1.72 8 -1 8 C-0.67 5.36 -0.34 2.72 0 0 Z " fill="#FAEDEC" transform="translate(79,66)"/>
<path d="M0 0 C1.485 0.99 1.485 0.99 3 2 C3.328125 3.875 3.328125 3.875 3.25 6 C3.23453125 6.70125 3.2190625 7.4025 3.203125 8.125 C3 10 3 10 2 12 C1.34 12 0.68 12 0 12 C-0.19401633 10.18818595 -0.38004375 8.37551468 -0.5625 6.5625 C-0.66691406 5.55316406 -0.77132812 4.54382813 -0.87890625 3.50390625 C-0.91886719 2.67761719 -0.95882812 1.85132812 -1 1 C-0.67 0.67 -0.34 0.34 0 0 Z " fill="#FDF2F6" transform="translate(99,86)"/>
<path d="M0 0 C1.65 0.99 3.3 1.98 5 3 C4.67 4.32 4.34 5.64 4 7 C3.01 7 2.02 7 1 7 C-1.1875 4.5 -1.1875 4.5 -3 2 C-2.01 2 -1.02 2 0 2 C0 1.34 0 0.68 0 0 Z " fill="#FAD9E1" transform="translate(95,80)"/>
<path d="M0 0 C1.98 0 3.96 0 6 0 C5.34 2.97 4.68 5.94 4 9 C2.35 9 0.7 9 -1 9 C-1 8.34 -1 7.68 -1 7 C0.32 7 1.64 7 3 7 C2.65772428 4.02934491 2.65772428 4.02934491 2 1 C1.34 0.67 0.68 0.34 0 0 Z " fill="#D06680" transform="translate(83,67)"/>
<path d="M0 0 C0.94875 0.04125 1.8975 0.0825 2.875 0.125 C3.205 1.115 3.535 2.105 3.875 3.125 C1.235 3.125 -1.405 3.125 -4.125 3.125 C-4.125 4.775 -4.125 6.425 -4.125 8.125 C-4.785 7.465 -5.445 6.805 -6.125 6.125 C-5.59861457 1.91391658 -4.41932213 0.17677289 0 0 Z " fill="#CD8095" transform="translate(65.125,64.875)"/>
<path d="M0 0 C0.33 0 0.66 0 1 0 C1.144375 1.11375 1.28875 2.2275 1.4375 3.375 C1.78372035 6.82142047 1.78372035 6.82142047 3 9 C2.0625 11.625 2.0625 11.625 1 14 C0.01 14 -0.98 14 -2 14 C-2.99 14.495 -2.99 14.495 -4 15 C-3 13 -2 11 -1 9 C-0.77532169 7.46331135 -0.59203195 5.92031946 -0.4375 4.375 C-0.35371094 3.55773437 -0.26992187 2.74046875 -0.18359375 1.8984375 C-0.12300781 1.27195312 -0.06242187 0.64546875 0 0 Z " fill="#DF7D99" transform="translate(102,90)"/>
<path d="M0 0 C3.89059081 3.27789934 3.89059081 3.27789934 4.390625 6.578125 C4.34421875 7.45984375 4.2978125 8.3415625 4.25 9.25 C4.21390625 10.14203125 4.1778125 11.0340625 4.140625 11.953125 C4.09421875 12.62859375 4.0478125 13.3040625 4 14 C3.34 13.67 2.68 13.34 2 13 C1.3671875 10.05859375 1.3671875 10.05859375 0.875 6.4375 C0.70742187 5.23996094 0.53984375 4.04242188 0.3671875 2.80859375 C0.24601562 1.88175781 0.12484375 0.95492187 0 0 Z " fill="#C8667F" transform="translate(101,84)"/>
<path d="M0 0 C0 3 0 3 -1.5 4.5625 C-1.995 5.036875 -2.49 5.51125 -3 6 C-3 6.66 -3 7.32 -3 8 C-4.32 8 -5.64 8 -7 8 C-6.44414399 4.1090079 -4.34122117 0 0 0 Z " fill="#D2839A" transform="translate(49,101)"/>
<path d="M0 0 C0.33 0.66 0.66 1.32 1 2 C-2.32307692 6.8 -2.32307692 6.8 -5.75 7.8125 C-6.4925 7.874375 -7.235 7.93625 -8 8 C-6.88333826 4.65001479 -6.25305075 4.20659778 -3.4375 2.3125 C-2.79683594 1.87550781 -2.15617187 1.43851562 -1.49609375 0.98828125 C-1.00238281 0.66214844 -0.50867188 0.33601563 0 0 Z " fill="#CD6D86" transform="translate(101,102)"/>
<path d="M0 0 C2.97 0 5.94 0 9 0 C9.66 1.32 10.32 2.64 11 4 C7.58900832 4 4.36911686 3.50854594 1 3 C0.67 2.01 0.34 1.02 0 0 Z " fill="#E489A3" transform="translate(82,81)"/>
<path d="M0 0 C0 0.66 0 1.32 0 2 C-0.99 2.495 -0.99 2.495 -2 3 C-1.01 3.66 -0.02 4.32 1 5 C-1.70879335 6.35439668 -4.00933268 6.06501451 -7 6 C-6.67 5.01 -6.34 4.02 -6 3 C-5.34 3 -4.68 3 -4 3 C-4 2.34 -4 1.68 -4 1 C-2 0 -2 0 0 0 Z " fill="#F5BECB" transform="translate(92,104)"/>
<path d="M0 0 C0.66 0 1.32 0 2 0 C2.50615298 1.26839526 3.00469099 2.53983102 3.5 3.8125 C3.91765625 4.87404297 3.91765625 4.87404297 4.34375 5.95703125 C5 8 5 8 5 11 C4.34 11 3.68 11 3 11 C0 4.5 0 4.5 0 0 Z " fill="#CA7F95" transform="translate(53,76)"/>
<path d="M0 0 C0.66 0 1.32 0 2 0 C1.67 3.63 1.34 7.26 1 11 C0.01 10.34 -0.98 9.68 -2 9 C-1.34 6.03 -0.68 3.06 0 0 Z " fill="#DA849A" transform="translate(72,82)"/>
<path d="M0 0 C0.66 0 1.32 0 2 0 C2 2.64 2 5.28 2 8 C1.01 8 0.02 8 -1 8 C-1.125 2.25 -1.125 2.25 0 0 Z " fill="#D56D89" transform="translate(93,70)"/>
<path d="M0 0 C3.71888239 0.50712033 6.73454239 1.11608215 10 3 C6.67465243 4.10844919 4.37817425 3.84454356 1 3 C0.67 2.01 0.34 1.02 0 0 Z " fill="#CB8095" transform="translate(47,109)"/>
<path d="M0 0 C0.91007812 0.10183594 1.82015625 0.20367187 2.7578125 0.30859375 C3.45648438 0.39238281 4.15515625 0.47617187 4.875 0.5625 C4.875 0.8925 4.875 1.2225 4.875 1.5625 C2.235 1.8925 -0.405 2.2225 -3.125 2.5625 C-3.455 4.2125 -3.785 5.8625 -4.125 7.5625 C-4.455 7.5625 -4.785 7.5625 -5.125 7.5625 C-5.125 5.5825 -5.125 3.6025 -5.125 1.5625 C-5.785 1.2325 -6.445 0.9025 -7.125 0.5625 C-4.50184968 -0.74907516 -2.89466564 -0.33399988 0 0 Z " fill="#DF90A8" transform="translate(63.125,56.4375)"/>
<path d="M0 0 C1.32 0 2.64 0 4 0 C4 0.99 4 1.98 4 3 C1.69 3.33 -0.62 3.66 -3 4 C-2.67 3.34 -2.34 2.68 -2 2 C-1.34 2 -0.68 2 0 2 C0 1.34 0 0.68 0 0 Z " fill="#FEEDF0" transform="translate(92,104)"/>
<path d="M0 0 C0.66 0 1.32 0 2 0 C1.45276317 3.37462715 0.9451 5.08235 -1 8 C-1.66 8 -2.32 8 -3 8 C-2.67 6.35 -2.34 4.7 -2 3 C-1.34 3 -0.68 3 0 3 C0 2.01 0 1.02 0 0 Z " fill="#D18298" transform="translate(69,69)"/>
<path d="M0 0 C2.31 0.33 4.62 0.66 7 1 C7 1.33 7 1.66 7 2 C5.35 2 3.7 2 2 2 C2 2.66 2 3.32 2 4 C2.66 4.33 3.32 4.66 4 5 C2.68 5 1.36 5 0 5 C0 3.35 0 1.7 0 0 Z " fill="#F7C7D1" transform="translate(84,62)"/>
<path d="M0 0 C2.3125 -0.3125 2.3125 -0.3125 5 0 C6.8125 2.5 6.8125 2.5 8 5 C6.68 4.67 5.36 4.34 4 4 C4 3.34 4 2.68 4 2 C2.68 2 1.36 2 0 2 C0 1.34 0 0.68 0 0 Z " fill="#CF7A91" transform="translate(63,100)"/>
<path d="M0 0 C2.5 1.375 2.5 1.375 5 3 C5 3.66 5 4.32 5 5 C3.35 5 1.7 5 0 5 C0 3.35 0 1.7 0 0 Z " fill="#E691A8" transform="translate(63,95)"/>
<path d="M0 0 C3.875 1.875 3.875 1.875 5 3 C5.04092937 5.33297433 5.04241723 7.66705225 5 10 C3.33333333 6.66666667 1.66666667 3.33333333 0 0 Z " fill="#D46884" transform="translate(92,84)"/>
<path d="M0 0 C1.32 0 2.64 0 4 0 C4.33 1.32 4.66 2.64 5 4 C2.03 3.505 2.03 3.505 -1 3 C-0.67 2.01 -0.34 1.02 0 0 Z " fill="#FCE7EF" transform="translate(90,78)"/>
<path d="M0 0 C0.66 0 1.32 0 2 0 C1.67 2.64 1.34 5.28 1 8 C0.34 8 -0.32 8 -1 8 C-1.04241723 5.66705225 -1.04092937 3.33297433 -1 1 C-0.67 0.67 -0.34 0.34 0 0 Z " fill="#DC6E88" transform="translate(75,87)"/>
</svg>
