<?xml version="1.0" encoding="UTF-8"?>
<svg version="1.1" xmlns="http://www.w3.org/2000/svg" width="156" height="156">
<path d="M0 0 C51.48 0 102.96 0 156 0 C156 51.48 156 102.96 156 156 C104.52 156 53.04 156 0 156 C0 104.52 0 53.04 0 0 Z " fill="#FEFEFE" transform="translate(0,0)"/>
<path d="M0 0 C4.47499649 2.4741168 6.77757074 5.12730313 8.20703125 10.046875 C9.05805645 14.56898929 9.24623734 18.44199691 7.60546875 22.8515625 C4.13547817 26.86373911 0.39773086 29.70370496 -4.9296875 30.58203125 C-10.04477709 30.74404766 -14.27978404 30.41758355 -18.39453125 27.1640625 C-22.32143447 21.67046732 -24.08545129 16.87730589 -22.984375 10.171875 C-22.34929273 8.01007179 -21.46400665 6.14325764 -20.39453125 4.1640625 C-19.73453125 4.1640625 -19.07453125 4.1640625 -18.39453125 4.1640625 C-18.39453125 3.5040625 -18.39453125 2.8440625 -18.39453125 2.1640625 C-17.73453125 2.1640625 -17.07453125 2.1640625 -16.39453125 2.1640625 C-16.39453125 1.5040625 -16.39453125 0.8440625 -16.39453125 0.1640625 C-11.09850706 -1.6012789 -5.31609922 -1.85586498 0 0 Z " fill="#EAFBF2" transform="translate(98.39453125,67.8359375)"/>
<path d="M0 0 C0.78153946 -0.00145523 1.56307892 -0.00291046 2.36830139 -0.00440979 C4.01827732 -0.00275272 5.668269 0.00878722 7.31811523 0.02954102 C9.83579634 0.05845753 12.35136537 0.05015484 14.86914062 0.03710938 C16.4752706 0.04334854 18.08139395 0.05174088 19.6875 0.0625 C20.81115211 0.05809654 20.81115211 0.05809654 21.95750427 0.05360413 C26.40386712 0.13332389 29.43985296 0.62406067 32.91015625 3.49609375 C33.3984375 6.6328125 33.3984375 6.6328125 33.22265625 10.18359375 C33.17753906 11.36308594 33.13242188 12.54257812 33.0859375 13.7578125 C32.99892578 15.11326172 32.99892578 15.11326172 32.91015625 16.49609375 C31.92015625 16.49609375 30.93015625 16.49609375 29.91015625 16.49609375 C29.41515625 11.05109375 29.41515625 11.05109375 28.91015625 5.49609375 C16.70015625 5.49609375 4.49015625 5.49609375 -8.08984375 5.49609375 C-8.08984375 26.28609375 -8.08984375 47.07609375 -8.08984375 68.49609375 C4.12015625 68.49609375 16.33015625 68.49609375 28.91015625 68.49609375 C29.24015625 64.86609375 29.57015625 61.23609375 29.91015625 57.49609375 C30.90015625 57.49609375 31.89015625 57.49609375 32.91015625 57.49609375 C33.0456309 59.41080219 33.14236494 61.32827856 33.22265625 63.24609375 C33.28066406 64.3134375 33.33867188 65.38078125 33.3984375 66.48046875 C32.91015625 69.49609375 32.91015625 69.49609375 30.89355469 71.65136719 C27.12477216 73.98172077 23.9862756 74.07380857 19.6875 74.02734375 C18.51375572 74.03308411 18.51375572 74.03308411 17.31629944 74.03894043 C15.66812853 74.04165352 14.01991413 74.03433452 12.37182617 74.01757812 C9.85172571 73.99612839 7.33446628 74.0174123 4.81445312 74.04296875 C3.20962914 74.04032593 1.60480692 74.03520188 0 74.02734375 C-0.75112564 74.03544067 -1.50225128 74.0435376 -2.27613831 74.05187988 C-5.54145066 73.99342358 -7.63118309 73.83733374 -10.28746033 71.86108398 C-12.63134508 68.78556494 -12.59663017 66.9833882 -12.60742188 63.13867188 C-12.62003052 61.85053589 -12.63263916 60.5623999 -12.64562988 59.23522949 C-12.63847006 57.83259534 -12.63026608 56.42996619 -12.62109375 55.02734375 C-12.6237893 53.58532449 -12.62767226 52.143307 -12.63269043 50.70129395 C-12.63858264 47.68170842 -12.63003223 44.66259677 -12.61132812 41.64306641 C-12.5885378 37.77573173 -12.6016625 33.90950739 -12.62561798 30.04221344 C-12.64008401 27.0652838 -12.63546649 24.08861669 -12.62510681 21.11167908 C-12.6224417 19.68594735 -12.62570176 18.26019165 -12.63502502 16.83448792 C-12.64520173 14.84083523 -12.62693564 12.84709879 -12.60742188 10.85351562 C-12.6042395 9.71974487 -12.60105713 8.58597412 -12.59777832 7.41784668 C-11.35279556 0.25642817 -6.28964569 -0.09406914 0 0 Z " fill="#3D3B42" transform="translate(60.08984375,45.50390625)"/>
<path d="M0 0 C4.47499649 2.4741168 6.77757074 5.12730313 8.20703125 10.046875 C9.05805645 14.56898929 9.24623734 18.44199691 7.60546875 22.8515625 C4.13547817 26.86373911 0.39773086 29.70370496 -4.9296875 30.58203125 C-10.04477709 30.74404766 -14.27978404 30.41758355 -18.39453125 27.1640625 C-22.32143447 21.67046732 -24.08545129 16.87730589 -22.984375 10.171875 C-22.34929273 8.01007179 -21.46400665 6.14325764 -20.39453125 4.1640625 C-19.73453125 4.1640625 -19.07453125 4.1640625 -18.39453125 4.1640625 C-18.39453125 3.5040625 -18.39453125 2.8440625 -18.39453125 2.1640625 C-17.73453125 2.1640625 -17.07453125 2.1640625 -16.39453125 2.1640625 C-16.39453125 1.5040625 -16.39453125 0.8440625 -16.39453125 0.1640625 C-11.09850706 -1.6012789 -5.31609922 -1.85586498 0 0 Z M-16.39453125 5.1640625 C-19.61137829 8.80982248 -19.91768197 12.32034741 -19.74609375 17.015625 C-19.03284888 21.37434368 -16.37306351 23.41728788 -13.01953125 25.9765625 C-9.78745432 27.43869254 -7.9116786 27.66651212 -4.39453125 27.1640625 C-1.1732083 25.43322343 -1.1732083 25.43322343 1.60546875 23.1640625 C2.20359375 22.7515625 2.80171875 22.3390625 3.41796875 21.9140625 C5.4266091 18.95396093 5.5986375 15.64799964 5.60546875 12.1640625 C4.85333878 8.85469063 3.83444174 7.41385121 1.54296875 4.9140625 C-4.45455572 1.3410692 -10.58117696 1.01166658 -16.39453125 5.1640625 Z " fill="#52AB7C" transform="translate(98.39453125,67.8359375)"/>
<path d="M0 0 C1.17655403 -0.00855011 1.17655403 -0.00855011 2.37687683 -0.01727295 C4.03875376 -0.0267264 5.70064947 -0.0332583 7.36254883 -0.03710938 C9.89763413 -0.04679729 12.43190254 -0.07780904 14.96679688 -0.109375 C16.58202644 -0.11590697 18.1972618 -0.12115668 19.8125 -0.125 C20.94556328 -0.1435202 20.94556328 -0.1435202 22.10151672 -0.16241455 C26.58437391 -0.14356985 29.6123012 0.29441244 33.10546875 3.203125 C33.59375 6.33984375 33.59375 6.33984375 33.41796875 9.890625 C33.37285156 11.07011719 33.32773438 12.24960937 33.28125 13.46484375 C33.19423828 14.82029297 33.19423828 14.82029297 33.10546875 16.203125 C32.11546875 16.203125 31.12546875 16.203125 30.10546875 16.203125 C29.61046875 10.758125 29.61046875 10.758125 29.10546875 5.203125 C9.30546875 4.708125 9.30546875 4.708125 -10.89453125 4.203125 C-10.56453125 3.213125 -10.23453125 2.223125 -9.89453125 1.203125 C-6.7683947 -0.35994327 -3.43292502 0.01916022 0 0 Z " fill="#33313A" transform="translate(59.89453125,45.796875)"/>
<path d="M0 0 C0.66 0.33 1.32 0.66 2 1 C1.01 1.66 0.02 2.32 -1 3 C-0.67 3.66 -0.34 4.32 0 5 C-0.639375 5.433125 -1.27875 5.86625 -1.9375 6.3125 C-4.43545072 8.35627786 -4.86009993 9.93276236 -5.2734375 13.0859375 C-5.46793336 17.469575 -5.53124236 19.33953653 -2.6875 22.875 C-1.800625 23.57625 -0.91375 24.2775 0 25 C1 26 2 27 3 28 C2.34 28 1.68 28 1 28 C1 28.66 1 29.32 1 30 C-1.1875 30 -1.1875 30 -4 29 C-8.28533375 24.23983703 -10 19.32116939 -10 13 C-9.2270452 10.16097107 -8.20623653 7.70196984 -7 5 C-6.34 5 -5.68 5 -5 5 C-5 4.34 -5 3.68 -5 3 C-4.34 3 -3.68 3 -3 3 C-3 2.34 -3 1.68 -3 1 C-2.01 0.67 -1.02 0.34 0 0 Z " fill="#53AD7D" transform="translate(85,67)"/>
<path d="M0 0 C0.99 0.66 1.98 1.32 3 2 C3.29296875 5.0390625 3.29296875 5.0390625 3.1875 8.625 C3.14689453 10.40777344 3.14689453 10.40777344 3.10546875 12.2265625 C3.07066406 13.14179687 3.03585938 14.05703125 3 15 C2.01 15 1.02 15 0 15 C-0.495 9.555 -0.495 9.555 -1 4 C-12.88 3.67 -24.76 3.34 -37 3 C-37 2.67 -37 2.34 -37 2 C-24.79 2 -12.58 2 0 2 C0 1.34 0 0.68 0 0 Z " fill="#636169" transform="translate(90,47)"/>
<path d="M0 0 C0.99 0 1.98 0 3 0 C3.08107583 1.93681161 3.13922475 3.8745934 3.1875 5.8125 C3.23970703 7.43091797 3.23970703 7.43091797 3.29296875 9.08203125 C3 12 3 12 1.97851562 13.6640625 C-1.11412575 15.75228234 -4.34954989 15.36727467 -7.94921875 15.29296875 C-8.72183548 15.28872391 -9.49445221 15.28447906 -10.29048157 15.28010559 C-12.75650992 15.26332183 -15.22171896 15.22567147 -17.6875 15.1875 C-19.36001423 15.17245271 -21.03254128 15.15876438 -22.70507812 15.14648438 C-26.80370078 15.11341946 -30.90171151 15.06164028 -35 15 C-35 14.67 -35 14.34 -35 14 C-24.11 14 -13.22 14 -2 14 C-0.99740493 10.99221479 -0.69685358 8.46179353 -0.4375 5.3125 C-0.35371094 4.31863281 -0.26992187 3.32476562 -0.18359375 2.30078125 C-0.09271484 1.16189453 -0.09271484 1.16189453 0 0 Z " fill="#252429" transform="translate(90,103)"/>
<path d="M0 0 C0.99 0 1.98 0 3 0 C3 1.65 3 3.3 3 5 C4.32 5 5.64 5 7 5 C7 5.99 7 6.98 7 8 C5.68 8 4.36 8 3 8 C2.67 9.65 2.34 11.3 2 13 C1.01 12.67 0.02 12.34 -1 12 C-1 10.68 -1 9.36 -1 8 C-2.32 8 -3.64 8 -5 8 C-5 7.01 -5 6.02 -5 5 C-3.35 5 -1.7 5 0 5 C0 3.35 0 1.7 0 0 Z " fill="#4EA879" transform="translate(90,76)"/>
<path d="M0 0 C0.33 0.99 0.66 1.98 1 3 C-3.4034502 6.59228832 -5.439611 8.1353896 -11.125 8.0625 C-12.03507812 8.05347656 -12.94515625 8.04445313 -13.8828125 8.03515625 C-14.58148438 8.02355469 -15.28015625 8.01195313 -16 8 C-16 7.01 -16 6.02 -16 5 C-15.33613281 4.87882812 -14.67226562 4.75765625 -13.98828125 4.6328125 C-6.43481328 3.59690169 -6.43481328 3.59690169 0 0 Z " fill="#3FA770" transform="translate(102,90)"/>
<path d="M0 0 C4.29 0 8.58 0 13 0 C12.67 1.32 12.34 2.64 12 4 C8.37 4 4.74 4 1 4 C0.67 2.68 0.34 1.36 0 0 Z " fill="#55545A" transform="translate(64,108)"/>
<path d="M0 0 C1.14275391 0.04253906 1.14275391 0.04253906 2.30859375 0.0859375 C3.45521484 0.10527344 3.45521484 0.10527344 4.625 0.125 C6.74609375 0.4609375 6.74609375 0.4609375 9.74609375 2.4609375 C9.41609375 3.1209375 9.08609375 3.7809375 8.74609375 4.4609375 C3.79609375 4.4609375 -1.15390625 4.4609375 -6.25390625 4.4609375 C-2.25390625 0.4609375 -2.25390625 0.4609375 0 0 Z " fill="#37A66B" transform="translate(89.25390625,66.5390625)"/>
<path d="M0 0 C0.99 0 1.98 0 3 0 C3 3.96 3 7.92 3 12 C2.01 11.67 1.02 11.34 0 11 C0 7.37 0 3.74 0 0 Z " fill="#35333A" transform="translate(90,103)"/>
<path d="M0 0 C3.96 0.33 7.92 0.66 12 1 C12 1.66 12 2.32 12 3 C11.34 3 10.68 3 10 3 C9.67 3.66 9.34 4.32 9 5 C9 4.34 9 3.68 9 3 C6.03 2.67 3.06 2.34 0 2 C0 1.34 0 0.68 0 0 Z " fill="#D7F5E3" transform="translate(84,97)"/>
<path d="M0 0 C0.625 1.875 0.625 1.875 1 4 C-1 6 -1 6 -3.3828125 6.1953125 C-4.28773437 6.17210938 -5.19265625 6.14890625 -6.125 6.125 C-7.49011719 6.09792969 -7.49011719 6.09792969 -8.8828125 6.0703125 C-9.58148438 6.04710938 -10.28015625 6.02390625 -11 6 C-11 5.67 -11 5.34 -11 5 C-8.36 5 -5.72 5 -3 5 C-2.67 4.01 -2.34 3.02 -2 2 C-1.34 2 -0.68 2 0 2 C0 1.34 0 0.68 0 0 Z " fill="#2C2B30" transform="translate(91,112)"/>
<path d="M0 0 C1.94268841 2.91403262 3.46395304 5.85808576 5 9 C3.35 9.33 1.7 9.66 0 10 C0 6.7 0 3.4 0 0 Z " fill="#CAEFDB" transform="translate(75,85)"/>
</svg>
