<?xml version="1.0" encoding="UTF-8"?>
<svg version="1.1" xmlns="http://www.w3.org/2000/svg" width="156" height="156">
<path d="M0 0 C51.48 0 102.96 0 156 0 C156 51.48 156 102.96 156 156 C104.52 156 53.04 156 0 156 C0 104.52 0 53.04 0 0 Z " fill="#FDFEFD" transform="translate(0,0)"/>
<path d="M0 0 C0.70125 -0.01675781 1.4025 -0.03351562 2.125 -0.05078125 C3.053125 0.12904297 3.053125 0.12904297 4 0.3125 C4.66 1.3025 5.32 2.2925 6 3.3125 C9 3.72916667 9 3.72916667 12 3.3125 C12.66 2.6525 13.32 1.9925 14 1.3125 C16.83386167 0.9491844 18.40522151 0.9556329 20.875 2.4375 C22 4.3125 22 4.3125 22.0625 7.0625 C20.81849741 10.8676844 18.9833044 12.75182105 16.30078125 15.6328125 C14.74264064 17.35149609 14.74264064 17.35149609 14.625 20.25 C14.74875 20.930625 14.8725 21.61125 15 22.3125 C14.34 22.3125 13.68 22.3125 13 22.3125 C15.31 25.6125 17.62 28.9125 20 32.3125 C20.7425 31.6525 21.485 30.9925 22.25 30.3125 C27.0468079 27.1411507 32.49375218 27.47537713 38 28.3125 C42.13752543 29.92263749 44.98085352 32.22965687 48 35.4375 C49.86791297 40.80774978 49.7940501 46.93034969 48 52.3125 C47.34 52.3125 46.68 52.3125 46 52.3125 C46 52.9725 46 53.6325 46 54.3125 C44.03852126 55.70188077 42.03833424 57.0385411 40 58.3125 C41.65 58.9725 43.3 59.6325 45 60.3125 C45 61.3025 45 62.2925 45 63.3125 C37.74 63.3125 30.48 63.3125 23 63.3125 C23 64.3025 23 65.2925 23 66.3125 C28.61 66.3125 34.22 66.3125 40 66.3125 C40.33 68.2925 40.66 70.2725 41 72.3125 C40.34 71.6525 39.68 70.9925 39 70.3125 C36.87139338 69.94297951 36.87139338 69.94297951 34.4296875 69.8984375 C33.53378906 69.85976562 32.63789062 69.82109375 31.71484375 69.78125 C30.77769531 69.7503125 29.84054688 69.719375 28.875 69.6875 C27.93011719 69.64882812 26.98523438 69.61015625 26.01171875 69.5703125 C23.67467625 69.47588654 21.33764499 69.39031606 19 69.3125 C19 70.3025 19 71.2925 19 72.3125 C19.56509277 72.30202637 20.13018555 72.29155273 20.71240234 72.28076172 C23.26655653 72.23925212 25.82063982 72.2131904 28.375 72.1875 C29.70917969 72.16236328 29.70917969 72.16236328 31.0703125 72.13671875 C31.92109375 72.13027344 32.771875 72.12382813 33.6484375 72.1171875 C34.43395996 72.10671387 35.21948242 72.09624023 36.02880859 72.08544922 C38 72.3125 38 72.3125 40 74.3125 C36.69005287 75.96747356 33.00877 75.41334335 29.375 75.375 C28.57320312 75.37048828 27.77140625 75.36597656 26.9453125 75.36132812 C24.96350994 75.34953168 22.98174567 75.33159605 21 75.3125 C21 76.3025 21 77.2925 21 78.3125 C28.26 78.3125 35.52 78.3125 43 78.3125 C42.505 79.7975 42.505 79.7975 42 81.3125 C34.17128767 81.38876941 26.34267173 81.44119218 18.51367188 81.47729492 C15.85203577 81.49065167 13.19088714 81.51279814 10.52929688 81.53881836 C6.69655248 81.57534115 2.8641371 81.59225892 -0.96875 81.60546875 C-2.15239136 81.62095261 -3.33603271 81.63643646 -4.55554199 81.65238953 C-11.5305296 81.65379997 -18.44196017 81.63635886 -23.83984375 76.59375 C-24.20207031 76.0059375 -24.56429687 75.418125 -24.9375 74.8125 C-25.31777344 74.2246875 -25.69804688 73.636875 -26.08984375 73.03125 C-29.58111315 66.4382949 -28.92313503 55.21918962 -27.3125 48.0625 C-23.9676757 38.50585915 -20.19400369 30.38076994 -14 22.3125 C-14.66 22.3125 -15.32 22.3125 -16 22.3125 C-16.061875 21.301875 -16.12375 20.29125 -16.1875 19.25 C-16.61409991 16.0505007 -17.5879754 14.22537766 -19.5625 11.6875 C-21.36989965 9.36295421 -21.97174654 8.49412936 -22.4375 5.5 C-22 3.3125 -22 3.3125 -20 1.3125 C-16.875 1.1875 -16.875 1.1875 -14 1.3125 C-13.67 2.3025 -13.34 3.2925 -13 4.3125 C-8.23326418 3.0766796 -4.70705502 0.02595802 0 0 Z " fill="#4F4C55" transform="translate(74,43.6875)"/>
<path d="M0 0 C3.29432257 0.90548088 4.90626949 2.93182527 6.97631836 5.54321289 C7.49838867 6.16583008 8.02045898 6.78844727 8.55834961 7.42993164 C12.28566702 12.8848311 12.34500038 17.08569139 11.97631836 23.54321289 C12.30372156 28.45426091 14.37866508 30.28819326 17.97631836 33.54321289 C18.97631836 34.54321289 19.97631836 35.54321289 20.97631836 36.54321289 C20.19256836 36.77008789 19.40881836 36.99696289 18.60131836 37.23071289 C15.28869728 38.88702343 15.23617479 40.18359575 13.97631836 43.54321289 C11.85131836 44.85571289 11.85131836 44.85571289 9.97631836 45.54321289 C10.47131836 49.50321289 10.47131836 49.50321289 10.97631836 53.54321289 C5.09877387 56.09999567 -0.67248624 55.8747811 -6.96118164 55.85571289 C-8.02014648 55.87182617 -9.07911133 55.88793945 -10.17016602 55.90454102 C-16.22121651 55.90831584 -20.73718188 55.58954946 -26.02368164 52.54321289 C-32.07567964 44.89858383 -31.47603921 37.20717239 -30.4387207 27.97973633 C-29.41275001 21.95668484 -26.85656828 16.57606907 -23.94702148 11.24975586 C-23.11593327 9.71371498 -22.37053513 8.13204847 -21.63696289 6.54711914 C-17.04141607 -1.5234165 -8.38932156 -0.99556381 0 0 Z " fill="#F9F9FA" transform="translate(80.023681640625,66.456787109375)"/>
<path d="M0 0 C0.33 0 0.66 0 1 0 C1.02578125 1.0621875 1.0515625 2.124375 1.078125 3.21875 C1.31057469 14.26059174 1.31057469 14.26059174 6 24 C12.20136323 27.60700074 18.0227961 27.38710927 25.0625 27.25 C26.12533203 27.24484375 27.18816406 27.2396875 28.28320312 27.234375 C33.28362909 27.18440197 38.08976838 27.05523175 43 26 C42.4740625 25.1646875 42.4740625 25.1646875 41.9375 24.3125 C40.78154007 21.46113217 41.19032562 19.91482778 42 17 C43.32 16.67 44.64 16.34 46 16 C46.144375 15.195625 46.28875 14.39125 46.4375 13.5625 C47 11 47 11 48 10 C49.70772358 9.91286169 51.41898649 9.89299993 53.12890625 9.90234375 C54.68061523 9.90717773 54.68061523 9.90717773 56.26367188 9.91210938 C57.35228516 9.92048828 58.44089844 9.92886719 59.5625 9.9375 C61.2012207 9.94426758 61.2012207 9.94426758 62.87304688 9.95117188 C65.58208495 9.96300174 68.29101599 9.97948457 71 10 C71 10.99 71 11.98 71 13 C63.74 13 56.48 13 49 13 C49 13.99 49 14.98 49 16 C54.61 16 60.22 16 66 16 C66.495 18.97 66.495 18.97 67 22 C66.01 21.01 66.01 21.01 65 20 C62.87139338 19.63047951 62.87139338 19.63047951 60.4296875 19.5859375 C59.53378906 19.54726562 58.63789062 19.50859375 57.71484375 19.46875 C56.77769531 19.4378125 55.84054688 19.406875 54.875 19.375 C53.93011719 19.33632812 52.98523438 19.29765625 52.01171875 19.2578125 C49.67467625 19.16338654 47.33764499 19.07781606 45 19 C45 19.99 45 20.98 45 22 C45.84763916 21.98428955 45.84763916 21.98428955 46.71240234 21.96826172 C49.26655653 21.92675212 51.82063982 21.9006904 54.375 21.875 C55.26445313 21.85824219 56.15390625 21.84148437 57.0703125 21.82421875 C57.92109375 21.81777344 58.771875 21.81132813 59.6484375 21.8046875 C60.82672119 21.78897705 60.82672119 21.78897705 62.02880859 21.77294922 C64 22 64 22 66 24 C62.69005287 25.65497356 59.00877 25.10084335 55.375 25.0625 C54.57320312 25.05798828 53.77140625 25.05347656 52.9453125 25.04882812 C50.96350994 25.03703168 48.98174567 25.01909605 47 25 C47 25.99 47 26.98 47 28 C54.26 28 61.52 28 69 28 C68.505 29.485 68.505 29.485 68 31 C60.17128767 31.07626941 52.34267173 31.12869218 44.51367188 31.16479492 C41.85203577 31.17815167 39.19088714 31.20029814 36.52929688 31.22631836 C32.69655248 31.26284115 28.8641371 31.27975892 25.03125 31.29296875 C23.84760864 31.30845261 22.66396729 31.32393646 21.44445801 31.33988953 C14.4694704 31.34129997 7.55803983 31.32385886 2.16015625 26.28125 C1.79792969 25.6934375 1.43570313 25.105625 1.0625 24.5 C0.68222656 23.9121875 0.30195312 23.324375 -0.08984375 22.71875 C-2.29983314 18.54537948 -2.18343947 14.52996124 -2.1875 9.9375 C-2.19974609 9.20466797 -2.21199219 8.47183594 -2.22460938 7.71679688 C-2.22986299 5.80973493 -2.12218272 3.90315114 -2 2 C-1.34 1.34 -0.68 0.68 0 0 Z " fill="#3B3842" transform="translate(48,94)"/>
<path d="M0 0 C4.44075611 -0.80169402 8.73845102 -0.48314642 12.9375 1.125 C16.17186816 4.06533469 17.8660711 6.76653868 18.1328125 11.21484375 C17.89326091 15.44927046 17.36166124 17.54059248 14.6875 20.9375 C10.90561226 23.83987896 8.39641771 25.39827205 3.5625 24.9375 C-1.00792042 24.3125496 -3.16507209 22.72084288 -6 19 C-7.2376419 15.2870743 -7.69345932 11.85171425 -7 8 C-4.625 5.1875 -4.625 5.1875 -2 3 C-1.34 2.01 -0.68 1.02 0 0 Z " fill="#F4FCF8" transform="translate(102,75)"/>
<path d="M0 0 C1.9375 0.9375 1.9375 0.9375 3.75 2.5 C6.90998676 4.57656273 9.24202393 4.34064284 12.9375 3.9375 C14.75226003 2.54164215 14.75226003 2.54164215 15.9375 0.9375 C16.5975 0.9375 17.2575 0.9375 17.9375 0.9375 C17.31144031 4.66777231 15.63048393 7.08268417 13.4375 10.125 C12.8084375 11.00542969 12.179375 11.88585938 11.53125 12.79296875 C9.23058669 15.88871423 9.23058669 15.88871423 7.20678711 16.22558594 C-7.94097864 17.55181959 -7.94097864 17.55181959 -13.1015625 13.625 C-16.29137128 9.26366144 -18.0625 6.408273 -18.0625 0.9375 C-17.546875 1.246875 -17.03125 1.55625 -16.5 1.875 C-13.2518526 3.29085912 -10.61057187 3.81300625 -7.0625 3.9375 C-1.70217243 -0.05158098 -1.70217243 -0.05158098 0 0 Z " fill="#F7F7F7" transform="translate(74.0625,47.0625)"/>
<path d="M0 0 C4.14082877 1.59060407 6.98493576 3.92149424 10 7.125 C11.86791297 12.49524978 11.7940501 18.61784969 10 24 C9.34 24 8.68 24 8 24 C8 24.66 8 25.32 8 26 C6.03852126 27.38938077 4.03833424 28.7260411 2 30 C2.99 30.66 3.98 31.32 5 32 C-1.6 32 -8.2 32 -15 32 C-14.34 31.34 -13.68 30.68 -13 30 C-15.21928194 27.09197539 -16.92969143 25.04687238 -20 23 C-21.61720243 16.55289771 -21.35828026 10.1764483 -19 4 C-17.0625 2.625 -17.0625 2.625 -15 2 C-10.29914275 -1.13390483 -5.49837363 -0.68207673 0 0 Z M-15 8 C-17.49472634 11.74208951 -17.38142871 14.67714129 -17 19 C-16.19117421 22.95425941 -15.18084364 23.85975391 -11.9375 26.375 C-8.21779714 28.27756201 -5.16371964 28.36112781 -1.08203125 27.6796875 C2.98672711 26.35142492 4.99968917 23.47664932 7.3125 20.0625 C8.4837018 16.54889461 8.65264424 13.61142574 7.2421875 10.12890625 C5.32151453 6.49172634 3.82220742 4.4531275 0 3 C-6.64486118 1.97355803 -10.78533892 2.33654917 -15 8 Z " fill="#50A076" transform="translate(112,72)"/>
<path d="M0 0 C0.66 0.33 1.32 0.66 2 1 C1.67 2.98 1.34 4.96 1 7 C-0.32 7.33 -1.64 7.66 -3 8 C-3 9.32 -3 10.64 -3 12 C-2.34 12 -1.68 12 -1 12 C-1 13.98 -1 15.96 -1 18 C-12.385 17.505 -12.385 17.505 -24 17 C-24 16.01 -24 15.02 -24 14 C-15.585 13.505 -15.585 13.505 -7 13 C-7 12.67 -7 12.34 -7 12 C-13.27 11.67 -19.54 11.34 -26 11 C-26 10.01 -26 9.02 -26 8 C-19.4 8 -12.8 8 -6 8 C-6 7.34 -6 6.68 -6 6 C-11.28 5.67 -16.56 5.34 -22 5 C-22 4.01 -22 3.02 -22 2 C-14.74 2 -7.48 2 0 2 C0 1.34 0 0.68 0 0 Z " fill="#433F49" transform="translate(119,105)"/>
<path d="M0 0 C3.95790816 4.91326531 3.95790816 4.91326531 5.03125 7.125 C8.3135372 10.25098781 12.3235916 9.67976885 16.6875 9.75 C17.58017578 9.77964844 18.47285156 9.80929688 19.39257812 9.83984375 C21.59514277 9.91051427 23.79665131 9.96321939 26 10 C26 10.33 26 10.66 26 11 C21.05 11.33 16.1 11.66 11 12 C15.95 12.33 20.9 12.66 26 13 C25.67 13.66 25.34 14.32 25 15 C19.06 14.67 13.12 14.34 7 14 C6.34 15.32 5.68 16.64 5 18 C4.07659555 19.34313374 3.13796112 20.67587475 2.1875 22 C-3.41838257 30.36760413 -6.75397307 38.89052959 -7 49 C-7.33 49 -7.66 49 -8 49 C-8.33 46.69 -8.66 44.38 -9 42 C-9.33 42 -9.66 42 -10 42 C-9.24615765 30.94364552 -3.60942901 21.60940033 3 13 C2.34 13 1.68 13 1 13 C0.855625 11.906875 0.71125 10.81375 0.5625 9.6875 C0.11711896 6.06877013 0.11711896 6.06877013 -1 3 C-0.67 2.01 -0.34 1.02 0 0 Z " fill="#454249" transform="translate(57,53)"/>
<path d="M0 0 C3.22290201 0.0289309 5.44294723 0.35779815 8.1875 2.1875 C8.25669031 4.67835104 8.28341102 6.83582626 7.625 9.25 C7.10707523 11.54366685 7.4758622 12.97351575 8.1875 15.1875 C6.8675 15.1875 5.5475 15.1875 4.1875 15.1875 C3.8575 13.5375 3.5275 11.8875 3.1875 10.1875 C1.8675 10.1875 0.5475 10.1875 -0.8125 10.1875 C-0.8125 11.8375 -0.8125 13.4875 -0.8125 15.1875 C-2.1325 15.1875 -3.4525 15.1875 -4.8125 15.1875 C-4.83935412 12.87506208 -4.85882841 10.5625373 -4.875 8.25 C-4.88660156 6.96222656 -4.89820313 5.67445312 -4.91015625 4.34765625 C-4.76848867 -0.23670677 -4.71790992 0.23202836 0 0 Z " fill="#55535A" transform="translate(63.8125,88.8125)"/>
<path d="M0 0 C3.4585388 -0.05375967 6.91624908 -0.09355681 10.375 -0.125 C11.35984375 -0.14175781 12.3446875 -0.15851563 13.359375 -0.17578125 C14.77089844 -0.18544922 14.77089844 -0.18544922 16.2109375 -0.1953125 C17.51490479 -0.21102295 17.51490479 -0.21102295 18.84521484 -0.22705078 C21 0 21 0 23 2 C19.69005287 3.65497356 16.00877 3.10084335 12.375 3.0625 C11.57320312 3.05798828 10.77140625 3.05347656 9.9453125 3.04882812 C7.96350994 3.03703168 5.98174567 3.01909605 4 3 C4 3.99 4 4.98 4 6 C11.26 6 18.52 6 26 6 C25.67 6.99 25.34 7.98 25 9 C17.41 9 9.82 9 2 9 C1.34 6.03 0.68 3.06 0 0 Z " fill="#312D39" transform="translate(91,116)"/>
<path d="M0 0 C2 2 2 2 2 5 C1.01 5 0.02 5 -1 5 C-1 4.34 -1 3.68 -1 3 C-2.65 3 -4.3 3 -6 3 C-6 3.99 -6 4.98 -6 6 C-4.88625 6.12375 -3.7725 6.2475 -2.625 6.375 C1 7 1 7 3 9 C2.8125 11.5 2.8125 11.5 2 14 C-1.46923881 16.31282587 -2.92205575 16.42478586 -7 16 C-8.875 14.5 -8.875 14.5 -10 13 C-6.52176885 11.84058962 -4.54104422 12.29179116 -1 13 C-1 12.01 -1 11.02 -1 10 C-1.928125 9.87625 -2.85625 9.7525 -3.8125 9.625 C-7 9 -7 9 -10 7 C-9.6875 4.625 -9.6875 4.625 -9 2 C-5.54754176 -0.30163882 -4.05261287 -0.34490322 0 0 Z " fill="#4A474F" transform="translate(84,89)"/>
<path d="M0 0 C-0.33 0.66 -0.66 1.32 -1 2 C0.32 1.67 1.64 1.34 3 1 C2.3503125 1.61875 2.3503125 1.61875 1.6875 2.25 C-1.33747369 5.38700975 -3.428947 7.6261196 -3.4375 12.125 C-3.293125 13.40375 -3.14875 14.6825 -3 16 C-2.9175 16.94875 -2.835 17.8975 -2.75 18.875 C-2.19418495 21.14785979 -2.19418495 21.14785979 -0.125 22.1875 C0.57625 22.455625 1.2775 22.72375 2 23 C2.99 23.66 3.98 24.32 5 25 C3.35 25.66 1.7 26.32 0 27 C-0.598125 26.21625 -1.19625 25.4325 -1.8125 24.625 C-3.91085249 21.85425677 -3.91085249 21.85425677 -7 20 C-8.61720243 13.55289771 -8.35828026 7.1764483 -6 1 C-3.53057799 -0.92923595 -2.84161017 -1.42080509 0 0 Z " fill="#50B27C" transform="translate(99,75)"/>
<path d="M0 0 C7.17128782 -0.53784659 12.46983296 -0.60663634 18.4765625 3.61328125 C20.89048293 5.81056779 21.9588905 7.43186675 22.1953125 10.69921875 C22.17210938 11.68535156 22.14890625 12.67148438 22.125 13.6875 C22.10695313 14.68136719 22.08890625 15.67523438 22.0703125 16.69921875 C22.04710938 17.45847656 22.02390625 18.21773437 22 19 C21.67 19 21.34 19 21 19 C20.731875 17.96875 20.46375 16.9375 20.1875 15.875 C18.47512803 9.52047126 18.47512803 9.52047126 14.2109375 4.84375 C11.65872667 3.86976142 9.72517033 3.76680355 7 3.8125 C6.154375 3.81894531 5.30875 3.82539062 4.4375 3.83203125 C2.16747523 3.98845924 0.18038396 4.36910186 -2 5 C-1.34 3.35 -0.68 1.7 0 0 Z " fill="#3FAA6F" transform="translate(100,72)"/>
<path d="M0 0 C0 3 0 3 -2 6 C-1.2575 6.226875 -0.515 6.45375 0.25 6.6875 C3.63546867 8.30329186 5.04210415 9.80935492 7 13 C7.25 16.3125 7.25 16.3125 7 19 C6.34 19 5.68 19 5 19 C3.5625 17.20703125 3.5625 17.20703125 2 14.8125 C1.484375 14.03519531 0.96875 13.25789063 0.4375 12.45703125 C-1 10 -1 10 -3 5 C-7.95 5 -12.9 5 -18 5 C-18.33 4.34 -18.66 3.68 -19 3 C-17.31970703 2.92652344 -17.31970703 2.92652344 -15.60546875 2.8515625 C-14.13278797 2.77652144 -12.66013293 2.70097418 -11.1875 2.625 C-10.44951172 2.5940625 -9.71152344 2.563125 -8.95117188 2.53125 C-5.18106885 2.32653852 -3.20349259 2.13566173 0 0 Z " fill="#302B37" transform="translate(86,61)"/>
<path d="M0 0 C3.95790816 4.91326531 3.95790816 4.91326531 5.03125 7.125 C8.3135372 10.25098781 12.3235916 9.67976885 16.6875 9.75 C17.58017578 9.77964844 18.47285156 9.80929688 19.39257812 9.83984375 C21.59514277 9.91051427 23.79665131 9.96321939 26 10 C26 10.33 26 10.66 26 11 C21.05 11.33 16.1 11.66 11 12 C15.95 12.33 20.9 12.66 26 13 C25.67 13.66 25.34 14.32 25 15 C19.39 14.67 13.78 14.34 8 14 C8 13.34 8 12.68 8 12 C6.35 11.67 4.7 11.34 3 11 C3 10.01 3 9.02 3 8 C2.34 8 1.68 8 1 8 C-1.125 3.375 -1.125 3.375 0 0 Z " fill="#5C5A62" transform="translate(57,53)"/>
<path d="M0 0 C1.60488281 0.00483398 1.60488281 0.00483398 3.2421875 0.00976562 C4.35335937 0.01814453 5.46453125 0.02652344 6.609375 0.03515625 C8.29933594 0.04192383 8.29933594 0.04192383 10.0234375 0.04882812 C12.80213717 0.06060228 15.58072909 0.07704785 18.359375 0.09765625 C17.21948242 1.5793457 17.21948242 1.5793457 15.359375 3.09765625 C12.72387695 3.43823242 12.72387695 3.43823242 9.59765625 3.390625 C8.47939453 3.38095703 7.36113281 3.37128906 6.20898438 3.36132812 C5.04173828 3.33619141 3.87449219 3.31105469 2.671875 3.28515625 C1.49302734 3.27162109 0.31417969 3.25808594 -0.90039062 3.24414062 C-3.81425911 3.20874951 -6.72721445 3.15937434 -9.640625 3.09765625 C-9.640625 2.43765625 -9.640625 1.77765625 -9.640625 1.09765625 C-6.36436125 0.11545685 -3.41274381 -0.01815289 0 0 Z " fill="#312E38" transform="translate(69.640625,121.90234375)"/>
<path d="M0 0 C0.94875 0.04125 1.8975 0.0825 2.875 0.125 C3.205 1.115 3.535 2.105 3.875 3.125 C7.34 2.63 7.34 2.63 10.875 2.125 C10.875 2.785 10.875 3.445 10.875 4.125 C2.58552632 5.59868421 2.58552632 5.59868421 -1.125 3.125 C-0.795 5.765 -0.465 8.405 -0.125 11.125 C-0.785 11.125 -1.445 11.125 -2.125 11.125 C-4.26070963 8.90714769 -5.07061394 7.58184293 -5.4375 4.5 C-4.9321592 0.65940994 -3.78058009 0.1512232 0 0 Z " fill="#514E58" transform="translate(57.125,44.875)"/>
<path d="M0 0 C1.051875 0.928125 1.051875 0.928125 2.125 1.875 C5.05777181 4.0427009 7.51182406 5.02655555 11 6 C11 6.99 11 7.98 11 9 C8.36 9 5.72 9 3 9 C2.67 9.66 2.34 10.32 2 11 C-0.0625 9.25 -0.0625 9.25 -2 7 C-1.8125 4.9375 -1.8125 4.9375 -1 3 C-0.67 2.01 -0.34 1.02 0 0 Z " fill="#EEEBEF" transform="translate(72,93)"/>
<path d="M0 0 C2.64 0 5.28 0 8 0 C6.68 0.33 5.36 0.66 4 1 C4 5.29 4 9.58 4 14 C2.68 14 1.36 14 0 14 C0 9.38 0 4.76 0 0 Z " fill="#36333D" transform="translate(59,90)"/>
<path d="M0 0 C6.6 0 13.2 0 20 0 C20 0.99 20 1.98 20 3 C13.4 3 6.8 3 0 3 C0 2.01 0 1.02 0 0 Z " fill="#EAE8ED" transform="translate(95,119)"/>
<path d="M0 0 C6.6 0 13.2 0 20 0 C20 0.99 20 1.98 20 3 C13.4 3 6.8 3 0 3 C0 2.01 0 1.02 0 0 Z " fill="#DEDCE2" transform="translate(97,107)"/>
<path d="M0 0 C6.27 0 12.54 0 19 0 C19 0.99 19 1.98 19 3 C12.73 3 6.46 3 0 3 C0 2.01 0 1.02 0 0 Z " fill="#E8E6EB" transform="translate(93,113)"/>
<path d="M0 0 C6.27 0.33 12.54 0.66 19 1 C19.33 2.98 19.66 4.96 20 7 C19.34 6.34 18.68 5.68 18 5 C14.57732254 4.7418239 11.196039 4.63336391 7.765625 4.609375 C5.625 4.5390625 5.625 4.5390625 2 4 C1.34 2.68 0.68 1.36 0 0 Z " fill="#302A39" transform="translate(95,109)"/>
<path d="M0 0 C0.515625 0.763125 1.03125 1.52625 1.5625 2.3125 C4.44604845 5.49179701 7.02632887 6.48278012 11 8 C11.99 8.66 12.98 9.32 14 10 C6.83815029 11.33526012 6.83815029 11.33526012 3.1875 9.875 C0.77560599 7.80766228 -0.5550679 5.81381513 -2 3 C-1.34 2.01 -0.68 1.02 0 0 Z " fill="#43404A" transform="translate(50,113)"/>
<path d="M0 0 C0.33 0.66 0.66 1.32 1 2 C1.66 2 2.32 2 3 2 C2.814375 2.515625 2.62875 3.03125 2.4375 3.5625 C1.84580483 6.85908739 2.432733 9.72245735 3 13 C0.36 13.33 -2.28 13.66 -5 14 C-4.34 13.34 -3.68 12.68 -3 12 C-3.66 11.34 -4.32 10.68 -5 10 C-3.02 9.67 -1.04 9.34 1 9 C0.649375 8.443125 0.29875 7.88625 -0.0625 7.3125 C-1.21845993 4.46113217 -0.80967438 2.91482778 0 0 Z " fill="#514E57" transform="translate(90,111)"/>
<path d="M0 0 C6.93 0 13.86 0 21 0 C21 0.99 21 1.98 21 3 C14.07 2.67 7.14 2.34 0 2 C0 1.34 0 0.68 0 0 Z " fill="#302C37" transform="translate(98,104)"/>
<path d="M0 0 C0.33 0.66 0.66 1.32 1 2 C0.54625 2.825 0.0925 3.65 -0.375 4.5 C-2.45758022 8.9855574 -2.71981162 13.11119581 -3 18 C-3.33 18 -3.66 18 -4 18 C-4.33 15.69 -4.66 13.38 -5 11 C-5.33 11 -5.66 11 -6 11 C-5.25 4.375 -5.25 4.375 -3 1 C-3 1.66 -3 2.32 -3 3 C-2.34 3 -1.68 3 -1 3 C-0.67 2.01 -0.34 1.02 0 0 Z " fill="#58565D" transform="translate(53,84)"/>
<path d="M0 0 C0.33 0 0.66 0 1 0 C1.02705729 1.77074917 1.04642195 3.54161711 1.0625 5.3125 C1.07410156 6.29863281 1.08570312 7.28476563 1.09765625 8.30078125 C1 11 1 11 0 14 C-0.66 14 -1.32 14 -2 14 C-2.33 14.66 -2.66 15.32 -3 16 C-4.47066513 13.66078989 -5.08971187 12.51763751 -4.609375 9.74609375 C-4.32578125 8.98425781 -4.0421875 8.22242187 -3.75 7.4375 C-3.34007813 6.29087891 -3.34007813 6.29087891 -2.921875 5.12109375 C-2 3 -2 3 0 0 Z " fill="#59B382" transform="translate(122,82)"/>
<path d="M0 0 C2.25 -0.3125 2.25 -0.3125 5 0 C7.99540173 2.75253132 8.94165078 4.22687285 9.25 8.3125 C9.1675 9.199375 9.085 10.08625 9 11 C8.34 11 7.68 11 7 11 C5.52734375 9.1015625 5.52734375 9.1015625 3.9375 6.625 C3.41027344 5.81289062 2.88304688 5.00078125 2.33984375 4.1640625 C1 2 1 2 0 0 Z " fill="#48424B" transform="translate(84,69)"/>
<path d="M0 0 C0.66 0.33 1.32 0.66 2 1 C1.67 1.66 1.34 2.32 1 3 C2.32 2.67 3.64 2.34 5 2 C3.02 4.31 1.04 6.62 -1 9 C-1.66 8.34 -2.32 7.68 -3 7 C-2.67028521 3.70285207 -2.3773161 2.3773161 0 0 Z " fill="#62BE8D" transform="translate(97,74)"/>
<path d="M0 0 C0.33 0 0.66 0 1 0 C1.33 2.97 1.66 5.94 2 9 C2.66 9 3.32 9 4 9 C4 10.65 4 12.3 4 14 C2.68 14 1.36 14 0 14 C0 9.38 0 4.76 0 0 Z " fill="#6A676F" transform="translate(59,90)"/>
<path d="M0 0 C0.33 0.99 0.66 1.98 1 3 C2.65 3.33 4.3 3.66 6 4 C5.1875 6.4375 5.1875 6.4375 4 9 C3.01 9.33 2.02 9.66 1 10 C1.33 8.35 1.66 6.7 2 5 C1.01 5 0.02 5 -1 5 C-0.67 3.35 -0.34 1.7 0 0 Z " fill="#3D3A43" transform="translate(59,61)"/>
<path d="M0 0 C3 1 3 1 4 3 C5.89533342 3.46523063 5.89533342 3.46523063 8.0625 3.625 C9.361875 3.74875 10.66125 3.8725 12 4 C11.67 4.66 11.34 5.32 11 6 C3.5577342 6.36601307 3.5577342 6.36601307 1 4.6875 C0 3 0 3 0 0 Z " fill="#35333D" transform="translate(75,45)"/>
<path d="M0 0 C1.8680592 2.12455438 2.95128078 3.38889153 3.1796875 6.25390625 C3.07914062 7.01574219 2.97859375 7.77757813 2.875 8.5625 C2.78992188 9.32691406 2.70484375 10.09132813 2.6171875 10.87890625 C1.90259466 13.3347538 0.93009067 14.36724762 -1 16 C-0.83628906 15.29488281 -0.67257813 14.58976562 -0.50390625 13.86328125 C0.01699824 10.90341312 0.09866732 8.18938727 0.0625 5.1875 C0.05347656 4.21167969 0.04445313 3.23585938 0.03515625 2.23046875 C0.02355469 1.49441406 0.01195313 0.75835937 0 0 Z " fill="#D0F6E2" transform="translate(117,80)"/>
<path d="M0 0 C0.33 0.66 0.66 1.32 1 2 C1.66 2.33 2.32 2.66 3 3 C3 4.65 3 6.3 3 8 C2.34 8 1.68 8 1 8 C0.67 8.66 0.34 9.32 0 10 C-0.66 9.67 -1.32 9.34 -2 9 C-1.67 7.68 -1.34 6.36 -1 5 C-1.66 4.67 -2.32 4.34 -3 4 C-2.01 2.68 -1.02 1.36 0 0 Z " fill="#484450" transform="translate(86,58)"/>
<path d="M0 0 C0.33 0 0.66 0 1 0 C2.10228696 4.40914783 2.07654536 8.48382401 2 13 C1.01 13 0.02 13 -1 13 C-1.0272415 11.58344207 -1.04650467 10.16672955 -1.0625 8.75 C-1.07410156 7.96109375 -1.08570312 7.1721875 -1.09765625 6.359375 C-1.00385306 4.09308998 -0.63241063 2.1711105 0 0 Z " fill="#3C9C69" transform="translate(93,76)"/>
<path d="M0 0 C1.65 0 3.3 0 5 0 C5 0.66 5 1.32 5 2 C5.99 2 6.98 2 8 2 C7.67 2.99 7.34 3.98 7 5 C4.69 4.34 2.38 3.68 0 3 C0 2.01 0 1.02 0 0 Z " fill="#F1EFF2" transform="translate(78,92)"/>
<path d="M0 0 C2.875 -0.125 2.875 -0.125 6 0 C8 2 8 2 8 5 C7.01 5 6.02 5 5 5 C5 4.34 5 3.68 5 3 C3.35 3 1.7 3 0 3 C0 2.01 0 1.02 0 0 Z " fill="#5E5A5E" transform="translate(78,89)"/>
<path d="M0 0 C2.01822917 0.06510417 4.03645833 0.13020833 6.0546875 0.1953125 C5.7246875 0.8553125 5.3946875 1.5153125 5.0546875 2.1953125 C4.3946875 1.8653125 3.7346875 1.5353125 3.0546875 1.1953125 C3.0546875 1.8553125 3.0546875 2.5153125 3.0546875 3.1953125 C1.4046875 3.8553125 -0.2453125 4.5153125 -1.9453125 5.1953125 C-1.9453125 4.5353125 -1.9453125 3.8753125 -1.9453125 3.1953125 C-2.6053125 2.8653125 -3.2653125 2.5353125 -3.9453125 2.1953125 C-1.9453125 0.1953125 -1.9453125 0.1953125 0 0 Z " fill="#4B4A51" transform="translate(71.9453125,43.8046875)"/>
<path d="M0 0 C1.65 0 3.3 0 5 0 C4.67 1.65 4.34 3.3 4 5 C2.68 5 1.36 5 0 5 C0 3.35 0 1.7 0 0 Z " fill="#EDEAEE" transform="translate(63,92)"/>
<path d="M0 0 C0.99 0 1.98 0 3 0 C3 1.98 3 3.96 3 6 C3.66 6 4.32 6 5 6 C5 6.99 5 7.98 5 9 C4.34 9 3.68 9 3 9 C0.78252188 6.69723426 0.03239994 5.47519908 -0.1875 2.25 C-0.125625 1.5075 -0.06375 0.765 0 0 Z " fill="#383640" transform="translate(52,47)"/>
<path d="M0 0 C0.33 0.99 0.66 1.98 1 3 C-0.125 4.5625 -0.125 4.5625 -2 6 C-5.1875 5.6875 -5.1875 5.6875 -8 5 C-5.44008376 2.98863724 -2.95409701 1.37154504 0 0 Z " fill="#45AD77" transform="translate(118,95)"/>
<path d="M0 0 C1.65 0 3.3 0 5 0 C5.33 1.32 5.66 2.64 6 4 C4.02 4 2.04 4 0 4 C0 2.68 0 1.36 0 0 Z " fill="#3C3A41" transform="translate(88,45)"/>
<path d="M0 0 C-0.33 0.99 -0.66 1.98 -1 3 C-3.31 3 -5.62 3 -8 3 C-8 2.34 -8 1.68 -8 1 C-5.29120665 -0.35439668 -2.99066732 -0.06501451 0 0 Z " fill="#383440" transform="translate(101,122)"/>
<path d="M0 0 C4 4.625 4 4.625 4 8 C3.01 8 2.02 8 1 8 C-1.125 3.375 -1.125 3.375 0 0 Z " fill="#524F56" transform="translate(57,53)"/>
<path d="M0 0 C4.51720311 -0.36625971 4.51720311 -0.36625971 6.8125 1.375 C8 3 8 3 8 5 C4.62496331 3.8141763 2.35277269 2.72426311 0 0 Z " fill="#37A166" transform="translate(111,74)"/>
</svg>
