<?xml version="1.0" encoding="UTF-8"?>
<svg version="1.1" xmlns="http://www.w3.org/2000/svg" width="156" height="156">
<path d="M0 0 C51.48 0 102.96 0 156 0 C156 51.48 156 102.96 156 156 C104.52 156 53.04 156 0 156 C0 104.52 0 53.04 0 0 Z " fill="#FEFEFE" transform="translate(0,0)"/>
<path d="M0 0 C1.01513672 -0.03738281 2.03027344 -0.07476562 3.07617188 -0.11328125 C5.8265456 -0.14604546 8.35713556 -0.12576723 11.0625 0.375 C13.1484375 2.765625 13.1484375 2.765625 14.0625 5.375 C14.619375 6.07625 15.17625 6.7775 15.75 7.5 C17.0625 9.375 17.0625 9.375 17.0625 12.375 C18.3825 13.035 19.7025 13.695 21.0625 14.375 C21.15337891 13.11042969 21.15337891 13.11042969 21.24609375 11.8203125 C21.32988281 10.72460938 21.41367188 9.62890625 21.5 8.5 C21.58121094 7.40945312 21.66242188 6.31890625 21.74609375 5.1953125 C22.0625 2.375 22.0625 2.375 23.0625 0.375 C26.18748063 0.34604024 29.3124269 0.32821517 32.4375 0.3125 C33.32695313 0.30412109 34.21640625 0.29574219 35.1328125 0.28710938 C35.98359375 0.28388672 36.834375 0.28066406 37.7109375 0.27734375 C38.49645996 0.27210693 39.28198242 0.26687012 40.09130859 0.26147461 C42.0625 0.375 42.0625 0.375 44.0625 1.375 C44.0625 3.025 44.0625 4.675 44.0625 6.375 C39.1125 6.375 34.1625 6.375 29.0625 6.375 C29.0625 8.355 29.0625 10.335 29.0625 12.375 C33.3525 12.375 37.6425 12.375 42.0625 12.375 C41.7325 14.025 41.4025 15.675 41.0625 17.375 C37.1025 17.375 33.1425 17.375 29.0625 17.375 C29.0625 19.355 29.0625 21.335 29.0625 23.375 C33.6825 23.375 38.3025 23.375 43.0625 23.375 C43.5575 25.85 43.5575 25.85 44.0625 28.375 C40.50062343 28.54979953 36.93985227 28.65601143 33.375 28.75 C31.86389648 28.82541016 31.86389648 28.82541016 30.32226562 28.90234375 C23.01599832 29.04702231 23.01599832 29.04702231 20.31665039 27.14453125 C18.9921875 25.5859375 18.9921875 25.5859375 17.0625 22.375 C16.42248047 21.36179687 16.42248047 21.36179687 15.76953125 20.328125 C15.32673828 19.48507813 15.32673828 19.48507813 14.875 18.625 C13.2714466 15.40184512 13.2714466 15.40184512 11.0625 13.375 C10.4025 16.345 9.7425 19.315 9.0625 22.375 C8.4025 22.375 7.7425 22.375 7.0625 22.375 C6.876875 22.973125 6.69125 23.57125 6.5 24.1875 C4.3975986 27.38680648 1.62891069 28.40297826 -1.9375 29.375 C-6.35738184 30.0943141 -9.85735466 29.70864674 -13.875 27.6875 C-16.9375 25.375 -16.9375 25.375 -17.875 22.625 C-17.895625 21.8825 -17.91625 21.14 -17.9375 20.375 C-18.5975 20.375 -19.2575 20.375 -19.9375 20.375 C-20.4026527 10.53788175 -20.4026527 10.53788175 -18.6875 6.25 C-16.7687917 4.19424111 -15.70563126 3.66135841 -12.9375 3.375 C-12.9375 2.715 -12.9375 2.055 -12.9375 1.375 C-9.0461062 -0.5706969 -4.28072604 0.05956735 0 0 Z " fill="#2B365B" transform="translate(62.9375,67.625)"/>
<path d="M0 0 C3.09375 -0.020625 6.1875 -0.04125 9.375 -0.0625 C10.34872559 -0.071604 11.32245117 -0.08070801 12.32568359 -0.09008789 C13.47544678 -0.09383423 13.47544678 -0.09383423 14.6484375 -0.09765625 C15.43395996 -0.10289307 16.21948242 -0.10812988 17.02880859 -0.11352539 C19 0 19 0 21 1 C21 2.65 21 4.3 21 6 C16.05 6 11.1 6 6 6 C6 7.98 6 9.96 6 12 C10.29 12 14.58 12 19 12 C18.67 13.65 18.34 15.3 18 17 C14.04 17 10.08 17 6 17 C6 18.98 6 20.96 6 23 C10.62 23 15.24 23 20 23 C20.33 24.65 20.66 26.3 21 28 C14.07 28 7.14 28 0 28 C0 18.76 0 9.52 0 0 Z " fill="#3B4771" transform="translate(86,68)"/>
<path d="M0 0 C2.0625 1.5 2.0625 1.5 3 4 C3.51982439 8.30587873 3.47919216 11.28121175 1 15 C0.34 15 -0.32 15 -1 15 C-1 15.66 -1 16.32 -1 17 C-8.13513514 17.47567568 -8.13513514 17.47567568 -11.5 15.625 C-13.75975802 11.67042347 -14.00769037 7.43828332 -13 3 C-9.22318136 -0.85286197 -5.09635052 -0.83973957 0 0 Z " fill="#EFF2F4" transform="translate(63,74)"/>
<path d="M0 0 C1.6875 2.25 1.6875 2.25 3 5 C3.556875 5.70125 4.11375 6.4025 4.6875 7.125 C6 9 6 9 6 12 C7.32 12.66 8.64 13.32 10 14 C10.33 10.04 10.66 6.08 11 2 C11.33 2 11.66 2 12 2 C12 10.58 12 19.16 12 28 C8.56980129 24.56980129 6.32841806 22.27633691 3.875 18.375 C2.49004294 16.18152747 1.24409494 14.24349667 -0.59375 12.41015625 C-2 11 -2 11 -3.375 8.0625 C-5.14502474 4.72668415 -6.93973409 3.15045712 -10 1 C-6.58827648 -0.04976108 -3.55430783 -0.45374142 0 0 Z " fill="#D86564" transform="translate(74,68)"/>
<path d="M0 0 C1.09570312 0.00902344 2.19140625 0.01804687 3.3203125 0.02734375 C4.16335937 0.03894531 5.00640625 0.05054687 5.875 0.0625 C2.84560499 2.47695371 0.74195903 3.52542236 -3.125 4.0625 C-1.475 4.3925 0.175 4.7225 1.875 5.0625 C1.875 5.3925 1.875 5.7225 1.875 6.0625 C1.30910156 6.19527344 0.74320313 6.32804687 0.16015625 6.46484375 C-0.94005859 6.72974609 -0.94005859 6.72974609 -2.0625 7 C-2.79339844 7.17402344 -3.52429688 7.34804687 -4.27734375 7.52734375 C-6.12469898 7.90137569 -6.12469898 7.90137569 -7.125 9.0625 C-7.24994616 10.68389437 -7.30071624 12.31134122 -7.3125 13.9375 C-7.33376953 15.26394531 -7.33376953 15.26394531 -7.35546875 16.6171875 C-7.29568424 19.32016726 -7.29568424 19.32016726 -5.125 22.0625 C-7.105 22.0625 -9.085 22.0625 -11.125 22.0625 C-9.475 24.0425 -7.825 26.0225 -6.125 28.0625 C-9.04017292 26.98848892 -10.90310176 26.28439824 -13.125 24.0625 C-13.125 22.7425 -13.125 21.4225 -13.125 20.0625 C-13.785 20.0625 -14.445 20.0625 -15.125 20.0625 C-15.5901527 10.22538175 -15.5901527 10.22538175 -13.875 5.9375 C-11.9562917 3.88174111 -10.89313126 3.34885841 -8.125 3.0625 C-8.125 2.4025 -8.125 1.7425 -8.125 1.0625 C-5.36047967 -0.31976016 -3.0788637 -0.03275387 0 0 Z " fill="#485472" transform="translate(58.125,67.9375)"/>
<path d="M0 0 C3.3 0 6.6 0 10 0 C10 0.33 10 0.66 10 1 C7.03 1 4.06 1 1 1 C1.33 1.66 1.66 2.32 2 3 C2.66 3 3.32 3 4 3 C4.33 4.98 4.66 6.96 5 9 C4.34 9 3.68 9 3 9 C3.33 9.33 3.66 9.66 4 10 C4 13 4 13 2 16 C2.99 16.33 3.98 16.66 5 17 C5 18.32 5 19.64 5 21 C4.34 21 3.68 21 3 21 C3.34786708 22.97536745 3.34786708 22.97536745 4 25 C4.66 25.33 5.32 25.66 6 26 C5.34 24.68 4.68 23.36 4 22 C9.28 22 14.56 22 20 22 C20.33 23.65 20.66 25.3 21 27 C14.07 27 7.14 27 0 27 C0 18.09 0 9.18 0 0 Z " fill="#2A3357" transform="translate(86,69)"/>
<path d="M0 0 C6.6 0 13.2 0 20 0 C20 0.33 20 0.66 20 1 C16.37 1 12.74 1 9 1 C9 1.66 9 2.32 9 3 C10.32 3 11.64 3 13 3 C13 4.32 13 5.64 13 7 C11.02 7 9.04 7 7 7 C7 6.34 7 5.68 7 5 C6.34 5 5.68 5 5 5 C5 5.66 5 6.32 5 7 C-0.94 7 -6.88 7 -13 7 C-13 6.34 -13 5.68 -13 5 C-13.66 5 -14.32 5 -15 5 C-15 5.66 -15 6.32 -15 7 C-16.65 6.67 -18.3 6.34 -20 6 C-20 5.34 -20 4.68 -20 4 C-13.4 3.34 -6.8 2.68 0 2 C0 1.34 0 0.68 0 0 Z " fill="#D4D8DE" transform="translate(86,96)"/>
<path d="M0 0 C3.6578218 2.03993908 5.66946174 3.50419262 8 7 C8.1953125 9.48046875 8.1953125 9.48046875 8.125 12.1875 C8.10695313 13.08855469 8.08890625 13.98960938 8.0703125 14.91796875 C8.04710938 15.60503906 8.02390625 16.29210937 8 17 C7.01 17.33 6.02 17.66 5 18 C4.67128906 17.15695313 4.34257813 16.31390625 4.00390625 15.4453125 C1.51940938 9.07716735 1.51940938 9.07716735 -3.40234375 4.7578125 C-5.64003449 4.29825516 -7.71778649 4.02028634 -10 4 C-7.78929578 -0.42140845 -4.44744766 -0.52322914 0 0 Z " fill="#253057" transform="translate(64,69)"/>
<path d="M0 0 C3.12498063 -0.02895976 6.2499269 -0.04678483 9.375 -0.0625 C10.70917969 -0.07506836 10.70917969 -0.07506836 12.0703125 -0.08789062 C13.34648438 -0.09272461 13.34648438 -0.09272461 14.6484375 -0.09765625 C15.43395996 -0.10289307 16.21948242 -0.10812988 17.02880859 -0.11352539 C19 0 19 0 21 1 C21 2.65 21 4.3 21 6 C15.39 6 9.78 6 4 6 C4 5.34 4 4.68 4 4 C3.01 4.33 2.02 4.66 1 5 C0.67 3.35 0.34 1.7 0 0 Z " fill="#41496B" transform="translate(86,68)"/>
<path d="M0 0 C0.33 0 0.66 0 1 0 C1 8.58 1 17.16 1 26 C-4.6686747 20.3313253 -4.6686747 20.3313253 -5.875 16.875 C-6.11992188 16.21242188 -6.36484375 15.54984375 -6.6171875 14.8671875 C-7 13 -7 13 -6 10 C-2.125 10.875 -2.125 10.875 -1 12 C-0.67 8.04 -0.34 4.08 0 0 Z " fill="#C2464E" transform="translate(85,70)"/>
<path d="M0 0 C0.268125 0.556875 0.53625 1.11375 0.8125 1.6875 C3.12298814 6.18687164 5.7711874 10.10315721 9 14 C7.02 14 5.04 14 3 14 C4.65 15.98 6.3 17.96 8 20 C5.08482708 18.92598892 3.22189824 18.22189824 1 16 C1 14.68 1 13.36 1 12 C0.34 12 -0.32 12 -1 12 C-1.02687279 10.18757948 -1.04633715 8.37504767 -1.0625 6.5625 C-1.07410156 5.55316406 -1.08570313 4.54382813 -1.09765625 3.50390625 C-1 1 -1 1 0 0 Z " fill="#55607E" transform="translate(44,76)"/>
<path d="M0 0 C3.63 0 7.26 0 11 0 C11.33 1.65 11.66 3.3 12 5 C12.66 5 13.32 5 14 5 C14 5.66 14 6.32 14 7 C10.7 6.67 7.4 6.34 4 6 C4 4.68 4 3.36 4 2 C2.68 2 1.36 2 0 2 C0 1.34 0 0.68 0 0 Z " fill="#F6F9FB" transform="translate(95,97)"/>
<path d="M0 0 C4.62 0 9.24 0 14 0 C14.33 1.65 14.66 3.3 15 5 C11.04 5 7.08 5 3 5 C3 4.01 3 3.02 3 2 C2.01 1.34 1.02 0.68 0 0 Z " fill="#384260" transform="translate(92,91)"/>
<path d="M0 0 C4.62 0 9.24 0 14 0 C14 0.66 14 1.32 14 2 C14.66 2 15.32 2 16 2 C16 1.34 16 0.68 16 0 C18.31 0 20.62 0 23 0 C23 0.99 23 1.98 23 3 C17.72 3 12.44 3 7 3 C7 2.34 7 1.68 7 1 C6.34 1 5.68 1 5 1 C5 1.66 5 2.32 5 3 C3.35 2.67 1.7 2.34 0 2 C0 1.34 0 0.68 0 0 Z " fill="#C4C5C7" transform="translate(66,100)"/>
<path d="M0 0 C0.99 0.33 1.98 0.66 3 1 C2.88648483 2.81325551 2.75887039 4.62563357 2.625 6.4375 C2.55539063 7.44683594 2.48578125 8.45617187 2.4140625 9.49609375 C2.27742188 10.32238281 2.14078125 11.14867188 2 12 C1.01 12.495 1.01 12.495 0 13 C-0.66 12.01 -1.32 11.02 -2 10 C-2.66 10.66 -3.32 11.32 -4 12 C-4.125 5.25 -4.125 5.25 -3 3 C-2.34 3 -1.68 3 -1 3 C-0.67 2.01 -0.34 1.02 0 0 Z " fill="#28365D" transform="translate(48,73)"/>
<path d="M0 0 C4.29 0 8.58 0 13 0 C13 1.32 13 2.64 13 4 C8.71 4 4.42 4 0 4 C0 2.68 0 1.36 0 0 Z " fill="#2C355B" transform="translate(92,80)"/>
<path d="M0 0 C0.66 0 1.32 0 2 0 C5.31168629 4.0909066 6.50130606 6.73628638 6 12 C5.01 12.33 4.02 12.66 3 13 C0.78145293 8.37802694 -0.38281159 5.23175837 0 0 Z " fill="#263462" transform="translate(66,74)"/>
<path d="M0 0 C2.31 0 4.62 0 7 0 C6.01 0.495 6.01 0.495 5 1 C5.59155331 2.31823302 6.19871463 3.62947051 6.8125 4.9375 C7.14894531 5.66839844 7.48539062 6.39929688 7.83203125 7.15234375 C8.93600134 9.33029489 8.93600134 9.33029489 12 10 C12.33 8.68 12.66 7.36 13 6 C14.23782051 9.98853276 13.31067965 12.06796105 12 16 C8.22962296 11.87576881 5.42327288 8.07733365 3 3 C1.43897509 1.18445841 1.43897509 1.18445841 0 0 Z " fill="#D66663" transform="translate(66,70)"/>
<path d="M0 0 C0.33 1.32 0.66 2.64 1 4 C2.093125 3.938125 3.18625 3.87625 4.3125 3.8125 C8 4 8 4 9.9375 5.5 C10.288125 5.995 10.63875 6.49 11 7 C10.67 7.99 10.34 8.98 10 10 C5.62179908 9.49963418 3.0802463 8.16825333 0 5 C-0.3125 2.25 -0.3125 2.25 0 0 Z " fill="#293059" transform="translate(46,86)"/>
<path d="M0 0 C0.33 0 0.66 0 1 0 C1.125 7.625 1.125 7.625 0 11 C-0.66 11 -1.32 11 -2 11 C-2 10.34 -2 9.68 -2 9 C-3.32 9.33 -4.64 9.66 -6 10 C-5.34 10 -4.68 10 -4 10 C-4 10.66 -4 11.32 -4 12 C-5.98 12 -7.96 12 -10 12 C-10 11.34 -10 10.68 -10 10 C-9.2884375 9.38125 -9.2884375 9.38125 -8.5625 8.75 C-6.41260332 6.34211572 -6.34954602 4.14591416 -6 1 C-5.71125 1.61875 -5.4225 2.2375 -5.125 2.875 C-4.06279958 5.13325765 -4.06279958 5.13325765 -2 7 C-1.34 7 -0.68 7 0 7 C0 4.69 0 2.38 0 0 Z " fill="#566083" transform="translate(72,79)"/>
<path d="M0 0 C3.26460973 1.80412643 4.88929795 2.83394693 7 6 C6.625 8.1875 6.625 8.1875 6 10 C3 6.25 3 6.25 3 4 C2.34 4 1.68 4 1 4 C0.67 5.32 0.34 6.64 0 8 C-0.66 6.68 -1.32 5.36 -2 4 C-1.34 4 -0.68 4 0 4 C0 2.68 0 1.36 0 0 Z " fill="#413453" transform="translate(65,70)"/>
<path d="M0 0 C3.24299151 2.38957269 5.50902342 4.2047869 7 8 C4.36 8.33 1.72 8.66 -1 9 C-0.67 6.03 -0.34 3.06 0 0 Z " fill="#F4E2E6" transform="translate(73,80)"/>
<path d="M0 0 C0.66 0 1.32 0 2 0 C2.33 1.98 2.66 3.96 3 6 C2.34 6 1.68 6 1 6 C1.33 6.33 1.66 6.66 2 7 C2 7.99 2 8.98 2 10 C1.34 10.66 0.68 11.32 0 12 C-1 11 -1 11 -1.1328125 8.75 C-1.13023438 7.8425 -1.12765625 6.935 -1.125 6 C-1.12757812 5.0925 -1.13015625 4.185 -1.1328125 3.25 C-1 1 -1 1 0 0 Z " fill="#23305E" transform="translate(88,72)"/>
<path d="M0 0 C2.31 0 4.62 0 7 0 C7 0.66 7 1.32 7 2 C6.01 2 5.02 2 4 2 C4 2.66 4 3.32 4 4 C4.66 4.66 5.32 5.32 6 6 C3.36 6 0.72 6 -2 6 C-1.01 4.68 -0.02 3.36 1 2 C0.67 1.34 0.34 0.68 0 0 Z " fill="#434E6B" transform="translate(55,91)"/>
<path d="M0 0 C0.33 0 0.66 0 1 0 C1 4.95 1 9.9 1 15 C-0.32 15.33 -1.64 15.66 -3 16 C-3.33 14.02 -3.66 12.04 -4 10 C-2.515 10.99 -2.515 10.99 -1 12 C-0.67 8.04 -0.34 4.08 0 0 Z " fill="#C39299" transform="translate(85,70)"/>
<path d="M0 0 C1.65 0 3.3 0 5 0 C5 2.31 5 4.62 5 7 C4.01 7 3.02 7 2 7 C1.34 4.69 0.68 2.38 0 0 Z " fill="#F7F6F1" transform="translate(73,65)"/>
<path d="M0 0 C2.31 0 4.62 0 7 0 C7 0.66 7 1.32 7 2 C7.66 2 8.32 2 9 2 C9 2.66 9 3.32 9 4 C6.03 3.67 3.06 3.34 0 3 C0 2.01 0 1.02 0 0 Z " fill="#D0D1D3" transform="translate(100,100)"/>
<path d="M0 0 C0.66 0 1.32 0 2 0 C2.33 0.66 2.66 1.32 3 2 C3.99 2.33 4.98 2.66 6 3 C6.33 5.31 6.66 7.62 7 10 C3.60582235 6.87378374 1.3937282 4.43458973 0 0 Z " fill="#D38484" transform="translate(79,86)"/>
<path d="M0 0 C2.31 0 4.62 0 7 0 C6.01 0.495 6.01 0.495 5 1 C5.7425 2.1446875 5.7425 2.1446875 6.5 3.3125 C8 6 8 6 8 9 C7.34 9 6.68 9 6 9 C5.566875 8.071875 5.13375 7.14375 4.6875 6.1875 C3.27961373 3.52815927 2.23876444 1.91894095 0 0 Z " fill="#B65155" transform="translate(66,70)"/>
<path d="M0 0 C2.97 0 5.94 0 9 0 C9 0.99 9 1.98 9 3 C7.02 3 5.04 3 3 3 C3 2.34 3 1.68 3 1 C2.34 1 1.68 1 1 1 C0.67 1.66 0.34 2.32 0 3 C0 2.01 0 1.02 0 0 Z " fill="#BFC0C2" transform="translate(90,100)"/>
<path d="M0 0 C1.98 0 3.96 0 6 0 C6 0.99 6 1.98 6 3 C3.69 3 1.38 3 -1 3 C-0.67 2.01 -0.34 1.02 0 0 Z " fill="#263159" transform="translate(100,92)"/>
<path d="M0 0 C0.33 0 0.66 0 1 0 C1.125 7.625 1.125 7.625 0 11 C-0.66 11 -1.32 11 -2 11 C-2 10.34 -2 9.68 -2 9 C-2.66 9 -3.32 9 -4 9 C-3.67 8.34 -3.34 7.68 -3 7 C-2.01 7 -1.02 7 0 7 C0 4.69 0 2.38 0 0 Z " fill="#505771" transform="translate(72,79)"/>
<path d="M0 0 C0.66 0 1.32 0 2 0 C2.33 1.65 2.66 3.3 3 5 C2.01 5.33 1.02 5.66 0 6 C-0.38218767 4.34385343 -0.71395102 2.67542976 -1 1 C-0.67 0.67 -0.34 0.34 0 0 Z " fill="#DE463C" transform="translate(79,80)"/>
</svg>
