<?xml version="1.0" encoding="UTF-8"?>
<svg version="1.1" xmlns="http://www.w3.org/2000/svg" width="156" height="156">
<path d="M0 0 C51.48 0 102.96 0 156 0 C156 51.48 156 102.96 156 156 C104.52 156 53.04 156 0 156 C0 104.52 0 53.04 0 0 Z " fill="#FEFEFE" transform="translate(0,0)"/>
<path d="M0 0 C1.89551022 -0.05441656 3.7914792 -0.09298035 5.6875 -0.125 C6.74324219 -0.14820312 7.79898438 -0.17140625 8.88671875 -0.1953125 C13.64472638 0.10318233 16.99437959 1.43342435 20.25 4.9375 C23.93449919 9.52880599 24.46871581 14.23802801 24 20 C22.81337908 25.06240224 20.9833639 28.14217191 17.0625 31.5625 C11.76267842 34.05181014 5.68304654 33.73682632 0 33 C-2.73360152 31.97552411 -3.85984399 31.08070724 -6 29 C-6.33 28.01 -6.66 27.02 -7 26 C-7.66 25.67 -8.32 25.34 -9 25 C-10.78623248 19.64130255 -11.32310764 13.71948184 -8.80078125 8.53515625 C-5.0764549 3.34736665 -5.0764549 3.34736665 -1.796875 2.2890625 C-0.90742187 2.14597656 -0.90742187 2.14597656 0 2 C0 1.34 0 0.68 0 0 Z " fill="#EBFAF4" transform="translate(100,82)"/>
<path d="M0 0 C0 0.99 0 1.98 0 3 C-1.32 3.33 -2.64 3.66 -4 4 C-4 19.18 -4 34.36 -4 50 C6.23 50.33 16.46 50.66 27 51 C27 52.32 27 53.64 27 55 C22.65840162 55.07429025 18.3171423 55.12866741 13.97509766 55.16479492 C12.49879509 55.17985923 11.02253712 55.20031482 9.54638672 55.22631836 C7.42143742 55.26280739 5.29708099 55.27974933 3.171875 55.29296875 C1.2552002 55.31653442 1.2552002 55.31653442 -0.70019531 55.34057617 C-4.20682984 54.97865288 -5.57493048 54.5075923 -8 52 C-8.92776626 49.21670123 -9.14068311 47.47230193 -9.17700195 44.59204102 C-9.18983719 43.70424454 -9.20267242 42.81644806 -9.21589661 41.90174866 C-9.22328354 40.94546066 -9.23067047 39.98917267 -9.23828125 39.00390625 C-9.246353 38.01881577 -9.25442474 37.03372528 -9.26274109 36.01878357 C-9.27657031 33.9349849 -9.28729766 31.85116369 -9.29516602 29.76733398 C-9.31241519 26.57817974 -9.35631606 23.39005254 -9.40039062 20.20117188 C-9.41051458 18.17709096 -9.41903161 16.15300123 -9.42578125 14.12890625 C-9.44328934 13.17464249 -9.46079742 12.22037872 -9.47883606 11.23719788 C-9.45719019 4.64519364 -9.45719019 4.64519364 -7.14526367 1.38256836 C-4.56175598 -0.28243722 -3.01801651 -0.33533517 0 0 Z " fill="#4E4952" transform="translate(60,52)"/>
<path d="M0 0 C1.89551022 -0.05441656 3.7914792 -0.09298035 5.6875 -0.125 C6.74324219 -0.14820312 7.79898438 -0.17140625 8.88671875 -0.1953125 C13.64472638 0.10318233 16.99437959 1.43342435 20.25 4.9375 C23.93449919 9.52880599 24.46871581 14.23802801 24 20 C22.81337908 25.06240224 20.9833639 28.14217191 17.0625 31.5625 C11.76267842 34.05181014 5.68304654 33.73682632 0 33 C-2.73360152 31.97552411 -3.85984399 31.08070724 -6 29 C-6.33 28.01 -6.66 27.02 -7 26 C-7.66 25.67 -8.32 25.34 -9 25 C-10.78623248 19.64130255 -11.32310764 13.71948184 -8.80078125 8.53515625 C-5.0764549 3.34736665 -5.0764549 3.34736665 -1.796875 2.2890625 C-0.90742187 2.14597656 -0.90742187 2.14597656 0 2 C0 1.34 0 0.68 0 0 Z M-4 7 C-7.33031852 12.41176759 -7.34977691 16.02241653 -6 22 C-4.15432105 26.15277764 -2.2318563 28.28924958 2 30 C8.17314483 30.59738699 8.17314483 30.59738699 14 29 C14 28.34 14 27.68 14 27 C14.61875 26.7525 15.2375 26.505 15.875 26.25 C18.45033573 24.73509663 18.90229527 23.74426182 20 21 C20.7121481 15.98184011 20.52912753 12.05825505 18.25 7.5 C15.6628727 4.62541411 13.7197024 3.27337229 9.88671875 2.6640625 C4.05246316 2.56043451 0.64826491 3.37435337 -4 7 Z " fill="#4AAE76" transform="translate(100,82)"/>
<path d="M0 0 C0.66 0 1.32 0 2 0 C2 0.99 2 1.98 2 3 C3.65 2.67 5.3 2.34 7 2 C7 2.66 7 3.32 7 4 C10.37817425 4.84454356 12.67465243 5.10844919 16 4 C15.67 5.32 15.34 6.64 15 8 C14.34 8 13.68 8 13 8 C13 8.66 13 9.32 13 10 C10.51245214 11.24377393 8.77344699 11.13306235 6 11.125 C5.113125 11.12757812 4.22625 11.13015625 3.3125 11.1328125 C1 11 1 11 -1 10 C-1 9.01 -1 8.02 -1 7 C-1.99 6.67 -2.98 6.34 -4 6 C-4 5.34 -4 4.68 -4 4 C-3.01 3.67 -2.02 3.34 -1 3 C-0.67 2.01 -0.34 1.02 0 0 Z " fill="#F0FCF7" transform="translate(101,101)"/>
<path d="M0 0 C0 0.99 0 1.98 0 3 C-1.2065625 3.433125 -1.2065625 3.433125 -2.4375 3.875 C-5.1326468 4.73262568 -5.1326468 4.73262568 -6 7 C-6.13247499 9.58894517 -6.20983775 12.15551262 -6.24609375 14.74609375 C-6.27902752 16.3209692 -6.31223925 17.89583885 -6.34570312 19.47070312 C-6.39315386 21.95707269 -6.43759333 24.44341798 -6.47680664 26.92993164 C-6.51649628 29.32723347 -6.56804281 31.72405563 -6.62109375 34.12109375 C-6.6295079 34.86491806 -6.63792206 35.60874237 -6.64659119 36.37510681 C-6.73603154 40.10516209 -6.87910752 41.81866129 -9 45 C-9.09891077 39.23426315 -9.17148845 33.4690206 -9.21972656 27.70263672 C-9.23983632 25.74128619 -9.26712818 23.77999556 -9.30175781 21.81884766 C-9.35030421 18.99887305 -9.37297486 16.17969135 -9.390625 13.359375 C-9.41127014 12.48319519 -9.43191528 11.60701538 -9.45318604 10.70428467 C-9.45542197 4.6316369 -9.45542197 4.6316369 -7.14746094 1.43066406 C-4.56060938 -0.29272726 -3.04936807 -0.33881867 0 0 Z " fill="#2F2C34" transform="translate(60,52)"/>
<path d="M0 0 C0.33 0 0.66 0 1 0 C1.33 15.18 1.66 30.36 2 46 C1.34 46 0.68 46 0 46 C-0.33 46.66 -0.66 47.32 -1 48 C-3.60464763 44.16963584 -2.65992442 41.42624732 -2 37 C-1.86838664 34.2379851 -1.77061599 31.49342927 -1.71875 28.73046875 C-1.68099587 27.16731756 -1.64323527 25.60416652 -1.60546875 24.04101562 C-1.55163991 21.60069262 -1.49942494 19.1603403 -1.44775391 16.7199707 C-1.39611998 14.3483628 -1.33888882 11.97693709 -1.28125 9.60546875 C-1.26767456 8.87216843 -1.25409912 8.1388681 -1.2401123 7.38334656 C-1.11294056 2.22588112 -1.11294056 2.22588112 0 0 Z " fill="#5C5861" transform="translate(54,57)"/>
<path d="M0 0 C1.93681161 -0.08107583 3.8745934 -0.13922475 5.8125 -0.1875 C6.89144531 -0.22230469 7.97039062 -0.25710937 9.08203125 -0.29296875 C12 0 12 0 13.88671875 1.51171875 C14.25410156 2.00285156 14.62148437 2.49398437 15 3 C14.20335938 3.03738281 13.40671875 3.07476562 12.5859375 3.11328125 C4.28551402 3.44480114 4.28551402 3.44480114 -3 7 C-5.32031471 11.24057516 -6.41687575 15.21838112 -7 20 C-7.99 19.67 -8.98 19.34 -10 19 C-10.68476409 12.60886851 -9.62477374 9.62691763 -5.703125 4.56640625 C-3.80390494 2.81964652 -2.52079132 2.38907866 0 2 C0 1.34 0 0.68 0 0 Z " fill="#45AC76" transform="translate(100,82)"/>
<path d="M0 0 C1.98 0 3.96 0 6 0 C7.41377341 2.63904371 8.37240135 5.07120629 9 8 C9.99 7.67 10.98 7.34 12 7 C11.25 11.75 11.25 11.75 9 14 C9 13.34 9 12.68 9 12 C5.9254644 12.7763932 5.9254644 12.7763932 4 15 C4 14.34 4 13.68 4 13 C2.68 12.67 1.36 12.34 0 12 C0 10.68 0 9.36 0 8 C2.475 8.495 2.475 8.495 5 9 C5 8.34 5 7.68 5 7 C3.35 6.67 1.7 6.34 0 6 C0 4.02 0 2.04 0 0 Z " fill="#E9FBF3" transform="translate(108,93)"/>
<path d="M0 0 C2.99728927 -0.33303214 4.56797473 -0.26923314 7.15625 1.34375 C10.07304246 5.54590863 9.42237101 9.77112966 9.25 14.75 C9.23195313 15.73355469 9.21390625 16.71710938 9.1953125 17.73046875 C9.14824126 20.15463783 9.08250742 22.57682059 9 25 C8.01 25 7.02 25 6 25 C5.67 18.4 5.34 11.8 5 5 C2.525 4.01 2.525 4.01 0 3 C0 2.01 0 1.02 0 0 Z " fill="#313037" transform="translate(99,52)"/>
<path d="M0 0 C5.75 -0.125 5.75 -0.125 8 1 C8 4.3 8 7.6 8 11 C7.01 11 6.02 11 5 11 C5 10.01 5 9.02 5 8 C4.34 8 3.68 8 3 8 C3 8.99 3 9.98 3 11 C2.01 11 1.02 11 0 11 C0 7.37 0 3.74 0 0 Z " fill="#51A87D" transform="translate(98,93)"/>
<path d="M0 0 C1.32 0 2.64 0 4 0 C4.350625 1.0725 4.70125 2.145 5.0625 3.25 C6.93898874 7.74082015 9.70074169 8.97204797 14 11 C14 11.99 14 12.98 14 14 C9.82152545 13.52517335 7.07322948 12.95940617 4 10 C3.67 9.01 3.34 8.02 3 7 C2.34 6.67 1.68 6.34 1 6 C0.375 2.9375 0.375 2.9375 0 0 Z " fill="#48AD75" transform="translate(90,101)"/>
<path d="M0 0 C6.93 0 13.86 0 21 0 C21 0.99 21 1.98 21 3 C14.07 3 7.14 3 0 3 C0 2.01 0 1.02 0 0 Z " fill="#343138" transform="translate(69,52)"/>
<path d="M0 0 C2.0625 0.4375 2.0625 0.4375 4 1 C4.0270043 2.45823212 4.04639787 3.91660675 4.0625 5.375 C4.07410156 6.18710937 4.08570312 6.99921875 4.09765625 7.8359375 C4 10 4 10 3 12 C1.68 11.67 0.36 11.34 -1 11 C-1.02688151 9.35425434 -1.04634123 7.70838587 -1.0625 6.0625 C-1.07410156 5.14597656 -1.08570312 4.22945312 -1.09765625 3.28515625 C-1 1 -1 1 0 0 Z " fill="#3A3643" transform="translate(93,47)"/>
<path d="M0 0 C0.99 0.33 1.98 0.66 3 1 C3 4.3 3 7.6 3 11 C2.01 11.33 1.02 11.66 0 12 C-0.66 11.67 -1.32 11.34 -2 11 C-2 7.7 -2 4.4 -2 1 C-1.34 0.67 -0.68 0.34 0 0 Z " fill="#36333D" transform="translate(64,47)"/>
<path d="M0 0 C0.66 0.33 1.32 0.66 2 1 C0.515 2.2684375 0.515 2.2684375 -1 3.5625 C-3.61630002 6.16648802 -3.97070183 6.7572437 -4.4375 10.625 C-4.05675282 14.4061709 -4.05675282 14.4061709 -3 18 C-2.01 18.33 -1.02 18.66 0 19 C-0.99 19 -1.98 19 -3 19 C-2.01 19.99 -1.02 20.98 0 22 C-0.33 22.66 -0.66 23.32 -1 24 C-4.6419793 21.5720138 -5.96542892 19.14612197 -7 15 C-7.30988648 9.96434477 -6.76730595 6.92076714 -3.5 3 C-2.675 2.34 -1.85 1.68 -1 1 C-0.67 0.67 -0.34 0.34 0 0 Z " fill="#DEFBEB" transform="translate(100,86)"/>
<path d="M0 0 C1.98 0 3.96 0 6 0 C6.33 0.99 6.66 1.98 7 3 C5.35 2.67 3.7 2.34 2 2 C2 2.66 2 3.32 2 4 C4.475 4.99 4.475 4.99 7 6 C6.67 7.65 6.34 9.3 6 11 C4.35 11 2.7 11 1 11 C0.67 10.01 0.34 9.02 0 8 C2.475 8.495 2.475 8.495 5 9 C5 8.34 5 7.68 5 7 C3.35 6.67 1.7 6.34 0 6 C0 4.02 0 2.04 0 0 Z " fill="#5CA980" transform="translate(108,93)"/>
<path d="M0 0 C0.33 0.66 0.66 1.32 1 2 C-3.61214953 6.8317757 -3.61214953 6.8317757 -7.19140625 7.265625 C-7.97386719 7.26046875 -8.75632812 7.2553125 -9.5625 7.25 C-10.74005859 7.25773437 -10.74005859 7.25773437 -11.94140625 7.265625 C-14 7 -14 7 -16 5 C-14.37548581 4.66430703 -12.75037083 4.3315204 -11.125 4 C-10.22007813 3.814375 -9.31515625 3.62875 -8.3828125 3.4375 C-6 3 -6 3 -4 3 C-4 2.34 -4 1.68 -4 1 C-2.68 0.67 -1.36 0.34 0 0 Z " fill="#37A969" transform="translate(118,108)"/>
<path d="M0 0 C2.31 0 4.62 0 7 0 C7 2.31 7 4.62 7 7 C4.69 7 2.38 7 0 7 C0 4.69 0 2.38 0 0 Z " fill="#77747A" transform="translate(61,78)"/>
<path d="M0 0 C2.31 0 4.62 0 7 0 C7 2.31 7 4.62 7 7 C4.69 7 2.38 7 0 7 C0 4.69 0 2.38 0 0 Z " fill="#5B5960" transform="translate(92,65)"/>
<path d="M0 0 C2.31 0 4.62 0 7 0 C7 2.31 7 4.62 7 7 C4.69 7 2.38 7 0 7 C0 4.69 0 2.38 0 0 Z " fill="#605E65" transform="translate(82,65)"/>
<path d="M0 0 C1.99954746 -0.04254356 4.00041636 -0.04080783 6 0 C7 1 7 1 7.0625 4.0625 C7.041875 5.031875 7.02125 6.00125 7 7 C4.69 7 2.38 7 0 7 C0 4.69 0 2.38 0 0 Z " fill="#716C76" transform="translate(82,78)"/>
<path d="M0 0 C2.31 0 4.62 0 7 0 C7 1.98 7 3.96 7 6 C4.69 6 2.38 6 0 6 C0 4.02 0 2.04 0 0 Z " fill="#514E54" transform="translate(61,91)"/>
<path d="M0 0 C3.14839906 -0.34982212 4.62023779 -0.24633224 7.3125 1.5 C9.76157308 5.12825641 9.28810652 7.67840225 9 12 C7 9 7 9 6.1875 6.9375 C4.58589544 4.32435572 2.85712552 3.90225017 0 3 C0 2.01 0 1.02 0 0 Z " fill="#3C3B42" transform="translate(99,52)"/>
<path d="M0 0 C0.33 0 0.66 0 1 0 C1 1.98 1 3.96 1 6 C1.66 6 2.32 6 3 6 C2.5020163 9.73487777 2.12508244 11.81237635 0 15 C-2 14 -2 14 -4 12 C-3.525625 11.319375 -3.05125 10.63875 -2.5625 9.9375 C-0.7774364 6.58158044 -0.36846914 3.75838519 0 0 Z " fill="#58B981" transform="translate(120,96)"/>
<path d="M0 0 C1.32 0 2.64 0 4 0 C4 1.98 4 3.96 4 6 C5.65 6.33 7.3 6.66 9 7 C9 7.66 9 8.32 9 9 C7.35 8.67 5.7 8.34 4 8 C3.67 8.99 3.34 9.98 3 11 C2.34 10.67 1.68 10.34 1 10 C1.33 7.03 1.66 4.06 2 1 C1.34 0.67 0.68 0.34 0 0 Z " fill="#C2F2D8" transform="translate(104,93)"/>
<path d="M0 0 C0.33 0.99 0.66 1.98 1 3 C0.34 3 -0.32 3 -1 3 C-1 6.96 -1 10.92 -1 15 C-4 12 -4 12 -4.4375 8.0625 C-4.33618214 4.82628831 -4.12046898 4.15058623 -2 1.5 C-1.34 1.005 -0.68 0.51 0 0 Z " fill="#F4FEFA" transform="translate(99,89)"/>
<path d="M0 0 C0.99 0.99 1.98 1.98 3 3 C-0.96 3 -4.92 3 -9 3 C-9.33 2.34 -9.66 1.68 -10 1 C-6.44646071 -0.1845131 -3.72986522 -0.26641894 0 0 Z " fill="#34A467" transform="translate(112,82)"/>
<path d="M0 0 C1.98 0 3.96 0 6 0 C6 0.99 6 1.98 6 3 C4.68 2.67 3.36 2.34 2 2 C2 2.99 2 3.98 2 5 C2.99 5 3.98 5 5 5 C5 5.66 5 6.32 5 7 C3.35 7 1.7 7 0 7 C0 4.69 0 2.38 0 0 Z " fill="#323038" transform="translate(72,78)"/>
<path d="M0 0 C0 0.99 0 1.98 0 3 C-4.455 4.485 -4.455 4.485 -9 6 C-7.01260984 0.46369883 -5.82303895 -0.15323787 0 0 Z " fill="#47444C" transform="translate(60,52)"/>
<path d="M0 0 C0.99 0.33 1.98 0.66 3 1 C3 2.98 3 4.96 3 7 C0 5 0 5 -1 2 C-1 4.97 -1 7.94 -1 11 C-1.33 11 -1.66 11 -2 11 C-2 7.7 -2 4.4 -2 1 C-1.34 0.67 -0.68 0.34 0 0 Z " fill="#65636A" transform="translate(64,47)"/>
<path d="M0 0 C1.32 0 2.64 0 4 0 C3.67 1.98 3.34 3.96 3 6 C2.34 6 1.68 6 1 6 C1 6.99 1 7.98 1 9 C0.01 9 -0.98 9 -2 9 C-1.505 7.6078125 -1.505 7.6078125 -1 6.1875 C0.14967004 3.07970709 0.14967004 3.07970709 0 0 Z " fill="#86D2A9" transform="translate(100,95)"/>
<path d="M0 0 C0.33 1.32 0.66 2.64 1 4 C1.99 4 2.98 4 4 4 C4.33 2.68 4.66 1.36 5 0 C6 1 6 1 6.0625 3.5625 C6.041875 4.366875 6.02125 5.17125 6 6 C4.02 6 2.04 6 0 6 C0 4.02 0 2.04 0 0 Z " fill="#343136" transform="translate(62,79)"/>
<path d="M0 0 C3 3 3 3 3.1875 6.1875 C3.0946875 7.5796875 3.0946875 7.5796875 3 9 C2.01 9 1.02 9 0 9 C0 6.03 0 3.06 0 0 Z " fill="#34AB68" transform="translate(121,93)"/>
<path d="M0 0 C0.33 1.32 0.66 2.64 1 4 C1.99 4 2.98 4 4 4 C4.33 3.01 4.66 2.02 5 1 C5 2.65 5 4.3 5 6 C3.02 6 1.04 6 -1 6 C-1.042721 4.33388095 -1.04063832 2.66617115 -1 1 C-0.67 0.67 -0.34 0.34 0 0 Z " fill="#35323A" transform="translate(83,79)"/>
<path d="M0 0 C0.66 0 1.32 0 2 0 C1.67 1.65 1.34 3.3 1 5 C-0.65 5 -2.3 5 -4 5 C-4.33 4.01 -4.66 3.02 -5 2 C-2.525 2.495 -2.525 2.495 0 3 C0 2.01 0 1.02 0 0 Z " fill="#4DA576" transform="translate(113,99)"/>
<path d="M0 0 C0.66 0 1.32 0 2 0 C2 2.64 2 5.28 2 8 C1.01 7.67 0.02 7.34 -1 7 C-0.67 4.69 -0.34 2.38 0 0 Z " fill="#35A568" transform="translate(91,94)"/>
<path d="M0 0 C0.99 0 1.98 0 3 0 C2.67 1.32 2.34 2.64 2 4 C1.34 4 0.68 4 0 4 C0 4.66 0 5.32 0 6 C-0.66 6 -1.32 6 -2 6 C-1.125 1.125 -1.125 1.125 0 0 Z " fill="#E6FAF1" transform="translate(114,105)"/>
<path d="M0 0 C1.98 0 3.96 0 6 0 C6 2.64 6 5.28 6 8 C5.7525 7.38125 5.505 6.7625 5.25 6.125 C3.79371361 3.64931313 2.62187494 3.04874998 0 2 C0 1.34 0 0.68 0 0 Z " fill="#C1F2D6" transform="translate(110,95)"/>
<path d="M0 0 C0.33 0 0.66 0 1 0 C1 2.31 1 4.62 1 7 C0.34 7 -0.32 7 -1 7 C-1 6.34 -1 5.68 -1 5 C-1.99 5 -2.98 5 -4 5 C-4 4.01 -4 3.02 -4 2 C-2.68 2.33 -1.36 2.66 0 3 C0 2.01 0 1.02 0 0 Z " fill="#9E9CA4" transform="translate(78,78)"/>
<path d="M0 0 C1.98 0.495 1.98 0.495 4 1 C4 3.97 4 6.94 4 10 C3.67 10 3.34 10 3 10 C3 7.69 3 5.38 3 3 C1.68 3 0.36 3 -1 3 C-0.67 2.01 -0.34 1.02 0 0 Z " fill="#6A6870" transform="translate(93,47)"/>
<path d="M0 0 C1.32 0 2.64 0 4 0 C4.66 1.98 5.32 3.96 6 6 C5.01 5.34 4.02 4.68 3 4 C2.34 4.66 1.68 5.32 1 6 C0.67 4.02 0.34 2.04 0 0 Z " fill="#5FBB8B" transform="translate(90,101)"/>
<path d="M0 0 C0.66 0.33 1.32 0.66 2 1 C-0.31 3.31 -2.62 5.62 -5 8 C-5 5 -5 5 -2.5 2.3125 C-1.675 1.549375 -0.85 0.78625 0 0 Z " fill="#C2F0D9" transform="translate(100,86)"/>
<path d="M0 0 C3.875 1.75 3.875 1.75 5 4 C4.34 4 3.68 4 3 4 C2.67 4.66 2.34 5.32 2 6 C2 5.34 2 4.68 2 4 C0.68 3.34 -0.64 2.68 -2 2 C-1.34 1.34 -0.68 0.68 0 0 Z " fill="#57B583" transform="translate(114,83)"/>
</svg>
