<?xml version="1.0" encoding="UTF-8"?>
<svg version="1.1" xmlns="http://www.w3.org/2000/svg" width="156" height="156">
<path d="M0 0 C51.48 0 102.96 0 156 0 C156 51.48 156 102.96 156 156 C104.52 156 53.04 156 0 156 C0 104.52 0 53.04 0 0 Z " fill="#FEFEFE" transform="translate(0,0)"/>
<path d="M0 0 C2.69508786 2.16921706 3.43170475 2.87033348 3.80078125 6.234375 C3.96865559 12.06579927 3.56727651 15.48561256 -0.4375 20.0625 C-4.89327347 23.03301564 -9.21192606 22.68987491 -14.4375 22.0625 C-18.12943307 19.95282396 -19.84338881 17.93987961 -21.4375 14.0625 C-21.703125 11.58984375 -21.703125 11.58984375 -21.6875 9 C-21.69265625 8.14277344 -21.6978125 7.28554687 -21.703125 6.40234375 C-21.4375 4.0625 -21.4375 4.0625 -19.4375 1.0625 C-18.7775 1.0625 -18.1175 1.0625 -17.4375 1.0625 C-17.4375 0.4025 -17.4375 -0.2575 -17.4375 -0.9375 C-10.96196701 -3.68960152 -6.06662042 -3.41936787 0 0 Z " fill="#F8F7F9" transform="translate(75.4375,59.9375)"/>
<path d="M0 0 C2.69508786 2.16921706 3.43170475 2.87033348 3.80078125 6.234375 C3.96865559 12.06579927 3.56727651 15.48561256 -0.4375 20.0625 C-4.89327347 23.03301564 -9.21192606 22.68987491 -14.4375 22.0625 C-18.12943307 19.95282396 -19.84338881 17.93987961 -21.4375 14.0625 C-21.703125 11.58984375 -21.703125 11.58984375 -21.6875 9 C-21.69265625 8.14277344 -21.6978125 7.28554687 -21.703125 6.40234375 C-21.4375 4.0625 -21.4375 4.0625 -19.4375 1.0625 C-18.7775 1.0625 -18.1175 1.0625 -17.4375 1.0625 C-17.4375 0.4025 -17.4375 -0.2575 -17.4375 -0.9375 C-10.96196701 -3.68960152 -6.06662042 -3.41936787 0 0 Z M-17.4375 4.0625 C-18.88897903 6.96545805 -18.80989025 8.83511779 -18.4375 12.0625 C-15.95277166 16.05312431 -14.47001036 17.74905935 -9.9375 19.125 C-6.03863646 19.05537744 -4.45327749 18.47512199 -1.4375 16.0625 C0.90418764 12.54996854 1.05873677 11.19780644 0.5625 7.0625 C-1.23743774 4.36259338 -2.521273 2.5206135 -5.4375 1.0625 C-10.42970285 0.68572997 -13.41770143 0.98853639 -17.4375 4.0625 Z " fill="#4B4950" transform="translate(75.4375,59.9375)"/>
<path d="M0 0 C3.46342748 2.54455896 5.64733756 4.70273017 8.0625 8.25 C7.7325 9.24 7.4025 10.23 7.0625 11.25 C6.0725 11.25 5.0825 11.25 4.0625 11.25 C2.84375 9.82421875 2.84375 9.82421875 1.5625 7.9375 C-2.50320894 3.0744002 -6.77522313 2.02897857 -12.9375 1.25 C-23.24699868 0.4256065 -32.62348714 0.25174741 -41.9375 5.25 C-42.9275 5.58 -43.9175 5.91 -44.9375 6.25 C-45.246875 6.91 -45.55625 7.57 -45.875 8.25 C-46.9375 10.25 -46.9375 10.25 -49.0625 11 C-49.990625 11.12375 -49.990625 11.12375 -50.9375 11.25 C-50.2083181 6.64197549 -47.71755577 4.7607245 -44.26171875 1.86328125 C-32.7667775 -6.11556032 -12.19893638 -6.33710981 0 0 Z " fill="#615F65" transform="translate(87.9375,94.75)"/>
<path d="M0 0 C3.37466953 0.60261956 5.50798556 1.62689911 8 4 C8.4609375 6.5234375 8.4609375 6.5234375 8.375 9.375 C8.36210938 10.31085938 8.34921875 11.24671875 8.3359375 12.2109375 C7.97981895 15.16754962 7.35626646 17.3511843 6 20 C3 22 3 22 0 22 C0.75 17.25 0.75 17.25 3 15 C3.56299155 9.52621949 3.56299155 9.52621949 1.5 4.6875 C1.005 4.130625 0.51 3.57375 0 3 C0 2.01 0 1.02 0 0 Z " fill="#3AA36A" transform="translate(88,59)"/>
<path d="M0 0 C0.99 0 1.98 0 3 0 C3 0.66 3 1.32 3 2 C3.56460938 2.08636719 4.12921875 2.17273438 4.7109375 2.26171875 C7.66395651 3.21414297 9.32605476 4.74037377 11.625 6.8125 C12.40101562 7.49957031 13.17703125 8.18664062 13.9765625 8.89453125 C16.86936096 11.90460532 18 13.8074472 18 18 C16.68 18 15.36 18 14 18 C13.5359375 16.7315625 13.5359375 16.7315625 13.0625 15.4375 C10.26675367 9.75146519 4.11787336 6.41191557 -1 3 C-0.67 2.01 -0.34 1.02 0 0 Z " fill="#43A374" transform="translate(96,86)"/>
<path d="M0 0 C0.66 0 1.32 0 2 0 C4.46986894 3.70480341 4.67432448 6.70219701 4 11 C1.98497111 14.75212276 0.54533858 16.63644095 -3 19 C-5.26171875 19.1953125 -5.26171875 19.1953125 -7.6875 19.125 C-8.49574219 19.10695313 -9.30398437 19.08890625 -10.13671875 19.0703125 C-10.75160156 19.04710938 -11.36648437 19.02390625 -12 19 C-12.33 18.01 -12.66 17.02 -13 16 C-11.96939453 15.85304688 -11.96939453 15.85304688 -10.91796875 15.703125 C-10.01691406 15.55359375 -9.11585937 15.4040625 -8.1875 15.25 C-7.29417969 15.11078125 -6.40085937 14.9715625 -5.48046875 14.828125 C-2.39117182 13.79673768 -1.51147885 12.86385466 0 10 C0.36034523 7.41118198 0.36034523 7.41118198 0.1875 4.75 C0.16042969 3.85796875 0.13335937 2.9659375 0.10546875 2.046875 C0.07066406 1.37140625 0.03585938 0.6959375 0 0 Z " fill="#49474D" transform="translate(75,63)"/>
<path d="M0 0 C1.07765625 0.01804687 2.1553125 0.03609375 3.265625 0.0546875 C4.49539062 0.08949219 4.49539062 0.08949219 5.75 0.125 C2.46494168 1.82689768 -0.89617346 3.26932232 -4.3125 4.6875 C-5.35535156 5.12191406 -6.39820313 5.55632812 -7.47265625 6.00390625 C-9.37498952 6.77179605 -11.30380526 7.47626842 -13.25 8.125 C-13.559375 8.785 -13.86875 9.445 -14.1875 10.125 C-15.25 12.125 -15.25 12.125 -17.375 12.875 C-18.303125 12.99875 -18.303125 12.99875 -19.25 13.125 C-18.69846785 9.38775228 -17.28850239 7.9014009 -14.4375 5.5 C-13.75042969 4.90960938 -13.06335937 4.31921875 -12.35546875 3.7109375 C-8.10512731 0.50938161 -5.36258908 -0.11657802 0 0 Z " fill="#434247" transform="translate(56.25,92.875)"/>
<path d="M0 0 C11.57407546 1.17702462 11.57407546 1.17702462 15.875 5.9375 C16.57625 6.948125 17.2775 7.95875 18 9 C17.67 9.99 17.34 10.98 17 12 C16.01 12 15.02 12 14 12 C12.640625 10.57421875 12.640625 10.57421875 11.25 8.6875 C8.18505811 4.87744692 5.52737895 3.68667059 1 2 C0.67 1.34 0.34 0.68 0 0 Z " fill="#3C3A41" transform="translate(78,94)"/>
<path d="M0 0 C3.93673644 1.31224548 6.22719294 2.91910327 9 6 C8.67 6.66 8.34 7.32 8 8 C7.67 7.01 7.34 6.02 7 5 C6.34 5 5.68 5 5 5 C5.33 6.32 5.66 7.64 6 9 C5.195625 8.175 4.39125 7.35 3.5625 6.5 C0.07081235 3.52746015 -2.79502351 3.56736934 -7.2421875 3.82421875 C-7.82226562 3.88222656 -8.40234375 3.94023438 -9 4 C-8.67 3.34 -8.34 2.68 -8 2 C-5.36 2 -2.72 2 0 2 C0 1.34 0 0.68 0 0 Z " fill="#646368" transform="translate(70,58)"/>
<path d="M0 0 C0.66 0 1.32 0 2 0 C4.45970225 3.68955337 4.57750613 6.71611123 4 11 C2.625 13.5 2.625 13.5 1 15 C0.34 15 -0.32 15 -1 15 C-0.835 14.38125 -0.67 13.7625 -0.5 13.125 C0.20075317 8.74529271 0.07734251 4.42571011 0 0 Z " fill="#37323B" transform="translate(75,63)"/>
<path d="M0 0 C3.93673644 1.31224548 6.22719294 2.91910327 9 6 C8.34 6 7.68 6 7 6 C7.33 6.99 7.66 7.98 8 9 C4.11980141 7.74155722 2.0588158 6.57583797 0 3 C0 2.01 0 1.02 0 0 Z " fill="#525057" transform="translate(55,73)"/>
<path d="M0 0 C0.66 0.33 1.32 0.66 2 1 C2.08153933 2.58246707 2.13943557 4.16616273 2.1875 5.75 C2.22230469 6.63171875 2.25710937 7.5134375 2.29296875 8.421875 C1.94923684 11.44671583 0.99772541 12.75583602 -1 15 C0.65 14.01 2.3 13.02 4 12 C3.3125 13.9375 3.3125 13.9375 2 16 C-0.625 16.75 -0.625 16.75 -3 17 C-2.25 12.25 -2.25 12.25 0 10 C0.24287489 7.55987051 0.24287489 7.55987051 0.125 4.875 C0.10695313 3.96492188 0.08890625 3.05484375 0.0703125 2.1171875 C0.04710938 1.41851562 0.02390625 0.71984375 0 0 Z " fill="#90D0AD" transform="translate(91,64)"/>
<path d="M0 0 C0.33 0.99 0.66 1.98 1 3 C-0.2375 3.12375 -1.475 3.2475 -2.75 3.375 C-5.8762197 3.75746305 -8.28879237 4.30549523 -11 6 C-11 4.68 -11 3.36 -11 2 C-7.17679443 0.57741188 -4.08718695 -0.24042276 0 0 Z " fill="#37373B" transform="translate(69,57)"/>
<path d="M0 0 C0.61875 0.350625 1.2375 0.70125 1.875 1.0625 C2.57625 1.371875 3.2775 1.68125 4 2 C4.66 1.67 5.32 1.34 6 1 C6.99 1.99 7.98 2.98 9 4 C8.67 4.99 8.34 5.98 8 7 C7.01 7 6.02 7 5 7 C3.61328125 5.46875 3.61328125 5.46875 2.3125 3.5 C1.87550781 2.8503125 1.43851562 2.200625 0.98828125 1.53125 C0.49908203 0.77328125 0.49908203 0.77328125 0 0 Z " fill="#58575E" transform="translate(87,99)"/>
<path d="M0 0 C3.03061766 2.02041177 3.72239767 2.75685563 5 6 C5 6.99 5 7.98 5 9 C3.68 9 2.36 9 1 9 C0.67 7.68 0.34 6.36 0 5 C0.66 5 1.32 5 2 5 C1.34 3.35 0.68 1.7 0 0 Z " fill="#67B38E" transform="translate(109,95)"/>
<path d="M0 0 C0.99 0 1.98 0 3 0 C3 0.66 3 1.32 3 2 C4.32 2.33 5.64 2.66 7 3 C6.01 3.33 5.02 3.66 4 4 C4.33 4.66 4.66 5.32 5 6 C2.525 5.01 2.525 5.01 0 4 C0 2.68 0 1.36 0 0 Z " fill="#65B48B" transform="translate(96,86)"/>
<path d="M0 0 C3.35595828 0.59927826 5.37801226 1.84622436 8 4 C7.67 4.66 7.34 5.32 7 6 C4.0625 5.25 4.0625 5.25 1 4 C0.125 1.875 0.125 1.875 0 0 Z " fill="#60B186" transform="translate(88,59)"/>
<path d="M0 0 C1.60407328 -0.02708567 3.2082785 -0.04643483 4.8125 -0.0625 C5.70582031 -0.07410156 6.59914063 -0.08570312 7.51953125 -0.09765625 C10 0 10 0 13 1 C13 1.66 13 2.32 13 3 C8.65535464 2.39174965 4.32448133 1.73832608 0 1 C0 0.67 0 0.34 0 0 Z " fill="#2E2B33" transform="translate(64,92)"/>
<path d="M0 0 C2.875 0.25 2.875 0.25 6 1 C7.375 3.0625 7.375 3.0625 8 5 C6.02 4.01 4.04 3.02 2 2 C2.33 3.32 2.66 4.64 3 6 C2.34 6 1.68 6 1 6 C0.67 4.02 0.34 2.04 0 0 Z " fill="#C4EAD7" transform="translate(86,57)"/>
<path d="M0 0 C5.75 1.75 5.75 1.75 8 4 C7.34 4 6.68 4 6 4 C5.67 4.66 5.34 5.32 5 6 C3.31237149 4.3545622 1.6459651 2.68711423 0 1 C0 0.67 0 0.34 0 0 Z " fill="#4EA97B" transform="translate(99,89)"/>
<path d="M0 0 C2.31 0 4.62 0 7 0 C7 0.99 7 1.98 7 3 C5.02 3 3.04 3 1 3 C0.67 2.01 0.34 1.02 0 0 Z " fill="#333136" transform="translate(62,79)"/>
<path d="M0 0 C1.9451 2.91765 2.45276317 4.62537285 3 8 C1.68 8 0.36 8 -1 8 C-1.125 2.25 -1.125 2.25 0 0 Z " fill="#3D3A42" transform="translate(55,66)"/>
<path d="M0 0 C1.32 0.66 2.64 1.32 4 2 C2.6875 3.5 2.6875 3.5 1 5 C0.01 5 -0.98 5 -2 5 C-1.125 1.125 -1.125 1.125 0 0 Z " fill="#515054" transform="translate(39,101)"/>
<path d="M0 0 C1.8871875 0.0309375 1.8871875 0.0309375 3.8125 0.0625 C0.85538438 1.70534201 -1.80758426 2.7067194 -5.1875 3.0625 C-5.8475 2.4025 -6.5075 1.7425 -7.1875 1.0625 C-4.43671116 0.14557039 -2.82801087 -0.04636083 0 0 Z " fill="#2B2A2F" transform="translate(58.1875,92.9375)"/>
<path d="M0 0 C2.31 0.33 4.62 0.66 7 1 C6.67 1.99 6.34 2.98 6 4 C1.125 2.25 1.125 2.25 0 0 Z " fill="#333137" transform="translate(78,94)"/>
</svg>
