<?xml version="1.0" standalone="no"?>
<!DOCTYPE svg PUBLIC "-//W3C//DTD SVG 20010904//EN"
 "http://www.w3.org/TR/2001/REC-SVG-20010904/DTD/svg10.dtd">
<svg version="1.0" xmlns="http://www.w3.org/2000/svg"
 width="156.000000pt" height="156.000000pt" viewBox="0 0 156.000000 156.000000"
 preserveAspectRatio="xMidYMid meet">
<metadata>
Created by potrace 1.10, written by Peter Selinger 2001-2011
</metadata>
<g transform="translate(0.000000,156.000000) scale(0.100000,-0.100000)"
fill="#000000" stroke="none">
<path d="M490 1080 c-19 -19 -20 -33 -20 -345 0 -312 1 -326 20 -345 19 -19
33 -20 205 -20 172 0 186 1 205 20 26 26 30 133 5 124 -9 -4 -15 -20 -15 -43
0 -62 2 -62 -201 -59 l-184 3 -3 318 -2 318 22 9 c28 10 317 10 347 -1 17 -7
21 -17 21 -53 0 -30 5 -46 15 -50 25 -9 21 98 -5 124 -19 19 -33 20 -205 20
-172 0 -186 -1 -205 -20z"/>
<path d="M815 871 l-80 -46 0 -89 0 -89 35 -21 c19 -12 56 -33 82 -46 l48 -25
62 33 c104 55 99 47 96 152 l-3 92 -80 43 -80 43 -80 -47z m140 -22 c30 -17
55 -32 55 -34 0 -1 -25 -15 -55 -30 l-54 -28 -55 24 c-31 13 -56 27 -56 31 0
5 95 65 108 67 1 1 27 -13 57 -30z m-92 -113 c13 -9 17 -24 17 -74 l0 -62 -52
30 -53 29 -3 67 -3 66 38 -23 c21 -12 46 -28 56 -33z m167 -11 l0 -65 -50 -25
c-27 -14 -53 -26 -57 -28 -4 -1 -7 25 -6 58 1 47 5 62 19 70 10 5 34 20 54 33
19 12 36 22 37 22 2 0 3 -29 3 -65z"/>
<path d="M635 470 c-12 -19 5 -26 62 -25 46 0 58 4 61 18 3 15 -5 17 -57 17
-33 0 -63 -4 -66 -10z"/>
</g>
</svg>
