<?xml version="1.0" standalone="no"?>
<!DOCTYPE svg PUBLIC "-//W3C//DTD SVG 20010904//EN"
 "http://www.w3.org/TR/2001/REC-SVG-20010904/DTD/svg10.dtd">
<svg version="1.0" xmlns="http://www.w3.org/2000/svg"
 width="156.000000pt" height="156.000000pt" viewBox="0 0 156.000000 156.000000"
 preserveAspectRatio="xMidYMid meet">
<metadata>
Created by potrace 1.10, written by Peter Selinger 2001-2011
</metadata>
<g transform="translate(0.000000,156.000000) scale(0.100000,-0.100000)"
fill="#000000" stroke="none">
<path d="M551 1113 c-69 -35 -71 -42 -71 -380 0 -301 0 -302 22 -317 19 -13
58 -16 223 -16 268 0 247 -23 243 263 l-3 216 70 3 70 3 3 92 c3 84 1 93 -22
120 l-24 28 -239 3 c-207 2 -242 0 -272 -15z m392 -33 c-5 -8 -8 -153 -8 -322
0 -168 -3 -309 -6 -312 -8 -9 -30 -9 -232 -8 l-188 2 3 300 c3 292 4 300 25
321 28 29 68 34 256 34 136 0 156 -2 150 -15z m114 -4 c6 -6 13 -46 15 -88 l3
-78 -52 0 -53 0 0 73 c0 85 18 122 53 111 12 -3 27 -11 34 -18z"/>
<path d="M676 943 c-20 -40 -36 -76 -36 -78 0 -3 18 -5 39 -5 l40 0 -10 -32
c-20 -70 -6 -90 25 -35 11 17 32 48 48 68 15 20 28 39 28 42 0 3 -21 7 -46 9
l-46 3 37 48 c20 26 35 48 33 48 -2 1 -19 3 -39 4 -35 2 -37 1 -73 -72z"/>
<path d="M575 640 c-13 -21 9 -30 76 -30 62 0 69 2 69 20 0 18 -7 20 -69 20
-39 0 -73 -4 -76 -10z"/>
<path d="M603 552 c-21 -2 -33 -9 -33 -18 0 -11 26 -14 145 -14 120 0 145 3
145 14 0 12 -23 15 -112 18 -62 2 -128 2 -145 0z"/>
</g>
</svg>
