<?xml version="1.0" standalone="no"?>
<!DOCTYPE svg PUBLIC "-//W3C//DTD SVG 20010904//EN"
 "http://www.w3.org/TR/2001/REC-SVG-20010904/DTD/svg10.dtd">
<svg version="1.0" xmlns="http://www.w3.org/2000/svg"
 width="156.000000pt" height="156.000000pt" viewBox="0 0 156.000000 156.000000"
 preserveAspectRatio="xMidYMid meet">
<metadata>
Created by potrace 1.10, written by Peter Selinger 2001-2011
</metadata>
<g transform="translate(0.000000,156.000000) scale(0.100000,-0.100000)"
fill="#000000" stroke="none">
<path d="M618 1019 c-28 -16 -22 -41 32 -149 28 -55 50 -106 50 -114 0 -8 -22
-60 -50 -115 -56 -113 -60 -137 -27 -152 21 -9 55 5 268 113 330 166 329 143
4 306 -135 67 -248 122 -253 122 -4 0 -15 -5 -24 -11z m254 -139 l221 -110
-179 0 -179 1 -50 102 c-27 56 -51 105 -53 110 -9 18 34 0 240 -103z m1 -250
c-122 -60 -227 -110 -233 -110 -14 0 -17 -8 45 118 l50 101 180 1 179 0 -221
-110z"/>
<path d="M405 900 c-14 -22 13 -31 86 -28 58 2 74 6 74 18 0 12 -16 16 -77 18
-49 2 -79 -1 -83 -8z"/>
<path d="M310 755 c0 -13 21 -15 130 -15 109 0 130 2 130 15 0 13 -21 15 -130
15 -109 0 -130 -2 -130 -15z"/>
<path d="M405 630 c-14 -22 13 -31 86 -28 58 2 74 6 74 18 0 12 -16 16 -77 18
-49 2 -79 -1 -83 -8z"/>
</g>
</svg>
